Sitara_Rg.ufo
<glyph name="bracketleft" format="1">
  <advance width="735"/>
  <unicode hex="005B"/>
  <outline>
    <contour>
      <point x="662" y="-262" type="line"/>
      <point x="205" y="-262" type="line"/>
      <point x="205" y="1556" type="line"/>
      <point x="662" y="1556" type="line"/>
      <point x="662" y="1470" type="line"/>
      <point x="573" y="1470" type="line" smooth="yes"/>
      <point x="528" y="1470"/>
      <point x="486" y="1465"/>
      <point x="455" y="1445" type="curve" smooth="yes"/>
      <point x="424" y="1424"/>
      <point x="406" y="1387"/>
      <point x="406" y="1323" type="curve" smooth="yes"/>
      <point x="406" y="-29" type="line" smooth="yes"/>
      <point x="406" y="-93"/>
      <point x="424" y="-130"/>
      <point x="455" y="-150" type="curve" smooth="yes"/>
      <point x="486" y="-171"/>
      <point x="528" y="-176"/>
      <point x="573" y="-176" type="curve" smooth="yes"/>
      <point x="662" y="-176" type="line"/>
    </contour>
  </outline>
</glyph>
<glyph name="divide" format="1">
  <advance width="1145"/>
  <unicode hex="00F7"/>
  <outline>
    <contour>
      <point x="469" y="1163"/>
      <point x="480" y="1192"/>
      <point x="499" y="1209" type="curve" smooth="yes"/>
      <point x="518" y="1226"/>
      <point x="544" y="1233"/>
      <point x="573" y="1233" type="curve" smooth="yes"/>
      <point x="602" y="1233"/>
      <point x="628" y="1226"/>
      <point x="648" y="1209" type="curve" smooth="yes"/>
      <point x="667" y="1192"/>
      <point x="678" y="1163"/>
      <point x="678" y="1120" type="curve" smooth="yes"/>
      <point x="678" y="1079"/>
      <point x="667" y="1051"/>
      <point x="648" y="1033" type="curve" smooth="yes"/>
      <point x="628" y="1015"/>
      <point x="602" y="1008"/>
      <point x="573" y="1008" type="curve" smooth="yes"/>
      <point x="544" y="1008"/>
      <point x="518" y="1015"/>
      <point x="499" y="1033" type="curve" smooth="yes"/>
      <point x="480" y="1051"/>
      <point x="469" y="1079"/>
      <point x="469" y="1120" type="curve" smooth="yes"/>
    </contour>
    <contour>
      <point x="1012" y="793" type="line"/>
      <point x="1012" y="672" type="line"/>
      <point x="133" y="672" type="line"/>
      <point x="133" y="793" type="line"/>
    </contour>
    <contour>
      <point x="469" y="387"/>
      <point x="480" y="416"/>
      <point x="499" y="433" type="curve" smooth="yes"/>
      <point x="518" y="450"/>
      <point x="544" y="457"/>
      <point x="573" y="457" type="curve" smooth="yes"/>
      <point x="602" y="457"/>
      <point x="628" y="450"/>
      <point x="648" y="433" type="curve" smooth="yes"/>
      <point x="667" y="416"/>
      <point x="678" y="387"/>
      <point x="678" y="344" type="curve" smooth="yes"/>
      <point x="678" y="303"/>
      <point x="667" y="273"/>
      <point x="648" y="256" type="curve" smooth="yes"/>
      <point x="628" y="239"/>
      <point x="602" y="231"/>
      <point x="573" y="231" type="curve" smooth="yes"/>
      <point x="513" y="231"/>
      <point x="469" y="260"/>
      <point x="469" y="344" type="curve" smooth="yes"/>
    </contour>
  </outline>
</glyph>
<glyph name="dCandraBinduInverted" format="1">
  <advance width="0"/>
  <unicode hex="0900"/>
  <outline>
    <contour>
      <point x="281" y="1570"/>
      <point x="296" y="1584"/>
      <point x="296" y="1628" type="curve" smooth="yes"/>
      <point x="296" y="1757"/>
      <point x="165" y="1954"/>
      <point x="-40" y="1954" type="curve" smooth="yes"/>
      <point x="-220" y="1954"/>
      <point x="-347" y="1801"/>
      <point x="-347" y="1680" type="curve" smooth="yes"/>
      <point x="-347" y="1628"/>
      <point x="-324" y="1602"/>
      <point x="-257" y="1574" type="curve"/>
      <point x="-215" y="1744"/>
      <point x="-116" y="1821"/>
      <point x="-4" y="1821" type="curve" smooth="yes"/>
      <point x="102" y="1821"/>
      <point x="194" y="1751"/>
      <point x="255" y="1556" type="curve"/>
    </contour>
    <contour>
      <point x="-54" y="1681"/>
      <point x="-98" y="1637"/>
      <point x="-98" y="1583" type="curve" smooth="yes"/>
      <point x="-98" y="1530"/>
      <point x="-54" y="1486"/>
      <point x="0" y="1486" type="curve" smooth="yes"/>
      <point x="53" y="1486"/>
      <point x="97" y="1530"/>
      <point x="97" y="1583" type="curve" smooth="yes"/>
      <point x="97" y="1637"/>
      <point x="53" y="1681"/>
      <point x="0" y="1681" type="curve" smooth="yes"/>
    </contour>
    <contour>
      <point x="0" y="1395" type="move" name="_abvm_nasal"/>
    </contour>
  </outline>
</glyph>
<glyph name="dAnusvara" format="1">
  <advance width="0"/>
  <unicode hex="0902"/>
  <outline>
    <contour>
      <point x="54" y="1459"/>
      <point x="98" y="1503"/>
      <point x="98" y="1557" type="curve" smooth="yes"/>
      <point x="98" y="1610"/>
      <point x="54" y="1654"/>
      <point x="0" y="1654" type="curve" smooth="yes"/>
      <point x="-53" y="1654"/>
      <point x="-97" y="1610"/>
      <point x="-97" y="1557" type="curve" smooth="yes"/>
      <point x="-97" y="1503"/>
      <point x="-53" y="1459"/>
      <point x="0" y="1459" type="curve" smooth="yes"/>
    </contour>
    <contour>
      <point x="0.0" y="1395.0" type="move" name="_abvm_nasal"/>
    </contour>
  </outline>
</glyph>
<glyph name="dI" format="1">
  <advance width="1006"/>
  <unicode hex="0907"/>
  <outline>
    <contour>
      <point x="794" y="885" type="line"/>
      <point x="802" y="893" type="line"/>
      <point x="802" y="1197" type="line"/>
      <point x="1056" y="1197" type="line"/>
      <point x="1062" y="1206" type="line"/>
      <point x="1006" y="1330" type="line"/>
      <point x="-50" y="1330" type="line"/>
      <point x="-56" y="1321" type="line"/>
      <point x="0" y="1197" type="line"/>
      <point x="648" y="1197" type="line"/>
      <point x="648" y="1034" type="line" smooth="yes"/>
      <point x="648" y="1029"/>
      <point x="645" y="1026"/>
      <point x="640" y="1026" type="curve" smooth="yes"/>
      <point x="307" y="1026" type="line" smooth="yes"/>
      <point x="175" y="1026"/>
      <point x="114" y="961"/>
      <point x="114" y="877" type="curve" smooth="yes"/>
      <point x="114" y="740"/>
      <point x="275" y="532"/>
      <point x="456" y="532" type="curve" smooth="yes"/>
      <point x="515" y="532"/>
      <point x="672" y="554"/>
      <point x="709" y="554" type="curve" smooth="yes"/>
      <point x="755" y="554"/>
      <point x="778" y="520"/>
      <point x="778" y="481" type="curve" smooth="yes"/>
      <point x="778" y="386"/>
      <point x="637" y="310"/>
      <point x="420" y="311" type="curve"/>
      <point x="380" y="396"/>
      <point x="334" y="447"/>
      <point x="266" y="447" type="curve" smooth="yes"/>
      <point x="214" y="447"/>
      <point x="155" y="416"/>
      <point x="155" y="341" type="curve" smooth="yes"/>
      <point x="155" y="248"/>
      <point x="245" y="163"/>
      <point x="403" y="150" type="curve"/>
      <point x="475" y="-61"/>
      <point x="593" y="-143"/>
      <point x="698" y="-143" type="curve" smooth="yes"/>
      <point x="770" y="-143"/>
      <point x="824" y="-105"/>
      <point x="824" y="-42" type="curve" smooth="yes"/>
      <point x="824" y="-20"/>
      <point x="817" y="5"/>
      <point x="802" y="33" type="curve"/>
      <point x="772" y="23"/>
      <point x="746" y="17"/>
      <point x="704" y="17" type="curve" smooth="yes"/>
      <point x="609" y="17"/>
      <point x="552" y="45"/>
      <point x="491" y="149" type="curve"/>
      <point x="729" y="163"/>
      <point x="886" y="273"/>
      <point x="886" y="428" type="curve" smooth="yes"/>
      <point x="886" y="555"/>
      <point x="784" y="721"/>
      <point x="631" y="721" type="curve" smooth="yes"/>
      <point x="565" y="721"/>
      <point x="430" y="690"/>
      <point x="368" y="690" type="curve" smooth="yes"/>
      <point x="299" y="690"/>
      <point x="256" y="729"/>
      <point x="256" y="790" type="curve" smooth="yes"/>
      <point x="256" y="845"/>
      <point x="291" y="885"/>
      <point x="389" y="885" type="curve" smooth="yes"/>
    </contour>
    <contour>
      <point x="722" y="1395" type="move" name="abvm_nasal"/>
    </contour>
    <contour>
      <point x="722" y="1325" type="move" name="abvm_matra"/>
    </contour>
    <contour>
      <point x="722" y="1335" type="move" name="abvm_reph"/>
    </contour>
    <contour>
      <point x="503" y="1600" type="move" name="abvm_latin"/>
    </contour>
    <contour>
      <point x="722" y="-19" type="move" name="blwm_matra"/>
    </contour>
    <contour>
      <point x="503" y="-10" type="move" name="blwm_mid"/>
    </contour>
    <contour>
      <point x="503" y="10" type="move" name="blwm_rakar"/>
    </contour>
    <contour>
      <point x="0" y="-23" type="move" name="blwm_nukta"/>
    </contour>
  </outline>
</glyph>
<glyph name="dU" format="1">
  <advance width="1118"/>
  <unicode hex="0909"/>
  <outline>
    <contour>
      <point x="1168" y="1197" type="line"/>
      <point x="1174" y="1206" type="line"/>
      <point x="1118" y="1330" type="line"/>
      <point x="-50" y="1330" type="line"/>
      <point x="-56" y="1321" type="line"/>
      <point x="0" y="1197" type="line"/>
      <point x="614" y="1197" type="line" smooth="yes"/>
      <point x="735" y="1197"/>
      <point x="791" y="1110"/>
      <point x="791" y="1031" type="curve" smooth="yes"/>
      <point x="791" y="908"/>
      <point x="656" y="830"/>
      <point x="415" y="828" type="curve"/>
      <point x="409" y="819" type="line"/>
      <point x="477" y="655" type="line"/>
      <point x="564" y="655"/>
      <point x="640" y="666"/>
      <point x="703" y="687" type="curve"/>
      <point x="800" y="650"/>
      <point x="869" y="574"/>
      <point x="869" y="463" type="curve" smooth="yes"/>
      <point x="869" y="323"/>
      <point x="760" y="232"/>
      <point x="610" y="232" type="curve" smooth="yes"/>
      <point x="395" y="232"/>
      <point x="217" y="421"/>
      <point x="156" y="806" type="curve"/>
      <point x="101" y="801"/>
      <point x="79" y="771"/>
      <point x="79" y="708" type="curve" smooth="yes"/>
      <point x="79" y="527"/>
      <point x="257" y="70"/>
      <point x="653" y="70" type="curve" smooth="yes"/>
      <point x="874" y="70"/>
      <point x="1007" y="213"/>
      <point x="1007" y="394" type="curve" smooth="yes"/>
      <point x="1007" y="532"/>
      <point x="929" y="653"/>
      <point x="810" y="736" type="curve"/>
      <point x="896" y="800"/>
      <point x="930" y="869"/>
      <point x="930" y="953" type="curve" smooth="yes"/>
      <point x="930" y="1032"/>
      <point x="900" y="1107"/>
      <point x="826" y="1197" type="curve"/>
    </contour>
    <contour>
      <point x="813" y="1395" type="move" name="abvm_nasal"/>
    </contour>
    <contour>
      <point x="813" y="1325" type="move" name="abvm_matra"/>
    </contour>
    <contour>
      <point x="813" y="1335" type="move" name="abvm_reph"/>
    </contour>
    <contour>
      <point x="559" y="1600" type="move" name="abvm_latin"/>
    </contour>
    <contour>
      <point x="813" y="-19" type="move" name="blwm_matra"/>
    </contour>
    <contour>
      <point x="559" y="-10" type="move" name="blwm_mid"/>
    </contour>
    <contour>
      <point x="559" y="10" type="move" name="blwm_rakar"/>
    </contour>
    <contour>
      <point x="0" y="-23" type="move" name="blwm_nukta"/>
    </contour>
  </outline>
</glyph>
<glyph name="dRvocalic" format="1">
  <advance width="1711"/>
  <unicode hex="090B"/>
  <outline>
    <contour>
      <point x="954" y="1197" type="line"/>
      <point x="1761" y="1197" type="line"/>
      <point x="1767" y="1206" type="line"/>
      <point x="1711" y="1330" type="line"/>
      <point x="-50" y="1330" type="line"/>
      <point x="-56" y="1321" type="line"/>
      <point x="0" y="1197" type="line"/>
      <point x="794" y="1197" type="line"/>
      <point x="794" y="763" type="line"/>
      <point x="509" y="976"/>
      <point x="429" y="1019"/>
      <point x="324" y="1019" type="curve" smooth="yes"/>
      <point x="175" y="1019"/>
      <point x="94" y="931"/>
      <point x="94" y="859" type="curve" smooth="yes"/>
      <point x="94" y="811"/>
      <point x="130" y="765"/>
      <point x="194" y="725" type="curve"/>
      <point x="250" y="823"/>
      <point x="318" y="879"/>
      <point x="392" y="879" type="curve" smooth="yes"/>
      <point x="466" y="879"/>
      <point x="558" y="824"/>
      <point x="741" y="686" type="curve"/>
      <point x="538" y="553"/>
      <point x="376" y="427"/>
      <point x="221" y="288" type="curve"/>
      <point x="221" y="276" type="line"/>
      <point x="343" y="158" type="line"/>
      <point x="486" y="289"/>
      <point x="617" y="397"/>
      <point x="794" y="522" type="curve"/>
      <point x="794" y="19" type="line"/>
      <point x="945" y="-19" type="line"/>
      <point x="954" y="-12" type="line"/>
      <point x="954" y="567" type="line"/>
      <point x="1098" y="573"/>
      <point x="1231" y="617"/>
      <point x="1327" y="678" type="curve"/>
      <point x="1439" y="524"/>
      <point x="1458" y="468"/>
      <point x="1458" y="424" type="curve" smooth="yes"/>
      <point x="1458" y="321"/>
      <point x="1351" y="270"/>
      <point x="1240" y="270" type="curve"/>
      <point x="1250" y="188"/>
      <point x="1306" y="136"/>
      <point x="1386" y="136" type="curve" smooth="yes"/>
      <point x="1490" y="136"/>
      <point x="1588" y="222"/>
      <point x="1588" y="358" type="curve" smooth="yes"/>
      <point x="1588" y="465"/>
      <point x="1527" y="576"/>
      <point x="1400" y="735" type="curve"/>
      <point x="1449" y="783"/>
      <point x="1477" y="836"/>
      <point x="1477" y="888" type="curve" smooth="yes"/>
      <point x="1477" y="968"/>
      <point x="1409" y="1045"/>
      <point x="1316" y="1045" type="curve" smooth="yes"/>
      <point x="1239" y="1045"/>
      <point x="1193" y="992"/>
      <point x="1193" y="928" type="curve" smooth="yes"/>
      <point x="1193" y="893"/>
      <point x="1207" y="855"/>
      <point x="1236" y="808" type="curve"/>
      <point x="1156" y="753"/>
      <point x="1065" y="722"/>
      <point x="954" y="713" type="curve"/>
    </contour>
  </outline>
</glyph>
<glyph name="dEcandra" format="1">
  <advance width="1126"/>
  <unicode hex="090D"/>
  <outline>
    <contour>
      <point x="220" y="1870"/>
      <point x="205" y="1856"/>
      <point x="205" y="1812" type="curve" smooth="yes"/>
      <point x="205" y="1683"/>
      <point x="336" y="1486"/>
      <point x="541" y="1486" type="curve" smooth="yes"/>
      <point x="721" y="1486"/>
      <point x="848" y="1639"/>
      <point x="848" y="1760" type="curve" smooth="yes"/>
      <point x="848" y="1812"/>
      <point x="825" y="1838"/>
      <point x="758" y="1866" type="curve"/>
      <point x="716" y="1696"/>
      <point x="617" y="1619"/>
      <point x="505" y="1619" type="curve" smooth="yes"/>
      <point x="399" y="1619"/>
      <point x="307" y="1689"/>
      <point x="246" y="1884" type="curve"/>
    </contour>
    <contour>
      <point x="908" y="1197" type="line"/>
      <point x="1176" y="1197" type="line"/>
      <point x="1182" y="1206" type="line"/>
      <point x="1126" y="1330" type="line"/>
      <point x="-50" y="1330" type="line"/>
      <point x="-56" y="1321" type="line"/>
      <point x="0" y="1197" type="line"/>
      <point x="123" y="1197" type="line"/>
      <point x="123" y="787" type="line" smooth="yes"/>
      <point x="123" y="526"/>
      <point x="271" y="456"/>
      <point x="686" y="266" type="curve" smooth="yes"/>
      <point x="886" y="174"/>
      <point x="909" y="151"/>
      <point x="909" y="101" type="curve" smooth="yes"/>
      <point x="909" y="39"/>
      <point x="874" y="-10"/>
      <point x="779" y="-59" type="curve"/>
      <point x="807" y="-103"/>
      <point x="862" y="-141"/>
      <point x="918" y="-141" type="curve" smooth="yes"/>
      <point x="992" y="-141"/>
      <point x="1066" y="-73"/>
      <point x="1066" y="38" type="curve" smooth="yes"/>
      <point x="1066" y="144"/>
      <point x="998" y="238"/>
      <point x="642" y="403" type="curve" smooth="yes"/>
      <point x="406" y="513"/>
      <point x="283" y="539"/>
      <point x="283" y="671" type="curve" smooth="yes"/>
      <point x="284" y="1197" type="line"/>
      <point x="748" y="1197" type="line"/>
      <point x="748" y="781" type="line" smooth="yes"/>
      <point x="748" y="711"/>
      <point x="712" y="649"/>
      <point x="640" y="621" type="curve"/>
      <point x="682" y="576"/>
      <point x="731" y="544"/>
      <point x="785" y="544" type="curve" smooth="yes"/>
      <point x="860" y="544"/>
      <point x="908" y="607"/>
      <point x="908" y="707" type="curve" smooth="yes"/>
    </contour>
    <contour>
      <point x="828" y="1395" type="move" name="abvm_nasal"/>
    </contour>
    <contour>
      <point x="828" y="1325" type="move" name="abvm_matra"/>
    </contour>
    <contour>
      <point x="828" y="1335" type="move" name="abvm_reph"/>
    </contour>
    <contour>
      <point x="563" y="1600" type="move" name="abvm_latin"/>
    </contour>
    <contour>
      <point x="828" y="-19" type="move" name="blwm_matra"/>
    </contour>
    <contour>
      <point x="563" y="-10" type="move" name="blwm_mid"/>
    </contour>
    <contour>
      <point x="563" y="10" type="move" name="blwm_rakar"/>
    </contour>
    <contour>
      <point x="0" y="-23" type="move" name="blwm_nukta"/>
    </contour>
  </outline>
</glyph>
<glyph name="dOcandra" format="1">
  <advance width="2033"/>
  <unicode hex="0911"/>
  <outline>
    <contour>
      <point x="1193" y="1870"/>
      <point x="1178" y="1856"/>
      <point x="1178" y="1812" type="curve" smooth="yes"/>
      <point x="1178" y="1683"/>
      <point x="1309" y="1486"/>
      <point x="1514" y="1486" type="curve" smooth="yes"/>
      <point x="1694" y="1486"/>
      <point x="1821" y="1639"/>
      <point x="1821" y="1760" type="curve" smooth="yes"/>
      <point x="1821" y="1812"/>
      <point x="1798" y="1838"/>
      <point x="1731" y="1866" type="curve"/>
      <point x="1689" y="1696"/>
      <point x="1590" y="1619"/>
      <point x="1478" y="1619" type="curve" smooth="yes"/>
      <point x="1372" y="1619"/>
      <point x="1280" y="1689"/>
      <point x="1219" y="1884" type="curve"/>
    </contour>
    <contour>
      <point x="2089" y="1206" type="line"/>
      <point x="2033" y="1330" type="line"/>
      <point x="969" y="1330" type="line"/>
      <point x="963" y="1321" type="line"/>
      <point x="1019" y="1197" type="line"/>
      <point x="1182" y="1197" type="line"/>
      <point x="1182" y="907" type="line" smooth="yes"/>
      <point x="1182" y="770"/>
      <point x="1085" y="696"/>
      <point x="957" y="696" type="curve" smooth="yes"/>
      <point x="903" y="696"/>
      <point x="840" y="709"/>
      <point x="780" y="740" type="curve"/>
      <point x="860" y="809"/>
      <point x="892" y="878"/>
      <point x="892" y="970" type="curve" smooth="yes"/>
      <point x="892" y="1182"/>
      <point x="724" y="1335"/>
      <point x="481" y="1335" type="curve" smooth="yes"/>
      <point x="284" y="1335"/>
      <point x="177" y="1234"/>
      <point x="177" y="1136" type="curve" smooth="yes"/>
      <point x="177" y="1065"/>
      <point x="234" y="1017"/>
      <point x="323" y="1017" type="curve"/>
      <point x="323" y="1135"/>
      <point x="407" y="1224"/>
      <point x="547" y="1224" type="curve" smooth="yes"/>
      <point x="665" y="1224"/>
      <point x="746" y="1161"/>
      <point x="746" y="1039" type="curve" smooth="yes"/>
      <point x="746" y="898"/>
      <point x="638" y="812"/>
      <point x="388" y="799" type="curve"/>
      <point x="382" y="789" type="line"/>
      <point x="463" y="632" type="line"/>
      <point x="548" y="642"/>
      <point x="620" y="659"/>
      <point x="679" y="683" type="curve"/>
      <point x="768" y="644"/>
      <point x="827" y="550"/>
      <point x="827" y="448" type="curve" smooth="yes"/>
      <point x="827" y="317"/>
      <point x="730" y="224"/>
      <point x="578" y="224" type="curve" smooth="yes"/>
      <point x="379" y="224"/>
      <point x="207" y="385"/>
      <point x="154" y="756" type="curve"/>
      <point x="107" y="752"/>
      <point x="80" y="735"/>
      <point x="80" y="664" type="curve" smooth="yes"/>
      <point x="80" y="489"/>
      <point x="245" y="62"/>
      <point x="621" y="62" type="curve" smooth="yes"/>
      <point x="833" y="62"/>
      <point x="962" y="198"/>
      <point x="962" y="383" type="curve" smooth="yes"/>
      <point x="962" y="460"/>
      <point x="940" y="531"/>
      <point x="899" y="600" type="curve"/>
      <point x="948" y="582"/>
      <point x="999" y="573"/>
      <point x="1045" y="573" type="curve" smooth="yes"/>
      <point x="1090" y="573"/>
      <point x="1133" y="582"/>
      <point x="1182" y="605" type="curve"/>
      <point x="1182" y="19" type="line"/>
      <point x="1333" y="-19" type="line"/>
      <point x="1342" y="-12" type="line"/>
      <point x="1342" y="1197" type="line"/>
      <point x="1665" y="1197" type="line"/>
      <point x="1665" y="19" type="line"/>
      <point x="1816" y="-19" type="line"/>
      <point x="1825" y="-12" type="line"/>
      <point x="1825" y="1197" type="line"/>
      <point x="2083" y="1197" type="line"/>
    </contour>
    <contour>
      <point x="1745" y="1395" type="move" name="abvm_nasal"/>
    </contour>
    <contour>
      <point x="1745" y="1325" type="move" name="abvm_matra"/>
    </contour>
    <contour>
      <point x="1745" y="1335" type="move" name="abvm_reph"/>
    </contour>
    <contour>
      <point x="1016" y="1600" type="move" name="abvm_latin"/>
    </contour>
    <contour>
      <point x="1745" y="-19" type="move" name="blwm_matra"/>
    </contour>
    <contour>
      <point x="1016" y="-10" type="move" name="blwm_mid"/>
    </contour>
    <contour>
      <point x="1016" y="10" type="move" name="blwm_rakar"/>
    </contour>
    <contour>
      <point x="0" y="-23" type="move" name="blwm_nukta"/>
    </contour>
  </outline>
</glyph>
<glyph name="dKa" format="1">
  <advance width="1542"/>
  <unicode hex="0915"/>
  <outline>
    <contour>
      <point x="893" y="1197" type="line"/>
      <point x="1592" y="1197" type="line"/>
      <point x="1598" y="1206" type="line"/>
      <point x="1542" y="1330" type="line"/>
      <point x="-50" y="1330" type="line"/>
      <point x="-56" y="1321" type="line"/>
      <point x="0" y="1197" type="line"/>
      <point x="733" y="1197" type="line"/>
      <point x="733" y="846" type="line"/>
      <point x="634" y="952"/>
      <point x="516" y="987"/>
      <point x="422" y="987" type="curve" smooth="yes"/>
      <point x="234" y="987"/>
      <point x="99" y="849"/>
      <point x="99" y="667" type="curve" smooth="yes"/>
      <point x="99" y="421"/>
      <point x="348" y="219"/>
      <point x="554" y="219" type="curve" smooth="yes"/>
      <point x="612" y="219"/>
      <point x="670" y="235"/>
      <point x="733" y="279" type="curve"/>
      <point x="733" y="19" type="line"/>
      <point x="884" y="-19" type="line"/>
      <point x="893" y="-12" type="line"/>
      <point x="893" y="496" type="line" smooth="yes"/>
      <point x="893" y="678"/>
      <point x="1060" y="805"/>
      <point x="1183" y="805" type="curve" smooth="yes"/>
      <point x="1271" y="805"/>
      <point x="1331" y="740"/>
      <point x="1331" y="626" type="curve" smooth="yes"/>
      <point x="1331" y="500"/>
      <point x="1258" y="359"/>
      <point x="1120" y="287" type="curve"/>
      <point x="1151" y="236"/>
      <point x="1203" y="200"/>
      <point x="1255" y="200" type="curve" smooth="yes"/>
      <point x="1350" y="200"/>
      <point x="1456" y="318"/>
      <point x="1456" y="529" type="curve" smooth="yes"/>
      <point x="1456" y="785"/>
      <point x="1301" y="932"/>
      <point x="1119" y="932" type="curve" smooth="yes"/>
      <point x="1029" y="932"/>
      <point x="957" y="896"/>
      <point x="893" y="833" type="curve"/>
    </contour>
    <contour>
      <point x="635" y="843"/>
      <point x="733" y="745"/>
      <point x="733" y="632" type="curve" smooth="yes"/>
      <point x="733" y="568" type="line" smooth="yes"/>
      <point x="733" y="444"/>
      <point x="614" y="358"/>
      <point x="486" y="358" type="curve" smooth="yes"/>
      <point x="350" y="358"/>
      <point x="248" y="456"/>
      <point x="248" y="597" type="curve" smooth="yes"/>
      <point x="248" y="734"/>
      <point x="345" y="843"/>
      <point x="494" y="843" type="curve" smooth="yes"/>
    </contour>
    <contour>
      <point x="813.0" y="1395.0" type="move" name="abvm_nasal"/>
    </contour>
    <contour>
      <point x="813.0" y="1325.0" type="move" name="abvm_matra"/>
    </contour>
    <contour>
      <point x="813.0" y="1335.0" type="move" name="abvm_reph"/>
    </contour>
    <contour>
      <point x="771.0" y="1600.0" type="move" name="abvm_latin"/>
    </contour>
    <contour>
      <point x="813.0" y="-19.0" type="move" name="blwm_matra"/>
    </contour>
    <contour>
      <point x="771.0" y="-10.0" type="move" name="blwm_mid"/>
    </contour>
    <contour>
      <point x="771.0" y="10.0" type="move" name="blwm_rakar"/>
    </contour>
    <contour>
      <point x="400" y="-23" type="move" name="blwm_nukta"/>
    </contour>
  </outline>
</glyph>
<glyph name="dGa" format="1">
  <advance width="1242"/>
  <unicode hex="0917"/>
  <outline>
    <contour>
      <point x="1035" y="1197" type="line"/>
      <point x="1292" y="1197" type="line"/>
      <point x="1298" y="1206" type="line"/>
      <point x="1242" y="1330" type="line"/>
      <point x="-49" y="1330" type="line"/>
      <point x="-55" y="1321" type="line"/>
      <point x="1" y="1197" type="line"/>
      <point x="285" y="1197" type="line"/>
      <point x="285" y="666" type="line"/>
      <point x="170" y="666" type="line" smooth="yes"/>
      <point x="114" y="666"/>
      <point x="91" y="639"/>
      <point x="91" y="610" type="curve" smooth="yes"/>
      <point x="91" y="535"/>
      <point x="246" y="363"/>
      <point x="351" y="363" type="curve" smooth="yes"/>
      <point x="410" y="363"/>
      <point x="440" y="416"/>
      <point x="440" y="524" type="curve" smooth="yes"/>
      <point x="440" y="1197" type="line"/>
      <point x="875" y="1197" type="line"/>
      <point x="875" y="19" type="line"/>
      <point x="1026" y="-19" type="line"/>
      <point x="1035" y="-12" type="line"/>
    </contour>
    <contour>
      <point x="955" y="1395" type="move" name="abvm_nasal"/>
    </contour>
    <contour>
      <point x="955" y="1325" type="move" name="abvm_matra"/>
    </contour>
    <contour>
      <point x="955" y="1335" type="move" name="abvm_reph"/>
    </contour>
    <contour>
      <point x="621" y="1600" type="move" name="abvm_latin"/>
    </contour>
    <contour>
      <point x="955" y="-19" type="move" name="blwm_matra"/>
    </contour>
    <contour>
      <point x="521" y="-10" type="move" name="blwm_mid"/>
    </contour>
    <contour>
      <point x="915" y="10" type="move" name="blwm_rakar"/>
    </contour>
    <contour>
      <point x="511" y="77" type="move" name="blwm_nukta"/>
    </contour>
  </outline>
</glyph>
<glyph name="dGha" format="1">
  <advance width="1261"/>
  <unicode hex="0918"/>
  <outline>
    <contour>
      <point x="1054" y="1197" type="line"/>
      <point x="1311" y="1197" type="line"/>
      <point x="1317" y="1206" type="line"/>
      <point x="1261" y="1330" type="line"/>
      <point x="-50" y="1330" type="line"/>
      <point x="-56" y="1321" type="line"/>
      <point x="0" y="1197" type="line"/>
      <point x="137" y="1197" type="line"/>
      <point x="107" y="1147"/>
      <point x="96" y="1106"/>
      <point x="96" y="1055" type="curve" smooth="yes"/>
      <point x="96" y="916"/>
      <point x="176" y="826"/>
      <point x="312" y="743" type="curve"/>
      <point x="278" y="692"/>
      <point x="259" y="631"/>
      <point x="259" y="571" type="curve" smooth="yes"/>
      <point x="259" y="388"/>
      <point x="433" y="221"/>
      <point x="658" y="221" type="curve" smooth="yes"/>
      <point x="741" y="221"/>
      <point x="818" y="244"/>
      <point x="894" y="289" type="curve"/>
      <point x="894" y="19" type="line"/>
      <point x="1045" y="-19" type="line"/>
      <point x="1054" y="-12" type="line"/>
    </contour>
    <contour>
      <point x="894" y="1197" type="line"/>
      <point x="894" y="610" type="line" smooth="yes"/>
      <point x="892" y="438"/>
      <point x="707" y="351"/>
      <point x="576" y="351" type="curve" smooth="yes"/>
      <point x="461" y="351"/>
      <point x="391" y="417"/>
      <point x="391" y="507" type="curve" smooth="yes"/>
      <point x="391" y="617"/>
      <point x="497" y="725"/>
      <point x="694" y="777" type="curve"/>
      <point x="698" y="788" type="line"/>
      <point x="586" y="918" type="line"/>
      <point x="505" y="900"/>
      <point x="434" y="863"/>
      <point x="379" y="815" type="curve"/>
      <point x="298" y="858"/>
      <point x="252" y="915"/>
      <point x="252" y="991" type="curve" smooth="yes"/>
      <point x="252" y="1096"/>
      <point x="339" y="1197"/>
      <point x="464" y="1197" type="curve" smooth="yes"/>
    </contour>
    <contour>
      <point x="974" y="1395" type="move" name="abvm_nasal"/>
    </contour>
    <contour>
      <point x="974" y="1325" type="move" name="abvm_matra"/>
    </contour>
    <contour>
      <point x="974" y="1335" type="move" name="abvm_reph"/>
    </contour>
    <contour>
      <point x="630" y="1600" type="move" name="abvm_latin"/>
    </contour>
    <contour>
      <point x="974" y="-19" type="move" name="blwm_matra"/>
    </contour>
    <contour>
      <point x="550" y="-10" type="move" name="blwm_mid"/>
    </contour>
    <contour>
      <point x="930" y="10" type="move" name="blwm_rakar"/>
    </contour>
    <contour>
      <point x="600" y="-23" type="move" name="blwm_nukta"/>
    </contour>
  </outline>
</glyph>
<glyph name="dNga" format="1">
  <advance width="1192"/>
  <unicode hex="0919"/>
  <outline>
    <contour>
      <point x="842" y="1197" type="line"/>
      <point x="1242" y="1197" type="line"/>
      <point x="1248" y="1206" type="line"/>
      <point x="1192" y="1330" type="line"/>
      <point x="-50" y="1330" type="line"/>
      <point x="-56" y="1321" type="line"/>
      <point x="0" y="1197" type="line"/>
      <point x="688" y="1197" type="line"/>
      <point x="688" y="1034" type="line" smooth="yes"/>
      <point x="688" y="1029"/>
      <point x="685" y="1026"/>
      <point x="680" y="1026" type="curve" smooth="yes"/>
      <point x="377" y="1026" type="line" smooth="yes"/>
      <point x="245" y="1026"/>
      <point x="184" y="965"/>
      <point x="184" y="865" type="curve" smooth="yes"/>
      <point x="184" y="696"/>
      <point x="358" y="522"/>
      <point x="524" y="522" type="curve" smooth="yes"/>
      <point x="576" y="522"/>
      <point x="696" y="539"/>
      <point x="736" y="539" type="curve" smooth="yes"/>
      <point x="803" y="539"/>
      <point x="845" y="491"/>
      <point x="845" y="430" type="curve" smooth="yes"/>
      <point x="845" y="328"/>
      <point x="729" y="255"/>
      <point x="595" y="255" type="curve" smooth="yes"/>
      <point x="426" y="255"/>
      <point x="255" y="372"/>
      <point x="133" y="616" type="curve"/>
      <point x="103" y="601"/>
      <point x="88" y="572"/>
      <point x="91" y="535" type="curve" smooth="yes"/>
      <point x="101" y="411"/>
      <point x="319" y="99"/>
      <point x="649" y="99" type="curve" smooth="yes"/>
      <point x="837" y="99"/>
      <point x="950" y="200"/>
      <point x="950" y="367" type="curve" smooth="yes"/>
      <point x="950" y="553"/>
      <point x="810" y="701"/>
      <point x="667" y="701" type="curve" smooth="yes"/>
      <point x="613" y="701"/>
      <point x="503" y="680"/>
      <point x="444" y="680" type="curve" smooth="yes"/>
      <point x="360" y="680"/>
      <point x="316" y="723"/>
      <point x="316" y="787" type="curve" smooth="yes"/>
      <point x="316" y="845"/>
      <point x="352" y="885"/>
      <point x="459" y="885" type="curve" smooth="yes"/>
      <point x="834" y="885" type="line"/>
      <point x="842" y="893" type="line"/>
    </contour>
    <contour>
      <point x="954" y="861"/>
      <point x="911" y="818"/>
      <point x="911" y="766" type="curve" smooth="yes"/>
      <point x="911" y="713"/>
      <point x="954" y="670"/>
      <point x="1007" y="670" type="curve" smooth="yes"/>
      <point x="1059" y="670"/>
      <point x="1102" y="713"/>
      <point x="1102" y="766" type="curve" smooth="yes"/>
      <point x="1102" y="818"/>
      <point x="1059" y="861"/>
      <point x="1007" y="861" type="curve" smooth="yes"/>
    </contour>
    <contour>
      <point x="762" y="1395" type="move" name="abvm_nasal"/>
    </contour>
    <contour>
      <point x="762" y="1325" type="move" name="abvm_matra"/>
    </contour>
    <contour>
      <point x="762" y="1335" type="move" name="abvm_reph"/>
    </contour>
    <contour>
      <point x="596" y="1600" type="move" name="abvm_latin"/>
    </contour>
    <contour>
      <point x="762" y="-19" type="move" name="blwm_matra"/>
    </contour>
    <contour>
      <point x="596" y="-10" type="move" name="blwm_mid"/>
    </contour>
    <contour>
      <point x="596" y="10" type="move" name="blwm_rakar"/>
    </contour>
    <contour>
      <point x="606" y="-123" type="move" name="blwm_nukta"/>
    </contour>
  </outline>
</glyph>
<glyph name="dCa" format="1">
  <advance width="1321"/>
  <unicode hex="091A"/>
  <outline>
    <contour>
      <point x="1114" y="1197" type="line"/>
      <point x="1371" y="1197" type="line"/>
      <point x="1377" y="1206" type="line"/>
      <point x="1321" y="1330" type="line"/>
      <point x="-50" y="1330" type="line"/>
      <point x="-56" y="1321" type="line"/>
      <point x="0" y="1197" type="line"/>
      <point x="954" y="1197" type="line"/>
      <point x="954" y="660" type="line" smooth="yes"/>
      <point x="954" y="508"/>
      <point x="805" y="373"/>
      <point x="632" y="373" type="curve" smooth="yes"/>
      <point x="497" y="373"/>
      <point x="411" y="456"/>
      <point x="411" y="565" type="curve" smooth="yes"/>
      <point x="411" y="699"/>
      <point x="540" y="830"/>
      <point x="741" y="830" type="curve" smooth="yes"/>
      <point x="796" y="830" type="line"/>
      <point x="802" y="839" type="line"/>
      <point x="746" y="963" type="line"/>
      <point x="68" y="963" type="line"/>
      <point x="62" y="954" type="line"/>
      <point x="118" y="830" type="line"/>
      <point x="355" y="830" type="line"/>
      <point x="304" y="763"/>
      <point x="279" y="699"/>
      <point x="279" y="626" type="curve" smooth="yes"/>
      <point x="279" y="435"/>
      <point x="452" y="251"/>
      <point x="697" y="251" type="curve" smooth="yes"/>
      <point x="787" y="251"/>
      <point x="871" y="276"/>
      <point x="954" y="331" type="curve"/>
      <point x="954" y="19" type="line"/>
      <point x="1105" y="-19" type="line"/>
      <point x="1114" y="-12" type="line"/>
    </contour>
    <contour>
      <point x="1034.0" y="1395.0" type="move" name="abvm_nasal"/>
    </contour>
    <contour>
      <point x="1034.0" y="1325.0" type="move" name="abvm_matra"/>
    </contour>
    <contour>
      <point x="1034.0" y="1335.0" type="move" name="abvm_reph"/>
    </contour>
    <contour>
      <point x="660.0" y="1600.0" type="move" name="abvm_latin"/>
    </contour>
    <contour>
      <point x="1034.0" y="-19.0" type="move" name="blwm_matra"/>
    </contour>
    <contour>
      <point x="660.0" y="-10.0" type="move" name="blwm_mid"/>
    </contour>
    <contour>
      <point x="660.0" y="10.0" type="move" name="blwm_rakar"/>
    </contour>
    <contour>
      <point x="600" y="-23" type="move" name="blwm_nukta"/>
    </contour>
  </outline>
</glyph>
<glyph name="dCha" format="1">
  <advance width="1370"/>
  <unicode hex="091B"/>
  <outline>
    <contour>
      <point x="1061" y="1197" type="line"/>
      <point x="1420" y="1197" type="line"/>
      <point x="1426" y="1206" type="line"/>
      <point x="1370" y="1330" type="line"/>
      <point x="-51" y="1330" type="line"/>
      <point x="-57" y="1321" type="line"/>
      <point x="-1" y="1197" type="line"/>
      <point x="921" y="1197" type="line"/>
      <point x="921" y="1055" type="line"/>
      <point x="829" y="1031"/>
      <point x="774" y="955"/>
      <point x="774" y="853" type="curve" smooth="yes"/>
      <point x="774" y="735"/>
      <point x="847" y="598"/>
      <point x="1026" y="458" type="curve"/>
      <point x="930" y="309"/>
      <point x="775" y="197"/>
      <point x="611" y="197" type="curve" smooth="yes"/>
      <point x="492" y="197"/>
      <point x="400" y="257"/>
      <point x="400" y="358" type="curve" smooth="yes"/>
      <point x="400" y="461"/>
      <point x="494" y="557"/>
      <point x="692" y="589" type="curve"/>
      <point x="696" y="599" type="line"/>
      <point x="585" y="728" type="line"/>
      <point x="507" y="720"/>
      <point x="439" y="693"/>
      <point x="387" y="654" type="curve"/>
      <point x="300" y="692"/>
      <point x="261" y="737"/>
      <point x="261" y="798" type="curve" smooth="yes"/>
      <point x="261" y="886"/>
      <point x="342" y="947"/>
      <point x="555" y="947" type="curve"/>
      <point x="512" y="1045"/>
      <point x="458" y="1088"/>
      <point x="365" y="1088" type="curve" smooth="yes"/>
      <point x="225" y="1088"/>
      <point x="115" y="993"/>
      <point x="115" y="858" type="curve" smooth="yes"/>
      <point x="115" y="755"/>
      <point x="179" y="652"/>
      <point x="315" y="584" type="curve"/>
      <point x="285" y="538"/>
      <point x="268" y="480"/>
      <point x="268" y="426" type="curve" smooth="yes"/>
      <point x="268" y="247"/>
      <point x="448" y="61"/>
      <point x="690" y="61" type="curve" smooth="yes"/>
      <point x="1005" y="61"/>
      <point x="1253" y="374"/>
      <point x="1253" y="694" type="curve" smooth="yes"/>
      <point x="1253" y="860"/>
      <point x="1186" y="995"/>
      <point x="1061" y="1042" type="curve"/>
    </contour>
    <contour>
      <point x="1129" y="702"/>
      <point x="1110" y="617"/>
      <point x="1076" y="539" type="curve"/>
      <point x="964" y="632"/>
      <point x="914" y="715"/>
      <point x="914" y="791" type="curve" smooth="yes"/>
      <point x="914" y="867"/>
      <point x="965" y="932"/>
      <point x="1035" y="932" type="curve" smooth="yes"/>
      <point x="1096" y="932"/>
      <point x="1129" y="883"/>
      <point x="1129" y="780" type="curve" smooth="yes"/>
    </contour>
    <contour>
      <point x="981.0" y="1395.0" type="move" name="abvm_nasal"/>
    </contour>
    <contour>
      <point x="981.0" y="1325.0" type="move" name="abvm_matra"/>
    </contour>
    <contour>
      <point x="981.0" y="1335.0" type="move" name="abvm_reph"/>
    </contour>
    <contour>
      <point x="684.0" y="1600.0" type="move" name="abvm_latin"/>
    </contour>
    <contour>
      <point x="781" y="-99" type="move" name="blwm_matra"/>
    </contour>
    <contour>
      <point x="684.0" y="-10.0" type="move" name="blwm_mid"/>
    </contour>
    <contour>
      <point x="684.0" y="-70.0" type="move" name="blwm_rakar"/>
    </contour>
    <contour>
      <point x="699.0" y="-123.0" type="move" name="blwm_nukta"/>
    </contour>
  </outline>
</glyph>
<glyph name="dJa" format="1">
  <advance width="1427"/>
  <unicode hex="091C"/>
  <outline>
    <contour>
      <point x="1220" y="1197" type="line"/>
      <point x="1477" y="1197" type="line"/>
      <point x="1483" y="1206" type="line"/>
      <point x="1427" y="1330" type="line"/>
      <point x="-44" y="1330" type="line"/>
      <point x="-50" y="1321" type="line"/>
      <point x="6" y="1197" type="line"/>
      <point x="1060" y="1197" type="line"/>
      <point x="1060" y="923" type="line"/>
      <point x="450" y="923" type="line"/>
      <point x="444" y="914" type="line"/>
      <point x="500" y="790" type="line"/>
      <point x="637" y="790"/>
      <point x="710" y="688"/>
      <point x="710" y="578" type="curve" smooth="yes"/>
      <point x="710" y="456"/>
      <point x="621" y="389"/>
      <point x="517" y="389" type="curve" smooth="yes"/>
      <point x="356" y="389"/>
      <point x="227" y="551"/>
      <point x="177" y="923" type="curve"/>
      <point x="118" y="917"/>
      <point x="95" y="894"/>
      <point x="96" y="826" type="curve" smooth="yes"/>
      <point x="97" y="659"/>
      <point x="232" y="227"/>
      <point x="560" y="227" type="curve" smooth="yes"/>
      <point x="726" y="227"/>
      <point x="848" y="337"/>
      <point x="848" y="506" type="curve" smooth="yes"/>
      <point x="848" y="601"/>
      <point x="810" y="699"/>
      <point x="727" y="790" type="curve"/>
      <point x="1060" y="790" type="line"/>
      <point x="1060" y="19" type="line"/>
      <point x="1211" y="-19" type="line"/>
      <point x="1220" y="-12" type="line"/>
    </contour>
    <contour>
      <point x="1140" y="1395" type="move" name="abvm_nasal"/>
    </contour>
    <contour>
      <point x="1140" y="1325" type="move" name="abvm_matra"/>
    </contour>
    <contour>
      <point x="1140" y="1335" type="move" name="abvm_reph"/>
    </contour>
    <contour>
      <point x="716" y="1600" type="move" name="abvm_latin"/>
    </contour>
    <contour>
      <point x="1140" y="-19" type="move" name="blwm_matra"/>
    </contour>
    <contour>
      <point x="716" y="-10" type="move" name="blwm_mid"/>
    </contour>
    <contour>
      <point x="1099" y="10" type="move" name="blwm_rakar"/>
    </contour>
    <contour>
      <point x="536" y="-43" type="move" name="blwm_nukta"/>
    </contour>
  </outline>
</glyph>
<glyph name="dJha" format="1">
  <advance width="1504"/>
  <unicode hex="091D"/>
  <outline>
    <contour>
      <point x="1296" y="1197" type="line"/>
      <point x="1554" y="1197" type="line"/>
      <point x="1560" y="1206" type="line"/>
      <point x="1504" y="1330" type="line"/>
      <point x="-46" y="1330" type="line"/>
      <point x="-52" y="1321" type="line"/>
      <point x="4" y="1197" type="line"/>
      <point x="622" y="1197" type="line"/>
      <point x="622" y="1034" type="line" smooth="yes"/>
      <point x="622" y="1029"/>
      <point x="619" y="1026"/>
      <point x="614" y="1026" type="curve" smooth="yes"/>
      <point x="311" y="1026" type="line" smooth="yes"/>
      <point x="179" y="1026"/>
      <point x="118" y="961"/>
      <point x="118" y="877" type="curve" smooth="yes"/>
      <point x="118" y="740"/>
      <point x="279" y="540"/>
      <point x="461" y="540" type="curve" smooth="yes"/>
      <point x="517" y="540"/>
      <point x="677" y="559"/>
      <point x="712" y="559" type="curve" smooth="yes"/>
      <point x="760" y="559"/>
      <point x="782" y="523"/>
      <point x="782" y="483" type="curve" smooth="yes"/>
      <point x="782" y="381"/>
      <point x="634" y="310"/>
      <point x="424" y="311" type="curve"/>
      <point x="384" y="396"/>
      <point x="338" y="447"/>
      <point x="270" y="447" type="curve" smooth="yes"/>
      <point x="218" y="447"/>
      <point x="159" y="416"/>
      <point x="159" y="341" type="curve" smooth="yes"/>
      <point x="159" y="248"/>
      <point x="249" y="163"/>
      <point x="407" y="150" type="curve"/>
      <point x="479" y="-61"/>
      <point x="597" y="-143"/>
      <point x="702" y="-143" type="curve" smooth="yes"/>
      <point x="774" y="-143"/>
      <point x="828" y="-105"/>
      <point x="828" y="-42" type="curve" smooth="yes"/>
      <point x="828" y="-20"/>
      <point x="821" y="5"/>
      <point x="806" y="33" type="curve"/>
      <point x="776" y="23"/>
      <point x="750" y="17"/>
      <point x="707" y="17" type="curve" smooth="yes"/>
      <point x="613" y="17"/>
      <point x="556" y="45"/>
      <point x="495" y="149" type="curve"/>
      <point x="732" y="164"/>
      <point x="890" y="268"/>
      <point x="890" y="434" type="curve" smooth="yes"/>
      <point x="890" y="466"/>
      <point x="884" y="499"/>
      <point x="862" y="546" type="curve"/>
      <point x="908" y="532"/>
      <point x="956" y="523"/>
      <point x="1003" y="523" type="curve" smooth="yes"/>
      <point x="1050" y="523"/>
      <point x="1088" y="532"/>
      <point x="1136" y="558" type="curve"/>
      <point x="1136" y="19" type="line"/>
      <point x="1287" y="-19" type="line"/>
      <point x="1296" y="-12" type="line"/>
    </contour>
    <contour>
      <point x="776" y="893" type="line"/>
      <point x="776" y="1197" type="line"/>
      <point x="1136" y="1197" type="line"/>
      <point x="1136" y="857" type="line" smooth="yes"/>
      <point x="1136" y="721"/>
      <point x="1042" y="646"/>
      <point x="906" y="646" type="curve" smooth="yes"/>
      <point x="862" y="646"/>
      <point x="812" y="654"/>
      <point x="758" y="682" type="curve"/>
      <point x="721" y="699"/>
      <point x="680" y="713"/>
      <point x="633" y="713" type="curve" smooth="yes"/>
      <point x="572" y="713"/>
      <point x="430" y="690"/>
      <point x="374" y="690" type="curve" smooth="yes"/>
      <point x="302" y="690"/>
      <point x="260" y="729"/>
      <point x="260" y="790" type="curve" smooth="yes"/>
      <point x="260" y="845"/>
      <point x="295" y="885"/>
      <point x="393" y="885" type="curve" smooth="yes"/>
      <point x="768" y="885" type="line"/>
    </contour>
    <contour>
      <point x="1216" y="1395" type="move" name="abvm_nasal"/>
    </contour>
    <contour>
      <point x="1216" y="1325" type="move" name="abvm_matra"/>
    </contour>
    <contour>
      <point x="1216" y="1335" type="move" name="abvm_reph"/>
    </contour>
    <contour>
      <point x="754" y="1600" type="move" name="abvm_latin"/>
    </contour>
    <contour>
      <point x="1216" y="-19" type="move" name="blwm_matra"/>
    </contour>
    <contour>
      <point x="754" y="-10" type="move" name="blwm_mid"/>
    </contour>
    <contour>
      <point x="1174" y="10" type="move" name="blwm_rakar"/>
    </contour>
    <contour>
      <point x="204" y="-23" type="move" name="blwm_nukta"/>
    </contour>
  </outline>
</glyph>
<glyph name="dNya" format="1">
  <advance width="1537"/>
  <unicode hex="091E"/>
  <outline>
    <contour>
      <point x="1330" y="1197" type="line"/>
      <point x="1587" y="1197" type="line"/>
      <point x="1593" y="1206" type="line"/>
      <point x="1537" y="1330" type="line"/>
      <point x="-50" y="1330" type="line"/>
      <point x="-56" y="1321" type="line"/>
      <point x="0" y="1197" type="line"/>
      <point x="1170" y="1197" type="line"/>
      <point x="1170" y="787" type="line" smooth="yes"/>
      <point x="1170" y="677"/>
      <point x="1109" y="646"/>
      <point x="1050" y="646" type="curve" smooth="yes"/>
      <point x="1006" y="646"/>
      <point x="965" y="663"/>
      <point x="917" y="714" type="curve"/>
      <point x="854" y="873"/>
      <point x="706" y="994"/>
      <point x="555" y="994" type="curve" smooth="yes"/>
      <point x="433" y="994"/>
      <point x="357" y="915"/>
      <point x="357" y="839" type="curve" smooth="yes"/>
      <point x="357" y="789"/>
      <point x="390" y="740"/>
      <point x="458" y="723" type="curve"/>
      <point x="510" y="818"/>
      <point x="579" y="842"/>
      <point x="636" y="842" type="curve" smooth="yes"/>
      <point x="746" y="842"/>
      <point x="821" y="752"/>
      <point x="821" y="623" type="curve" smooth="yes"/>
      <point x="821" y="462"/>
      <point x="705" y="357"/>
      <point x="551" y="357" type="curve" smooth="yes"/>
      <point x="367" y="357"/>
      <point x="230" y="506"/>
      <point x="179" y="830" type="curve"/>
      <point x="120" y="830"/>
      <point x="103" y="798"/>
      <point x="103" y="743" type="curve" smooth="yes"/>
      <point x="103" y="574"/>
      <point x="263" y="195"/>
      <point x="604" y="195" type="curve" smooth="yes"/>
      <point x="820" y="195"/>
      <point x="943" y="347"/>
      <point x="948" y="565" type="curve"/>
      <point x="1000" y="514"/>
      <point x="1057" y="483"/>
      <point x="1118" y="483" type="curve" smooth="yes"/>
      <point x="1133" y="483"/>
      <point x="1148" y="485"/>
      <point x="1170" y="491" type="curve"/>
      <point x="1170" y="19" type="line"/>
      <point x="1321" y="-19" type="line"/>
      <point x="1330" y="-12" type="line"/>
    </contour>
    <contour>
      <point x="1250.0" y="1395.0" type="move" name="abvm_nasal"/>
    </contour>
    <contour>
      <point x="1250.0" y="1325.0" type="move" name="abvm_matra"/>
    </contour>
    <contour>
      <point x="1250.0" y="1335.0" type="move" name="abvm_reph"/>
    </contour>
    <contour>
      <point x="771.0" y="1600.0" type="move" name="abvm_latin"/>
    </contour>
    <contour>
      <point x="1250.0" y="-19.0" type="move" name="blwm_matra"/>
    </contour>
    <contour>
      <point x="771.0" y="-10.0" type="move" name="blwm_mid"/>
    </contour>
    <contour>
      <point x="1201" y="10" type="move" name="blwm_rakar"/>
    </contour>
    <contour>
      <point x="606.0" y="-43.0" type="move" name="blwm_nukta"/>
    </contour>
  </outline>
</glyph>
<glyph name="dTta" format="1">
  <advance width="1058"/>
  <unicode hex="091F"/>
  <outline>
    <contour>
      <point x="842" y="1197" type="line"/>
      <point x="1108" y="1197" type="line"/>
      <point x="1114" y="1206" type="line"/>
      <point x="1058" y="1330" type="line"/>
      <point x="-50" y="1330" type="line"/>
      <point x="-56" y="1321" type="line"/>
      <point x="0" y="1197" type="line"/>
      <point x="688" y="1197" type="line"/>
      <point x="688" y="974" type="line" smooth="yes"/>
      <point x="688" y="969"/>
      <point x="685" y="966"/>
      <point x="680" y="966" type="curve" smooth="yes"/>
      <point x="557" y="966" type="line" smooth="yes"/>
      <point x="265" y="966"/>
      <point x="101" y="800"/>
      <point x="101" y="592" type="curve" smooth="yes"/>
      <point x="101" y="346"/>
      <point x="332" y="91"/>
      <point x="634" y="91" type="curve" smooth="yes"/>
      <point x="832" y="91"/>
      <point x="996" y="201"/>
      <point x="996" y="321" type="curve" smooth="yes"/>
      <point x="996" y="373"/>
      <point x="965" y="415"/>
      <point x="901" y="435" type="curve"/>
      <point x="849" y="308"/>
      <point x="719" y="222"/>
      <point x="561" y="222" type="curve" smooth="yes"/>
      <point x="359" y="222"/>
      <point x="249" y="361"/>
      <point x="249" y="518" type="curve" smooth="yes"/>
      <point x="249" y="691"/>
      <point x="384" y="819"/>
      <point x="613" y="819" type="curve" smooth="yes"/>
      <point x="834" y="819" type="line"/>
      <point x="842" y="827" type="line"/>
    </contour>
    <contour>
      <point x="762.0" y="1395.0" type="move" name="abvm_nasal"/>
    </contour>
    <contour>
      <point x="762.0" y="1325.0" type="move" name="abvm_matra"/>
    </contour>
    <contour>
      <point x="762.0" y="1335.0" type="move" name="abvm_reph"/>
    </contour>
    <contour>
      <point x="529.0" y="1600.0" type="move" name="abvm_latin"/>
    </contour>
    <contour>
      <point x="662" y="-99" type="move" name="blwm_matra"/>
    </contour>
    <contour>
      <point x="529.0" y="-10.0" type="move" name="blwm_mid"/>
    </contour>
    <contour>
      <point x="629" y="-40" type="move" name="blwm_rakar"/>
    </contour>
    <contour>
      <point x="600" y="-123" type="move" name="blwm_nukta"/>
    </contour>
  </outline>
</glyph>
<glyph name="dTtha" format="1">
  <advance width="1138"/>
  <unicode hex="0920"/>
  <outline>
    <contour>
      <point x="792" y="1197" type="line"/>
      <point x="1188" y="1197" type="line"/>
      <point x="1194" y="1206" type="line"/>
      <point x="1138" y="1330" type="line"/>
      <point x="-50" y="1330" type="line"/>
      <point x="-56" y="1321" type="line"/>
      <point x="0" y="1197" type="line"/>
      <point x="638" y="1197" type="line"/>
      <point x="638" y="974" type="line" smooth="yes"/>
      <point x="638" y="969"/>
      <point x="635" y="966"/>
      <point x="630" y="966" type="curve" smooth="yes"/>
      <point x="513" y="966" type="line" smooth="yes"/>
      <point x="247" y="966"/>
      <point x="87" y="793"/>
      <point x="87" y="588" type="curve" smooth="yes"/>
      <point x="87" y="336"/>
      <point x="327" y="81"/>
      <point x="622" y="81" type="curve" smooth="yes"/>
      <point x="862" y="81"/>
      <point x="1045" y="250"/>
      <point x="1045" y="471" type="curve" smooth="yes"/>
      <point x="1045" y="642"/>
      <point x="936" y="793"/>
      <point x="792" y="885" type="curve"/>
    </contour>
    <contour>
      <point x="813" y="819"/>
      <point x="904" y="685"/>
      <point x="904" y="542" type="curve" smooth="yes"/>
      <point x="904" y="349"/>
      <point x="737" y="212"/>
      <point x="547" y="212" type="curve" smooth="yes"/>
      <point x="355" y="212"/>
      <point x="229" y="352"/>
      <point x="229" y="517" type="curve" smooth="yes"/>
      <point x="229" y="683"/>
      <point x="358" y="819"/>
      <point x="586" y="819" type="curve" smooth="yes"/>
    </contour>
    <contour>
      <point x="712.0" y="1395.0" type="move" name="abvm_nasal"/>
    </contour>
    <contour>
      <point x="712.0" y="1325.0" type="move" name="abvm_matra"/>
    </contour>
    <contour>
      <point x="712.0" y="1335.0" type="move" name="abvm_reph"/>
    </contour>
    <contour>
      <point x="569.0" y="1600.0" type="move" name="abvm_latin"/>
    </contour>
    <contour>
      <point x="612" y="-99" type="move" name="blwm_matra"/>
    </contour>
    <contour>
      <point x="569.0" y="-10.0" type="move" name="blwm_mid"/>
    </contour>
    <contour>
      <point x="589" y="-70" type="move" name="blwm_rakar"/>
    </contour>
    <contour>
      <point x="600.0" y="-123.0" type="move" name="blwm_nukta"/>
    </contour>
  </outline>
</glyph>
<glyph name="dDdha" format="1">
  <advance width="1057"/>
  <unicode hex="0922"/>
  <outline>
    <contour>
      <point x="841" y="1197" type="line"/>
      <point x="1107" y="1197" type="line"/>
      <point x="1113" y="1206" type="line"/>
      <point x="1057" y="1330" type="line"/>
      <point x="-51" y="1330" type="line"/>
      <point x="-57" y="1321" type="line"/>
      <point x="-1" y="1197" type="line"/>
      <point x="687" y="1197" type="line"/>
      <point x="687" y="984" type="line" smooth="yes"/>
      <point x="687" y="979"/>
      <point x="684" y="976"/>
      <point x="679" y="976" type="curve" smooth="yes"/>
      <point x="561" y="976" type="line" smooth="yes"/>
      <point x="270" y="976"/>
      <point x="106" y="807"/>
      <point x="106" y="593" type="curve" smooth="yes"/>
      <point x="106" y="329"/>
      <point x="353" y="61"/>
      <point x="641" y="61" type="curve" smooth="yes"/>
      <point x="844" y="61"/>
      <point x="1001" y="194"/>
      <point x="1001" y="372" type="curve" smooth="yes"/>
      <point x="1001" y="524"/>
      <point x="886" y="655"/>
      <point x="738" y="655" type="curve" smooth="yes"/>
      <point x="629" y="655"/>
      <point x="548" y="583"/>
      <point x="548" y="462" type="curve" smooth="yes"/>
      <point x="548" y="382"/>
      <point x="584" y="303"/>
      <point x="683" y="203" type="curve"/>
      <point x="650" y="195"/>
      <point x="614" y="192"/>
      <point x="584" y="192" type="curve" smooth="yes"/>
      <point x="367" y="192"/>
      <point x="248" y="353"/>
      <point x="248" y="519" type="curve" smooth="yes"/>
      <point x="248" y="696"/>
      <point x="383" y="829"/>
      <point x="612" y="829" type="curve" smooth="yes"/>
      <point x="833" y="829" type="line"/>
      <point x="841" y="837" type="line"/>
    </contour>
    <contour>
      <point x="857" y="531"/>
      <point x="900" y="489"/>
      <point x="900" y="425" type="curve" smooth="yes"/>
      <point x="900" y="352"/>
      <point x="845" y="278"/>
      <point x="759" y="234" type="curve"/>
      <point x="707" y="299"/>
      <point x="686" y="354"/>
      <point x="686" y="402" type="curve" smooth="yes"/>
      <point x="686" y="477"/>
      <point x="739" y="531"/>
      <point x="802" y="531" type="curve" smooth="yes"/>
    </contour>
    <contour>
      <point x="761" y="1395" type="move" name="abvm_nasal"/>
    </contour>
    <contour>
      <point x="761" y="1325" type="move" name="abvm_matra"/>
    </contour>
    <contour>
      <point x="761" y="1335" type="move" name="abvm_reph"/>
    </contour>
    <contour>
      <point x="528" y="1600" type="move" name="abvm_latin"/>
    </contour>
    <contour>
      <point x="661" y="-119" type="move" name="blwm_matra"/>
    </contour>
    <contour>
      <point x="528" y="-10" type="move" name="blwm_mid"/>
    </contour>
    <contour>
      <point x="628" y="-90" type="move" name="blwm_rakar"/>
    </contour>
    <contour>
      <point x="599" y="-143" type="move" name="blwm_nukta"/>
    </contour>
  </outline>
</glyph>
<glyph name="dTa" format="1">
  <advance width="1191"/>
  <unicode hex="0924"/>
  <outline>
    <contour>
      <point x="984" y="1197" type="line"/>
      <point x="1241" y="1197" type="line"/>
      <point x="1247" y="1206" type="line"/>
      <point x="1191" y="1330" type="line"/>
      <point x="-50" y="1330" type="line"/>
      <point x="-56" y="1321" type="line"/>
      <point x="0" y="1197" type="line"/>
      <point x="824" y="1197" type="line"/>
      <point x="824" y="923" type="line"/>
      <point x="366" y="923" type="line" smooth="yes"/>
      <point x="180" y="923"/>
      <point x="86" y="808"/>
      <point x="86" y="629" type="curve" smooth="yes"/>
      <point x="86" y="317"/>
      <point x="373" y="-18"/>
      <point x="480" y="-18" type="curve" smooth="yes"/>
      <point x="501" y="-18"/>
      <point x="523" y="-5"/>
      <point x="533" y="20" type="curve"/>
      <point x="348" y="179"/>
      <point x="235" y="392"/>
      <point x="235" y="564" type="curve" smooth="yes"/>
      <point x="235" y="683"/>
      <point x="289" y="778"/>
      <point x="438" y="778" type="curve" smooth="yes"/>
      <point x="824" y="778" type="line"/>
      <point x="824" y="19" type="line"/>
      <point x="975" y="-19" type="line"/>
      <point x="984" y="-12" type="line"/>
    </contour>
    <contour>
      <point x="904.0" y="1395.0" type="move" name="abvm_nasal"/>
    </contour>
    <contour>
      <point x="904.0" y="1325.0" type="move" name="abvm_matra"/>
    </contour>
    <contour>
      <point x="904.0" y="1335.0" type="move" name="abvm_reph"/>
    </contour>
    <contour>
      <point x="595.0" y="1600.0" type="move" name="abvm_latin"/>
    </contour>
    <contour>
      <point x="904.0" y="-19.0" type="move" name="blwm_matra"/>
    </contour>
    <contour>
      <point x="465" y="-10" type="move" name="blwm_mid"/>
    </contour>
    <contour>
      <point x="862" y="10" type="move" name="blwm_rakar"/>
    </contour>
    <contour>
      <point x="140" y="-23" type="move" name="blwm_nukta"/>
    </contour>
  </outline>
</glyph>
<glyph name="dNa" format="1">
  <advance width="1123"/>
  <unicode hex="0928"/>
  <outline>
    <contour>
      <point x="916" y="1197" type="line"/>
      <point x="1173" y="1197" type="line"/>
      <point x="1179" y="1206" type="line"/>
      <point x="1123" y="1330" type="line"/>
      <point x="-48" y="1330" type="line"/>
      <point x="-54" y="1321" type="line"/>
      <point x="2" y="1197" type="line"/>
      <point x="756" y="1197" type="line"/>
      <point x="756" y="853" type="line"/>
      <point x="238" y="853" type="line" smooth="yes"/>
      <point x="137" y="853"/>
      <point x="57" y="837"/>
      <point x="57" y="763" type="curve" smooth="yes"/>
      <point x="57" y="654"/>
      <point x="229" y="484"/>
      <point x="305" y="484" type="curve" smooth="yes"/>
      <point x="333" y="484"/>
      <point x="360" y="507"/>
      <point x="360" y="563" type="curve" smooth="yes"/>
      <point x="360" y="708" type="line"/>
      <point x="756" y="708" type="line"/>
      <point x="756" y="19" type="line"/>
      <point x="907" y="-19" type="line"/>
      <point x="916" y="-12" type="line"/>
    </contour>
    <contour>
      <point x="836.0" y="1395.0" type="move" name="abvm_nasal"/>
    </contour>
    <contour>
      <point x="836.0" y="1325.0" type="move" name="abvm_matra"/>
    </contour>
    <contour>
      <point x="836.0" y="1335.0" type="move" name="abvm_reph"/>
    </contour>
    <contour>
      <point x="562.0" y="1600.0" type="move" name="abvm_latin"/>
    </contour>
    <contour>
      <point x="836.0" y="-19.0" type="move" name="blwm_matra"/>
    </contour>
    <contour>
      <point x="402" y="-10" type="move" name="blwm_mid"/>
    </contour>
    <contour>
      <point x="792" y="10" type="move" name="blwm_rakar"/>
    </contour>
    <contour>
      <point x="402.0" y="77.0" type="move" name="blwm_nukta"/>
    </contour>
  </outline>
</glyph>
<glyph name="dNnna" format="1">
  <advance width="1117"/>
  <unicode hex="0929"/>
  <outline>
    <contour>
      <point x="910" y="1197" type="line"/>
      <point x="1167" y="1197" type="line"/>
      <point x="1173" y="1206" type="line"/>
      <point x="1117" y="1330" type="line"/>
      <point x="-54" y="1330" type="line"/>
      <point x="-60" y="1321" type="line"/>
      <point x="-4" y="1197" type="line"/>
      <point x="750" y="1197" type="line"/>
      <point x="750" y="853" type="line"/>
      <point x="232" y="853" type="line" smooth="yes"/>
      <point x="131" y="853"/>
      <point x="51" y="837"/>
      <point x="51" y="763" type="curve" smooth="yes"/>
      <point x="51" y="654"/>
      <point x="223" y="484"/>
      <point x="299" y="484" type="curve" smooth="yes"/>
      <point x="327" y="484"/>
      <point x="354" y="507"/>
      <point x="354" y="563" type="curve" smooth="yes"/>
      <point x="354" y="708" type="line"/>
      <point x="750" y="708" type="line"/>
      <point x="750" y="19" type="line"/>
      <point x="901" y="-19" type="line"/>
      <point x="910" y="-12" type="line"/>
    </contour>
    <contour>
      <point x="345" y="172"/>
      <point x="302" y="129"/>
      <point x="302" y="77" type="curve" smooth="yes"/>
      <point x="302" y="24"/>
      <point x="345" y="-19"/>
      <point x="398" y="-19" type="curve" smooth="yes"/>
      <point x="450" y="-19"/>
      <point x="493" y="24"/>
      <point x="493" y="77" type="curve" smooth="yes"/>
      <point x="493" y="129"/>
      <point x="450" y="172"/>
      <point x="398" y="172" type="curve" smooth="yes"/>
    </contour>
    <contour>
      <point x="830" y="1395" type="move" name="abvm_nasal"/>
    </contour>
    <contour>
      <point x="830" y="1325" type="move" name="abvm_matra"/>
    </contour>
    <contour>
      <point x="830" y="1335" type="move" name="abvm_reph"/>
    </contour>
    <contour>
      <point x="556" y="1600" type="move" name="abvm_latin"/>
    </contour>
    <contour>
      <point x="830" y="-19" type="move" name="blwm_matra"/>
    </contour>
    <contour>
      <point x="406" y="-10" type="move" name="blwm_mid"/>
    </contour>
    <contour>
      <point x="786" y="10" type="move" name="blwm_rakar"/>
    </contour>
  </outline>
</glyph>
<glyph name="dPa" format="1">
  <advance width="1110"/>
  <unicode hex="092A"/>
  <outline>
    <contour>
      <point x="902" y="1197" type="line"/>
      <point x="1160" y="1197" type="line"/>
      <point x="1166" y="1206" type="line"/>
      <point x="1110" y="1330" type="line"/>
      <point x="-52" y="1330" type="line"/>
      <point x="-58" y="1321" type="line"/>
      <point x="-2" y="1197" type="line"/>
      <point x="127" y="1197" type="line"/>
      <point x="127" y="755" type="line" smooth="yes"/>
      <point x="127" y="536"/>
      <point x="318" y="351"/>
      <point x="520" y="351" type="curve" smooth="yes"/>
      <point x="594" y="351"/>
      <point x="667" y="373"/>
      <point x="742" y="421" type="curve"/>
      <point x="742" y="19" type="line"/>
      <point x="893" y="-19" type="line"/>
      <point x="902" y="-12" type="line"/>
    </contour>
    <contour>
      <point x="287" y="1197" type="line"/>
      <point x="742" y="1197" type="line"/>
      <point x="742" y="750" type="line" smooth="yes"/>
      <point x="742" y="594"/>
      <point x="603" y="473"/>
      <point x="460" y="473" type="curve" smooth="yes"/>
      <point x="353" y="473"/>
      <point x="287" y="541"/>
      <point x="287" y="670" type="curve" smooth="yes"/>
    </contour>
    <contour>
      <point x="822.0" y="1395.0" type="move" name="abvm_nasal"/>
    </contour>
    <contour>
      <point x="822.0" y="1325.0" type="move" name="abvm_matra"/>
    </contour>
    <contour>
      <point x="822.0" y="1335.0" type="move" name="abvm_reph"/>
    </contour>
    <contour>
      <point x="554.0" y="1600.0" type="move" name="abvm_latin"/>
    </contour>
    <contour>
      <point x="822.0" y="-19.0" type="move" name="blwm_matra"/>
    </contour>
    <contour>
      <point x="394" y="-10" type="move" name="blwm_mid"/>
    </contour>
    <contour>
      <point x="774.0" y="10.0" type="move" name="blwm_rakar"/>
    </contour>
    <contour>
      <point x="448.0" y="77.0" type="move" name="blwm_nukta"/>
    </contour>
  </outline>
</glyph>
<glyph name="dPha" format="1">
  <advance width="1483"/>
  <unicode hex="092B"/>
  <outline>
    <contour>
      <point x="1399" y="811"/>
      <point x="1242" y="942"/>
      <point x="1068" y="942" type="curve" smooth="yes"/>
      <point x="984" y="942"/>
      <point x="911" y="912"/>
      <point x="847" y="849" type="curve"/>
      <point x="847" y="1197" type="line"/>
      <point x="1533" y="1197" type="line"/>
      <point x="1539" y="1206" type="line"/>
      <point x="1483" y="1330" type="line"/>
      <point x="-47" y="1330" type="line"/>
      <point x="-53" y="1321" type="line"/>
      <point x="3" y="1197" type="line"/>
      <point x="132" y="1197" type="line"/>
      <point x="132" y="745" type="line" smooth="yes"/>
      <point x="132" y="536"/>
      <point x="307" y="361"/>
      <point x="497" y="361" type="curve" smooth="yes"/>
      <point x="556" y="361"/>
      <point x="620" y="378"/>
      <point x="687" y="417" type="curve"/>
      <point x="687" y="19" type="line"/>
      <point x="838" y="-19" type="line"/>
      <point x="847" y="-12" type="line"/>
      <point x="847" y="518" type="line" smooth="yes"/>
      <point x="847" y="694"/>
      <point x="1006" y="815"/>
      <point x="1131" y="815" type="curve" smooth="yes"/>
      <point x="1219" y="815"/>
      <point x="1274" y="755"/>
      <point x="1274" y="647" type="curve" smooth="yes"/>
      <point x="1274" y="521"/>
      <point x="1199" y="386"/>
      <point x="1063" y="317" type="curve"/>
      <point x="1094" y="266"/>
      <point x="1146" y="230"/>
      <point x="1198" y="230" type="curve" smooth="yes"/>
      <point x="1293" y="230"/>
      <point x="1399" y="349"/>
      <point x="1399" y="557" type="curve" smooth="yes"/>
    </contour>
    <contour>
      <point x="292" y="1197" type="line"/>
      <point x="687" y="1197" type="line"/>
      <point x="687" y="720" type="line" smooth="yes"/>
      <point x="687" y="588"/>
      <point x="561" y="483"/>
      <point x="438" y="483" type="curve" smooth="yes"/>
      <point x="345" y="483"/>
      <point x="292" y="543"/>
      <point x="292" y="660" type="curve" smooth="yes"/>
    </contour>
    <contour>
      <point x="767" y="1395" type="move" name="abvm_nasal"/>
    </contour>
    <contour>
      <point x="767" y="1325" type="move" name="abvm_matra"/>
    </contour>
    <contour>
      <point x="767" y="1335" type="move" name="abvm_reph"/>
    </contour>
    <contour>
      <point x="743" y="1600" type="move" name="abvm_latin"/>
    </contour>
    <contour>
      <point x="767" y="-19" type="move" name="blwm_matra"/>
    </contour>
    <contour>
      <point x="743" y="-10" type="move" name="blwm_mid"/>
    </contour>
    <contour>
      <point x="723" y="10" type="move" name="blwm_rakar"/>
    </contour>
    <contour>
      <point x="403" y="77" type="move" name="blwm_nukta"/>
    </contour>
  </outline>
</glyph>
<glyph name="dBa" format="1">
  <advance width="1160"/>
  <unicode hex="092C"/>
  <outline>
    <contour>
      <point x="953" y="1197" type="line"/>
      <point x="1210" y="1197" type="line"/>
      <point x="1216" y="1206" type="line"/>
      <point x="1160" y="1330" type="line"/>
      <point x="-50" y="1330" type="line"/>
      <point x="-56" y="1321" type="line"/>
      <point x="0" y="1197" type="line"/>
      <point x="793" y="1197" type="line"/>
      <point x="793" y="855" type="line"/>
      <point x="692" y="961"/>
      <point x="567" y="1007"/>
      <point x="448" y="1007" type="curve" smooth="yes"/>
      <point x="236" y="1007"/>
      <point x="79" y="860"/>
      <point x="79" y="666" type="curve" smooth="yes"/>
      <point x="79" y="421"/>
      <point x="329" y="219"/>
      <point x="552" y="219" type="curve" smooth="yes"/>
      <point x="622" y="219"/>
      <point x="709" y="239"/>
      <point x="793" y="297" type="curve"/>
      <point x="793" y="19" type="line"/>
      <point x="944" y="-19" type="line"/>
      <point x="953" y="-12" type="line"/>
    </contour>
    <contour>
      <point x="793" y="618" type="line" smooth="yes"/>
      <point x="793" y="549"/>
      <point x="762" y="488"/>
      <point x="714" y="442" type="curve"/>
      <point x="390" y="837" type="line"/>
      <point x="427" y="855"/>
      <point x="474" y="863"/>
      <point x="520" y="863" type="curve" smooth="yes"/>
      <point x="674" y="863"/>
      <point x="793" y="773"/>
      <point x="793" y="652" type="curve" smooth="yes"/>
    </contour>
    <contour>
      <point x="330" y="350"/>
      <point x="228" y="457"/>
      <point x="228" y="597" type="curve" smooth="yes"/>
      <point x="228" y="666"/>
      <point x="253" y="727"/>
      <point x="296" y="774" type="curve"/>
      <point x="623" y="382" type="line"/>
      <point x="581" y="360"/>
      <point x="528" y="350"/>
      <point x="481" y="350" type="curve" smooth="yes"/>
    </contour>
    <contour>
      <point x="873.0" y="1395.0" type="move" name="abvm_nasal"/>
    </contour>
    <contour>
      <point x="873.0" y="1325.0" type="move" name="abvm_matra"/>
    </contour>
    <contour>
      <point x="873.0" y="1335.0" type="move" name="abvm_reph"/>
    </contour>
    <contour>
      <point x="580.0" y="1600.0" type="move" name="abvm_latin"/>
    </contour>
    <contour>
      <point x="873.0" y="-19.0" type="move" name="blwm_matra"/>
    </contour>
    <contour>
      <point x="450" y="-10" type="move" name="blwm_mid"/>
    </contour>
    <contour>
      <point x="830.0" y="10.0" type="move" name="blwm_rakar"/>
    </contour>
    <contour>
      <point x="500.0" y="-23.0" type="move" name="blwm_nukta"/>
    </contour>
  </outline>
</glyph>
<glyph name="dMa" format="1">
  <advance width="1196"/>
  <unicode hex="092E"/>
  <outline>
    <contour>
      <point x="989" y="1197" type="line"/>
      <point x="1246" y="1197" type="line"/>
      <point x="1252" y="1206" type="line"/>
      <point x="1196" y="1330" type="line"/>
      <point x="-50" y="1330" type="line"/>
      <point x="-56" y="1321" type="line"/>
      <point x="0" y="1197" type="line"/>
      <point x="210" y="1197" type="line"/>
      <point x="210" y="652" type="line"/>
      <point x="99" y="649"/>
      <point x="65" y="609"/>
      <point x="65" y="562" type="curve" smooth="yes"/>
      <point x="65" y="455"/>
      <point x="237" y="284"/>
      <point x="313" y="284" type="curve" smooth="yes"/>
      <point x="341" y="284"/>
      <point x="368" y="307"/>
      <point x="368" y="363" type="curve" smooth="yes"/>
      <point x="368" y="508" type="line"/>
      <point x="829" y="508" type="line"/>
      <point x="829" y="19" type="line"/>
      <point x="980" y="-19" type="line"/>
      <point x="989" y="-12" type="line"/>
    </contour>
    <contour>
      <point x="829" y="653" type="line"/>
      <point x="368" y="653" type="line"/>
      <point x="368" y="1197" type="line"/>
      <point x="829" y="1197" type="line"/>
    </contour>
    <contour>
      <point x="909.0" y="1395.0" type="move" name="abvm_nasal"/>
    </contour>
    <contour>
      <point x="909.0" y="1325.0" type="move" name="abvm_matra"/>
    </contour>
    <contour>
      <point x="909.0" y="1335.0" type="move" name="abvm_reph"/>
    </contour>
    <contour>
      <point x="598.0" y="1600.0" type="move" name="abvm_latin"/>
    </contour>
    <contour>
      <point x="909.0" y="-19.0" type="move" name="blwm_matra"/>
    </contour>
    <contour>
      <point x="478" y="-10" type="move" name="blwm_mid"/>
    </contour>
    <contour>
      <point x="865.0" y="10.0" type="move" name="blwm_rakar"/>
    </contour>
    <contour>
      <point x="500" y="77" type="move" name="blwm_nukta"/>
    </contour>
  </outline>
</glyph>
<glyph name="dYa" format="1">
  <advance width="1248"/>
  <unicode hex="092F"/>
  <outline>
    <contour>
      <point x="1041" y="-12" type="line"/>
      <point x="1041" y="1197" type="line"/>
      <point x="1298" y="1197" type="line"/>
      <point x="1304" y="1206" type="line"/>
      <point x="1248" y="1330" type="line"/>
      <point x="-50" y="1330" type="line"/>
      <point x="-56" y="1321" type="line"/>
      <point x="0" y="1197" type="line"/>
      <point x="339" y="1197" type="line"/>
      <point x="363" y="1149"/>
      <point x="382" y="1082"/>
      <point x="382" y="1017" type="curve" smooth="yes"/>
      <point x="382" y="891"/>
      <point x="311" y="813"/>
      <point x="87" y="750" type="curve"/>
      <point x="82" y="740" type="line"/>
      <point x="255" y="403"/>
      <point x="455" y="261"/>
      <point x="658" y="261" type="curve" smooth="yes"/>
      <point x="742" y="261"/>
      <point x="812" y="285"/>
      <point x="881" y="334" type="curve"/>
      <point x="881" y="19" type="line"/>
      <point x="1032" y="-19" type="line"/>
    </contour>
    <contour>
      <point x="522" y="1015"/>
      <point x="488" y="1109"/>
      <point x="440" y="1197" type="curve"/>
      <point x="881" y="1197" type="line"/>
      <point x="881" y="690" type="line" smooth="yes"/>
      <point x="881" y="528"/>
      <point x="741" y="421"/>
      <point x="589" y="421" type="curve" smooth="yes"/>
      <point x="480" y="421"/>
      <point x="357" y="476"/>
      <point x="267" y="628" type="curve"/>
      <point x="434" y="688"/>
      <point x="522" y="783"/>
      <point x="522" y="926" type="curve" smooth="yes"/>
    </contour>
    <contour>
      <point x="961" y="1395" type="move" name="abvm_nasal"/>
    </contour>
    <contour>
      <point x="961" y="1325" type="move" name="abvm_matra"/>
    </contour>
    <contour>
      <point x="961" y="1335" type="move" name="abvm_reph"/>
    </contour>
    <contour>
      <point x="624" y="1600" type="move" name="abvm_latin"/>
    </contour>
    <contour>
      <point x="961" y="-19" type="move" name="blwm_matra"/>
    </contour>
    <contour>
      <point x="524" y="-10" type="move" name="blwm_mid"/>
    </contour>
    <contour>
      <point x="917" y="10" type="move" name="blwm_rakar"/>
    </contour>
    <contour>
      <point x="310" y="77" type="move" name="blwm_nukta"/>
    </contour>
  </outline>
</glyph>
<glyph name="dRa" format="1">
  <advance width="866"/>
  <unicode hex="0930"/>
  <outline>
    <contour>
      <point x="916" y="1197" type="line"/>
      <point x="922" y="1206" type="line"/>
      <point x="866" y="1330" type="line"/>
      <point x="-50" y="1330" type="line"/>
      <point x="-56" y="1321" type="line"/>
      <point x="0" y="1197" type="line"/>
      <point x="462" y="1197" type="line"/>
      <point x="497" y="1104"/>
      <point x="513" y="1009"/>
      <point x="513" y="938" type="curve" smooth="yes"/>
      <point x="513" y="834"/>
      <point x="479" y="767"/>
      <point x="397" y="723" type="curve"/>
      <point x="328" y="762"/>
      <point x="262" y="779"/>
      <point x="213" y="779" type="curve" smooth="yes"/>
      <point x="125" y="779"/>
      <point x="78" y="723"/>
      <point x="78" y="653" type="curve" smooth="yes"/>
      <point x="78" y="452"/>
      <point x="461" y="-2"/>
      <point x="639" y="-2" type="curve" smooth="yes"/>
      <point x="681" y="-2"/>
      <point x="723" y="24"/>
      <point x="733" y="66" type="curve"/>
      <point x="530" y="170"/>
      <point x="383" y="289"/>
      <point x="255" y="484" type="curve"/>
      <point x="557" y="539"/>
      <point x="647" y="694"/>
      <point x="647" y="862" type="curve" smooth="yes"/>
      <point x="647" y="968"/>
      <point x="611" y="1083"/>
      <point x="561" y="1197" type="curve"/>
    </contour>
    <contour>
      <point x="520" y="1395" type="move" name="abvm_nasal"/>
    </contour>
    <contour>
      <point x="520" y="1325" type="move" name="abvm_matra"/>
    </contour>
    <contour>
      <point x="520" y="1335" type="move" name="abvm_reph"/>
    </contour>
    <contour>
      <point x="433" y="1600" type="move" name="abvm_latin"/>
    </contour>
    <contour>
      <point x="520" y="-19" type="move" name="blwm_matra"/>
    </contour>
    <contour>
      <point x="433" y="-10" type="move" name="blwm_mid"/>
    </contour>
    <contour>
      <point x="433" y="10" type="move" name="blwm_rakar"/>
    </contour>
    <contour>
      <point x="170" y="77" type="move" name="blwm_nukta"/>
    </contour>
  </outline>
</glyph>
<glyph name="dLa" format="1">
  <advance width="1411"/>
  <unicode hex="0932"/>
  <outline>
    <contour>
      <point x="1204" y="1197" type="line"/>
      <point x="1461" y="1197" type="line"/>
      <point x="1467" y="1206" type="line"/>
      <point x="1411" y="1330" type="line"/>
      <point x="-50" y="1330" type="line"/>
      <point x="-56" y="1321" type="line"/>
      <point x="0" y="1197" type="line"/>
      <point x="1044" y="1197" type="line"/>
      <point x="1044" y="928" type="line"/>
      <point x="904" y="916"/>
      <point x="783" y="861"/>
      <point x="696" y="769" type="curve"/>
      <point x="579" y="901"/>
      <point x="481" y="946"/>
      <point x="379" y="946" type="curve" smooth="yes"/>
      <point x="213" y="946"/>
      <point x="111" y="829"/>
      <point x="111" y="656" type="curve" smooth="yes"/>
      <point x="111" y="337"/>
      <point x="455" y="-18"/>
      <point x="573" y="-18" type="curve" smooth="yes"/>
      <point x="599" y="-18"/>
      <point x="622" y="-1"/>
      <point x="631" y="24" type="curve"/>
      <point x="402" y="189"/>
      <point x="268" y="423"/>
      <point x="268" y="591" type="curve" smooth="yes"/>
      <point x="268" y="713"/>
      <point x="339" y="798"/>
      <point x="444" y="798" type="curve" smooth="yes"/>
      <point x="508" y="798"/>
      <point x="572" y="767"/>
      <point x="639" y="698" type="curve"/>
      <point x="606" y="649"/>
      <point x="581" y="594"/>
      <point x="563" y="532" type="curve"/>
      <point x="705" y="437" type="line"/>
      <point x="716" y="441" type="line"/>
      <point x="768" y="634"/>
      <point x="861" y="744"/>
      <point x="1044" y="793" type="curve"/>
      <point x="1044" y="19" type="line"/>
      <point x="1195" y="-19" type="line"/>
      <point x="1204" y="-12" type="line"/>
    </contour>
    <contour>
      <point x="1124" y="1395" type="move" name="abvm_nasal"/>
    </contour>
    <contour>
      <point x="1124" y="1325" type="move" name="abvm_matra"/>
    </contour>
    <contour>
      <point x="1124" y="1335" type="move" name="abvm_reph"/>
    </contour>
    <contour>
      <point x="705" y="1600" type="move" name="abvm_latin"/>
    </contour>
    <contour>
      <point x="1124" y="-19" type="move" name="blwm_matra"/>
    </contour>
    <contour>
      <point x="705" y="-10" type="move" name="blwm_mid"/>
    </contour>
    <contour>
      <point x="1081" y="10" type="move" name="blwm_rakar"/>
    </contour>
    <contour>
      <point x="200" y="-23" type="move" name="blwm_nukta"/>
    </contour>
  </outline>
</glyph>
<glyph name="dLla" format="1">
  <advance width="1437"/>
  <unicode hex="0933"/>
  <outline>
    <contour>
      <point x="1080" y="1197" type="line"/>
      <point x="1487" y="1197" type="line"/>
      <point x="1493" y="1206" type="line"/>
      <point x="1437" y="1330" type="line"/>
      <point x="-44" y="1330" type="line"/>
      <point x="-50" y="1321" type="line"/>
      <point x="6" y="1197" type="line"/>
      <point x="930" y="1197" type="line"/>
      <point x="930" y="894" type="line"/>
      <point x="854" y="876"/>
      <point x="804" y="823"/>
      <point x="742" y="724" type="curve"/>
      <point x="614" y="850"/>
      <point x="495" y="910"/>
      <point x="376" y="910" type="curve" smooth="yes"/>
      <point x="194" y="910"/>
      <point x="62" y="771"/>
      <point x="62" y="587" type="curve" smooth="yes"/>
      <point x="62" y="360"/>
      <point x="261" y="157"/>
      <point x="463" y="157" type="curve" smooth="yes"/>
      <point x="590" y="157"/>
      <point x="659" y="237"/>
      <point x="729" y="361" type="curve"/>
      <point x="854" y="216"/>
      <point x="970" y="147"/>
      <point x="1090" y="147" type="curve" smooth="yes"/>
      <point x="1261" y="147"/>
      <point x="1391" y="286"/>
      <point x="1391" y="470" type="curve" smooth="yes"/>
      <point x="1391" y="663"/>
      <point x="1248" y="838"/>
      <point x="1080" y="887" type="curve"/>
    </contour>
    <contour>
      <point x="531" y="769"/>
      <point x="615" y="726"/>
      <point x="695" y="641" type="curve"/>
      <point x="557" y="379"/>
      <point x="514" y="288"/>
      <point x="399" y="288" type="curve" smooth="yes"/>
      <point x="282" y="288"/>
      <point x="206" y="381"/>
      <point x="206" y="511" type="curve" smooth="yes"/>
      <point x="206" y="654"/>
      <point x="299" y="769"/>
      <point x="443" y="769" type="curve" smooth="yes"/>
    </contour>
    <contour>
      <point x="1174" y="769"/>
      <point x="1247" y="676"/>
      <point x="1247" y="547" type="curve" smooth="yes"/>
      <point x="1247" y="403"/>
      <point x="1156" y="288"/>
      <point x="1023" y="288" type="curve" smooth="yes"/>
      <point x="936" y="288"/>
      <point x="856" y="338"/>
      <point x="775" y="449" type="curve"/>
      <point x="910" y="718"/>
      <point x="964" y="769"/>
      <point x="1053" y="769" type="curve" smooth="yes"/>
    </contour>
    <contour>
      <point x="1000" y="1395" type="move" name="abvm_nasal"/>
    </contour>
    <contour>
      <point x="1000" y="1325" type="move" name="abvm_matra"/>
    </contour>
    <contour>
      <point x="1000" y="1335" type="move" name="abvm_reph"/>
    </contour>
    <contour>
      <point x="721" y="1600" type="move" name="abvm_latin"/>
    </contour>
    <contour>
      <point x="1000" y="-19" type="move" name="blwm_matra"/>
    </contour>
    <contour>
      <point x="721" y="-10" type="move" name="blwm_mid"/>
    </contour>
    <contour>
      <point x="721" y="10" type="move" name="blwm_rakar"/>
    </contour>
    <contour>
      <point x="766" y="-23" type="move" name="blwm_nukta"/>
    </contour>
  </outline>
</glyph>
<glyph name="dLlla" format="1">
  <advance width="1431"/>
  <unicode hex="0934"/>
  <outline>
    <contour>
      <point x="1074" y="1197" type="line"/>
      <point x="1481" y="1197" type="line"/>
      <point x="1487" y="1206" type="line"/>
      <point x="1431" y="1330" type="line"/>
      <point x="-50" y="1330" type="line"/>
      <point x="-56" y="1321" type="line"/>
      <point x="0" y="1197" type="line"/>
      <point x="924" y="1197" type="line"/>
      <point x="924" y="894" type="line"/>
      <point x="848" y="876"/>
      <point x="798" y="823"/>
      <point x="736" y="724" type="curve"/>
      <point x="608" y="850"/>
      <point x="489" y="910"/>
      <point x="370" y="910" type="curve" smooth="yes"/>
      <point x="188" y="910"/>
      <point x="56" y="771"/>
      <point x="56" y="587" type="curve" smooth="yes"/>
      <point x="56" y="360"/>
      <point x="255" y="157"/>
      <point x="457" y="157" type="curve" smooth="yes"/>
      <point x="584" y="157"/>
      <point x="653" y="237"/>
      <point x="723" y="361" type="curve"/>
      <point x="848" y="216"/>
      <point x="964" y="147"/>
      <point x="1084" y="147" type="curve" smooth="yes"/>
      <point x="1255" y="147"/>
      <point x="1385" y="286"/>
      <point x="1385" y="470" type="curve" smooth="yes"/>
      <point x="1385" y="663"/>
      <point x="1242" y="838"/>
      <point x="1074" y="887" type="curve"/>
    </contour>
    <contour>
      <point x="525" y="769"/>
      <point x="609" y="726"/>
      <point x="689" y="641" type="curve"/>
      <point x="551" y="379"/>
      <point x="508" y="288"/>
      <point x="393" y="288" type="curve" smooth="yes"/>
      <point x="276" y="288"/>
      <point x="200" y="381"/>
      <point x="200" y="511" type="curve" smooth="yes"/>
      <point x="200" y="654"/>
      <point x="293" y="769"/>
      <point x="437" y="769" type="curve" smooth="yes"/>
    </contour>
    <contour>
      <point x="1168" y="769"/>
      <point x="1241" y="676"/>
      <point x="1241" y="547" type="curve" smooth="yes"/>
      <point x="1241" y="403"/>
      <point x="1150" y="288"/>
      <point x="1017" y="288" type="curve" smooth="yes"/>
      <point x="930" y="288"/>
      <point x="850" y="338"/>
      <point x="769" y="449" type="curve"/>
      <point x="904" y="718"/>
      <point x="958" y="769"/>
      <point x="1047" y="769" type="curve" smooth="yes"/>
    </contour>
    <contour>
      <point x="709" y="69"/>
      <point x="666" y="26"/>
      <point x="666" y="-26" type="curve" smooth="yes"/>
      <point x="666" y="-79"/>
      <point x="709" y="-122"/>
      <point x="762" y="-122" type="curve" smooth="yes"/>
      <point x="814" y="-122"/>
      <point x="857" y="-79"/>
      <point x="857" y="-26" type="curve" smooth="yes"/>
      <point x="857" y="26"/>
      <point x="814" y="69"/>
      <point x="762" y="69" type="curve" smooth="yes"/>
    </contour>
    <contour>
      <point x="994.0" y="1395.0" type="move" name="abvm_nasal"/>
    </contour>
    <contour>
      <point x="994.0" y="1325.0" type="move" name="abvm_matra"/>
    </contour>
    <contour>
      <point x="994.0" y="1335.0" type="move" name="abvm_reph"/>
    </contour>
    <contour>
      <point x="715.0" y="1600.0" type="move" name="abvm_latin"/>
    </contour>
    <contour>
      <point x="994.0" y="-19.0" type="move" name="blwm_matra"/>
    </contour>
    <contour>
      <point x="715.0" y="-10.0" type="move" name="blwm_mid"/>
    </contour>
    <contour>
      <point x="715.0" y="10.0" type="move" name="blwm_rakar"/>
    </contour>
  </outline>
</glyph>
<glyph name="dSha" format="1">
  <advance width="1493"/>
  <unicode hex="0936"/>
  <outline>
    <contour>
      <point x="743" y="469"/>
      <point x="847" y="719"/>
      <point x="847" y="905" type="curve" smooth="yes"/>
      <point x="847" y="1018"/>
      <point x="809" y="1110"/>
      <point x="736" y="1197" type="curve"/>
      <point x="1126" y="1197" type="line"/>
      <point x="1126" y="19" type="line"/>
      <point x="1277" y="-19" type="line"/>
      <point x="1286" y="-12" type="line"/>
      <point x="1286" y="1197" type="line"/>
      <point x="1543" y="1197" type="line"/>
      <point x="1549" y="1206" type="line"/>
      <point x="1493" y="1330" type="line"/>
      <point x="-48" y="1330" type="line"/>
      <point x="-54" y="1321" type="line"/>
      <point x="2" y="1197" type="line"/>
      <point x="261" y="1197" type="line"/>
      <point x="247" y="1166"/>
      <point x="240" y="1130"/>
      <point x="240" y="1088" type="curve" smooth="yes"/>
      <point x="240" y="924"/>
      <point x="348" y="790"/>
      <point x="601" y="677" type="curve"/>
      <point x="551" y="614"/>
      <point x="482" y="555"/>
      <point x="400" y="517" type="curve"/>
      <point x="347" y="605"/>
      <point x="277" y="645"/>
      <point x="210" y="645" type="curve" smooth="yes"/>
      <point x="140" y="645"/>
      <point x="88" y="600"/>
      <point x="88" y="531" type="curve" smooth="yes"/>
      <point x="88" y="431"/>
      <point x="198" y="339"/>
      <point x="370" y="336" type="curve"/>
      <point x="507" y="50"/>
      <point x="657" y="-25"/>
      <point x="772" y="-25" type="curve" smooth="yes"/>
      <point x="866" y="-25"/>
      <point x="917" y="26"/>
      <point x="917" y="90" type="curve" smooth="yes"/>
      <point x="917" y="112"/>
      <point x="911" y="140"/>
      <point x="895" y="171" type="curve"/>
      <point x="850" y="149"/>
      <point x="807" y="135"/>
      <point x="750" y="135" type="curve" smooth="yes"/>
      <point x="642" y="135"/>
      <point x="541" y="185"/>
      <point x="462" y="355" type="curve"/>
    </contour>
    <contour>
      <point x="637" y="1205"/>
      <point x="707" y="1135"/>
      <point x="707" y="986" type="curve" smooth="yes"/>
      <point x="707" y="906"/>
      <point x="687" y="826"/>
      <point x="649" y="752" type="curve"/>
      <point x="465" y="845"/>
      <point x="390" y="936"/>
      <point x="390" y="1048" type="curve" smooth="yes"/>
      <point x="390" y="1137"/>
      <point x="437" y="1205"/>
      <point x="536" y="1205" type="curve" smooth="yes"/>
    </contour>
    <contour>
      <point x="1206" y="1395" type="move" name="abvm_nasal"/>
    </contour>
    <contour>
      <point x="1206" y="1325" type="move" name="abvm_matra"/>
    </contour>
    <contour>
      <point x="1206" y="1335" type="move" name="abvm_reph"/>
    </contour>
    <contour>
      <point x="747" y="1600" type="move" name="abvm_latin"/>
    </contour>
    <contour>
      <point x="1206" y="-19" type="move" name="blwm_matra"/>
    </contour>
    <contour>
      <point x="747" y="-10" type="move" name="blwm_mid"/>
    </contour>
    <contour>
      <point x="1166" y="10" type="move" name="blwm_rakar"/>
    </contour>
    <contour>
      <point x="262" y="77" type="move" name="blwm_nukta"/>
    </contour>
  </outline>
</glyph>
<glyph name="dSsa" format="1">
  <advance width="1112"/>
  <unicode hex="0937"/>
  <outline>
    <contour>
      <point x="904" y="1197" type="line"/>
      <point x="1162" y="1197" type="line"/>
      <point x="1168" y="1206" type="line"/>
      <point x="1112" y="1330" type="line"/>
      <point x="-50" y="1330" type="line"/>
      <point x="-56" y="1321" type="line"/>
      <point x="0" y="1197" type="line"/>
      <point x="129" y="1197" type="line"/>
      <point x="129" y="755" type="line" smooth="yes"/>
      <point x="129" y="536"/>
      <point x="320" y="351"/>
      <point x="522" y="351" type="curve" smooth="yes"/>
      <point x="596" y="351"/>
      <point x="669" y="373"/>
      <point x="744" y="421" type="curve"/>
      <point x="744" y="19" type="line"/>
      <point x="895" y="-19" type="line"/>
      <point x="904" y="-12" type="line"/>
    </contour>
    <contour>
      <point x="293" y="1197" type="line"/>
      <point x="744" y="1197" type="line"/>
      <point x="744" y="750" type="line" smooth="yes"/>
      <point x="744" y="710"/>
      <point x="737" y="675"/>
      <point x="721" y="641" type="curve"/>
    </contour>
    <contour>
      <point x="355" y="473"/>
      <point x="289" y="541"/>
      <point x="289" y="670" type="curve" smooth="yes"/>
      <point x="289" y="1032" type="line"/>
      <point x="660" y="557" type="line"/>
      <point x="607" y="505"/>
      <point x="535" y="473"/>
      <point x="462" y="473" type="curve" smooth="yes"/>
    </contour>
    <contour>
      <point x="824.0" y="1395.0" type="move" name="abvm_nasal"/>
    </contour>
    <contour>
      <point x="824.0" y="1325.0" type="move" name="abvm_matra"/>
    </contour>
    <contour>
      <point x="824.0" y="1335.0" type="move" name="abvm_reph"/>
    </contour>
    <contour>
      <point x="556.0" y="1600.0" type="move" name="abvm_latin"/>
    </contour>
    <contour>
      <point x="824.0" y="-19.0" type="move" name="blwm_matra"/>
    </contour>
    <contour>
      <point x="406" y="-10" type="move" name="blwm_mid"/>
    </contour>
    <contour>
      <point x="781" y="10" type="move" name="blwm_rakar"/>
    </contour>
    <contour>
      <point x="450" y="77" type="move" name="blwm_nukta"/>
    </contour>
  </outline>
</glyph>
<glyph name="dSa" format="1">
  <advance width="1364"/>
  <unicode hex="0938"/>
  <outline>
    <contour>
      <point x="1156" y="1197" type="line"/>
      <point x="1414" y="1197" type="line"/>
      <point x="1420" y="1206" type="line"/>
      <point x="1364" y="1330" type="line"/>
      <point x="-46" y="1330" type="line"/>
      <point x="-52" y="1321" type="line"/>
      <point x="4" y="1197" type="line"/>
      <point x="408" y="1197" type="line"/>
      <point x="448" y="1105"/>
      <point x="467" y="1011"/>
      <point x="467" y="932" type="curve" smooth="yes"/>
      <point x="467" y="840"/>
      <point x="441" y="777"/>
      <point x="381" y="733" type="curve"/>
      <point x="320" y="765"/>
      <point x="261" y="779"/>
      <point x="217" y="779" type="curve" smooth="yes"/>
      <point x="129" y="779"/>
      <point x="82" y="723"/>
      <point x="82" y="653" type="curve" smooth="yes"/>
      <point x="82" y="452"/>
      <point x="465" y="-2"/>
      <point x="643" y="-2" type="curve" smooth="yes"/>
      <point x="685" y="-2"/>
      <point x="727" y="24"/>
      <point x="737" y="66" type="curve"/>
      <point x="534" y="171"/>
      <point x="384" y="293"/>
      <point x="259" y="484" type="curve"/>
      <point x="366" y="508"/>
      <point x="436" y="543"/>
      <point x="490" y="591" type="curve"/>
      <point x="599" y="540"/>
      <point x="722" y="503"/>
      <point x="827" y="503" type="curve" smooth="yes"/>
      <point x="882" y="503"/>
      <point x="936" y="513"/>
      <point x="996" y="542" type="curve"/>
      <point x="996" y="19" type="line"/>
      <point x="1147" y="-19" type="line"/>
      <point x="1156" y="-12" type="line"/>
    </contour>
    <contour>
      <point x="601" y="965"/>
      <point x="566" y="1074"/>
      <point x="508" y="1197" type="curve"/>
      <point x="996" y="1197" type="line"/>
      <point x="996" y="830" type="line" smooth="yes"/>
      <point x="994" y="711"/>
      <point x="892" y="626"/>
      <point x="744" y="626" type="curve" smooth="yes"/>
      <point x="691" y="626"/>
      <point x="617" y="637"/>
      <point x="546" y="660" type="curve"/>
      <point x="588" y="726"/>
      <point x="601" y="782"/>
      <point x="601" y="851" type="curve" smooth="yes"/>
    </contour>
    <contour>
      <point x="1076.0" y="1395.0" type="move" name="abvm_nasal"/>
    </contour>
    <contour>
      <point x="1076.0" y="1325.0" type="move" name="abvm_matra"/>
    </contour>
    <contour>
      <point x="1076.0" y="1335.0" type="move" name="abvm_reph"/>
    </contour>
    <contour>
      <point x="684.0" y="1600.0" type="move" name="abvm_latin"/>
    </contour>
    <contour>
      <point x="1076.0" y="-19.0" type="move" name="blwm_matra"/>
    </contour>
    <contour>
      <point x="664" y="-10" type="move" name="blwm_mid"/>
    </contour>
    <contour>
      <point x="1031" y="10" type="move" name="blwm_rakar"/>
    </contour>
    <contour>
      <point x="254.0" y="-23.0" type="move" name="blwm_nukta"/>
    </contour>
  </outline>
</glyph>
<glyph name="dHa" format="1">
  <advance width="1006"/>
  <unicode hex="0939"/>
  <outline>
    <contour>
      <point x="802" y="1197" type="line"/>
      <point x="1056" y="1197" type="line"/>
      <point x="1062" y="1206" type="line"/>
      <point x="1006" y="1330" type="line"/>
      <point x="-50" y="1330" type="line"/>
      <point x="-56" y="1321" type="line"/>
      <point x="0" y="1197" type="line"/>
      <point x="648" y="1197" type="line"/>
      <point x="648" y="1024" type="line" smooth="yes"/>
      <point x="648" y="1019"/>
      <point x="645" y="1016"/>
      <point x="640" y="1016" type="curve" smooth="yes"/>
      <point x="297" y="1016" type="line" smooth="yes"/>
      <point x="159" y="1016"/>
      <point x="94" y="938"/>
      <point x="94" y="840" type="curve" smooth="yes"/>
      <point x="94" y="756"/>
      <point x="142" y="654"/>
      <point x="235" y="579" type="curve"/>
      <point x="185" y="523"/>
      <point x="153" y="445"/>
      <point x="153" y="356" type="curve" smooth="yes"/>
      <point x="153" y="100"/>
      <point x="415" y="-123"/>
      <point x="704" y="-123" type="curve" smooth="yes"/>
      <point x="818" y="-123"/>
      <point x="858" y="-88"/>
      <point x="858" y="-32" type="curve"/>
      <point x="503" y="-32"/>
      <point x="303" y="119"/>
      <point x="303" y="304" type="curve" smooth="yes"/>
      <point x="303" y="444"/>
      <point x="416" y="556"/>
      <point x="600" y="556" type="curve" smooth="yes"/>
      <point x="723" y="556"/>
      <point x="788" y="506"/>
      <point x="788" y="432" type="curve" smooth="yes"/>
      <point x="788" y="366"/>
      <point x="737" y="307"/>
      <point x="628" y="258" type="curve"/>
      <point x="668" y="190"/>
      <point x="708" y="170"/>
      <point x="750" y="170" type="curve" smooth="yes"/>
      <point x="829" y="170"/>
      <point x="898" y="240"/>
      <point x="898" y="364" type="curve" smooth="yes"/>
      <point x="898" y="549"/>
      <point x="744" y="699"/>
      <point x="529" y="699" type="curve" smooth="yes"/>
      <point x="450" y="699"/>
      <point x="369" y="679"/>
      <point x="304" y="637" type="curve"/>
      <point x="263" y="673"/>
      <point x="239" y="715"/>
      <point x="239" y="760" type="curve" smooth="yes"/>
      <point x="239" y="817"/>
      <point x="277" y="875"/>
      <point x="379" y="875" type="curve" smooth="yes"/>
      <point x="794" y="875" type="line"/>
      <point x="802" y="883" type="line"/>
    </contour>
    <contour>
      <point x="722" y="1395" type="move" name="abvm_nasal"/>
    </contour>
    <contour>
      <point x="722" y="1325" type="move" name="abvm_matra"/>
    </contour>
    <contour>
      <point x="722" y="1335" type="move" name="abvm_reph"/>
    </contour>
    <contour>
      <point x="503" y="1600" type="move" name="abvm_latin"/>
    </contour>
    <contour>
      <point x="652" y="-119" type="move" name="blwm_matra"/>
    </contour>
    <contour>
      <point x="603" y="-10" type="move" name="blwm_mid"/>
    </contour>
    <contour>
      <point x="503" y="-190" type="move" name="blwm_rakar"/>
    </contour>
    <contour>
      <point x="100" y="-23" type="move" name="blwm_nukta"/>
    </contour>
  </outline>
</glyph>
<glyph name="dOesign" format="1">
  <advance width="0"/>
  <unicode hex="093A"/>
  <outline>
    <contour>
      <point x="61" y="1251" type="line"/>
      <point x="70" y="1258" type="line"/>
      <point x="70" y="1587" type="line"/>
      <point x="-64" y="1615" type="line"/>
      <point x="-73" y="1608" type="line"/>
      <point x="-73" y="1279" type="line"/>
    </contour>
    <contour>
      <point x="0" y="1325" type="move" name="_abvm_matra"/>
    </contour>
  </outline>
</glyph>
<glyph name="dOoesign" format="1">
  <advance width="573"/>
  <unicode hex="093B"/>
  <outline>
    <contour>
      <point x="629" y="1206" type="line"/>
      <point x="573" y="1330" type="line"/>
      <point x="358" y="1330" type="line"/>
      <point x="358" y="1587" type="line"/>
      <point x="224" y="1615" type="line"/>
      <point x="215" y="1608" type="line"/>
      <point x="215" y="1330" type="line"/>
      <point x="-50" y="1330" type="line"/>
      <point x="-56" y="1321" type="line"/>
      <point x="0" y="1197" type="line"/>
      <point x="206" y="1197" type="line"/>
      <point x="206" y="19" type="line"/>
      <point x="357" y="-19" type="line"/>
      <point x="366" y="-12" type="line"/>
      <point x="366" y="1197" type="line"/>
      <point x="623" y="1197" type="line"/>
    </contour>
    <contour>
      <point x="286" y="1395" type="move" name="abvm_nasal"/>
    </contour>
    <contour>
      <point x="286" y="1325" type="move" name="abvm_matra"/>
    </contour>
    <contour>
      <point x="286" y="1335" type="move" name="abvm_reph"/>
    </contour>
    <contour>
      <point x="286" y="1600" type="move" name="abvm_latin"/>
    </contour>
    <contour>
      <point x="286" y="-19" type="move" name="blwm_matra"/>
    </contour>
    <contour>
      <point x="286" y="-10" type="move" name="blwm_mid"/>
    </contour>
    <contour>
      <point x="286" y="10" type="move" name="blwm_rakar"/>
    </contour>
    <contour>
      <point x="0" y="-23" type="move" name="blwm_nukta"/>
    </contour>
  </outline>
</glyph>
<glyph name="dNukta" format="1">
  <advance width="0"/>
  <unicode hex="093C"/>
  <outline>
    <contour>
      <point x="-53" y="72"/>
      <point x="-96" y="29"/>
      <point x="-96" y="-23" type="curve" smooth="yes"/>
      <point x="-96" y="-76"/>
      <point x="-53" y="-119"/>
      <point x="0" y="-119" type="curve" smooth="yes"/>
      <point x="52" y="-119"/>
      <point x="95" y="-76"/>
      <point x="95" y="-23" type="curve" smooth="yes"/>
      <point x="95" y="29"/>
      <point x="52" y="72"/>
      <point x="0" y="72" type="curve" smooth="yes"/>
    </contour>
    <contour>
      <point x="0" y="-23" type="move" name="_blwm_nukta"/>
    </contour>
  </outline>
</glyph>
<glyph name="dIsign" format="1">
  <advance width="573"/>
  <unicode hex="093F"/>
  <outline>
    <contour>
      <point x="207" y="1906"/>
      <point x="63" y="1761"/>
      <point x="63" y="1581" type="curve" smooth="yes"/>
      <point x="63" y="1486"/>
      <point x="101" y="1407"/>
      <point x="170" y="1330" type="curve"/>
      <point x="-50" y="1330" type="line"/>
      <point x="-56" y="1321" type="line"/>
      <point x="0" y="1197" type="line"/>
      <point x="206" y="1197" type="line"/>
      <point x="206" y="19" type="line"/>
      <point x="357" y="-19" type="line"/>
      <point x="366" y="-12" type="line"/>
      <point x="366" y="1197" type="line"/>
      <point x="623" y="1197" type="line"/>
      <point x="629" y="1206" type="line"/>
      <point x="573" y="1330" type="line"/>
      <point x="292" y="1330" type="line"/>
      <point x="230" y="1383"/>
      <point x="201" y="1445"/>
      <point x="201" y="1512" type="curve" smooth="yes"/>
      <point x="201" y="1647"/>
      <point x="319" y="1746"/>
      <point x="540" y="1746" type="curve" smooth="yes"/>
      <point x="842" y="1746"/>
      <point x="1171" y="1560"/>
      <point x="1369" y="1252" type="curve"/>
      <point x="1454" y="1305" type="line"/>
      <point x="1191" y="1702"/>
      <point x="824" y="1906"/>
      <point x="489" y="1906" type="curve" smooth="yes"/>
    </contour>
    <contour>
      <point x="1266" y="1395" type="move" name="abvm_nasal"/>
    </contour>
  </outline>
</glyph>
<glyph name="dIisign" format="1">
  <advance width="573"/>
  <unicode hex="0940"/>
  <outline>
    <contour>
      <point x="357" y="-19" type="line"/>
      <point x="366" y="-12" type="line"/>
      <point x="366" y="1197" type="line"/>
      <point x="623" y="1197" type="line"/>
      <point x="629" y="1206" type="line"/>
      <point x="573" y="1330" type="line"/>
      <point x="329" y="1330" type="line"/>
      <point x="109" y="1788"/>
      <point x="-125" y="1910"/>
      <point x="-329" y="1910" type="curve" smooth="yes"/>
      <point x="-520" y="1910"/>
      <point x="-625" y="1803"/>
      <point x="-625" y="1658" type="curve" smooth="yes"/>
      <point x="-625" y="1555"/>
      <point x="-572" y="1429"/>
      <point x="-379" y="1299" type="curve"/>
      <point x="-223" y="1297" type="line"/>
      <point x="-385" y="1379"/>
      <point x="-464" y="1494"/>
      <point x="-464" y="1597" type="curve" smooth="yes"/>
      <point x="-464" y="1691"/>
      <point x="-397" y="1766"/>
      <point x="-268" y="1766" type="curve" smooth="yes"/>
      <point x="-115" y="1766"/>
      <point x="54" y="1665"/>
      <point x="224" y="1330" type="curve"/>
      <point x="-50" y="1330" type="line"/>
      <point x="-56" y="1321" type="line"/>
      <point x="0" y="1197" type="line"/>
      <point x="206" y="1197" type="line"/>
      <point x="206" y="19" type="line"/>
    </contour>
    <contour>
      <point x="286" y="1395" type="move" name="abvm_nasal"/>
    </contour>
    <contour>
      <point x="286" y="1325" type="move" name="abvm_matra"/>
    </contour>
    <contour>
      <point x="286" y="1335" type="move" name="abvm_reph"/>
    </contour>
    <contour>
      <point x="286" y="1600" type="move" name="abvm_latin"/>
    </contour>
    <contour>
      <point x="286" y="-19" type="move" name="blwm_matra"/>
    </contour>
    <contour>
      <point x="286" y="-10" type="move" name="blwm_mid"/>
    </contour>
    <contour>
      <point x="286" y="10" type="move" name="blwm_rakar"/>
    </contour>
    <contour>
      <point x="0" y="-23" type="move" name="blwm_nukta"/>
    </contour>
  </outline>
</glyph>
<glyph name="dUsign" format="1">
  <advance width="0"/>
  <unicode hex="0941"/>
  <outline>
    <contour>
      <point x="-131" y="30"/>
      <point x="-221" y="-36"/>
      <point x="-221" y="-104" type="curve" smooth="yes"/>
      <point x="-221" y="-147"/>
      <point x="-187" y="-193"/>
      <point x="-115" y="-198" type="curve"/>
      <point x="-58" y="-126"/>
      <point x="-8" y="-97"/>
      <point x="48" y="-97" type="curve" smooth="yes"/>
      <point x="116" y="-97"/>
      <point x="163" y="-140"/>
      <point x="163" y="-208" type="curve" smooth="yes"/>
      <point x="163" y="-299"/>
      <point x="80" y="-369"/>
      <point x="-56" y="-369" type="curve" smooth="yes"/>
      <point x="-237" y="-369"/>
      <point x="-378" y="-245"/>
      <point x="-483" y="-14" type="curve"/>
      <point x="-509" y="-21"/>
      <point x="-529" y="-46"/>
      <point x="-529" y="-74" type="curve" smooth="yes"/>
      <point x="-529" y="-163"/>
      <point x="-312" y="-515"/>
      <point x="2" y="-515" type="curve" smooth="yes"/>
      <point x="164" y="-515"/>
      <point x="277" y="-421"/>
      <point x="277" y="-273" type="curve" smooth="yes"/>
      <point x="277" y="-112"/>
      <point x="142" y="30"/>
      <point x="-20" y="30" type="curve" smooth="yes"/>
    </contour>
    <contour>
      <point x="0" y="-19" type="move" name="_blwm_matra"/>
    </contour>
  </outline>
</glyph>
<glyph name="dUusign" format="1">
  <advance width="0"/>
  <unicode hex="0942"/>
  <outline>
    <contour>
      <point x="-196" y="34"/>
      <point x="-305" y="-56"/>
      <point x="-305" y="-196" type="curve" smooth="yes"/>
      <point x="-305" y="-348"/>
      <point x="-175" y="-493"/>
      <point x="-15" y="-493" type="curve" smooth="yes"/>
      <point x="91" y="-493"/>
      <point x="183" y="-429"/>
      <point x="183" y="-365" type="curve" smooth="yes"/>
      <point x="183" y="-322"/>
      <point x="149" y="-276"/>
      <point x="77" y="-271" type="curve"/>
      <point x="22" y="-335"/>
      <point x="-30" y="-366"/>
      <point x="-85" y="-367" type="curve" smooth="yes"/>
      <point x="-150" y="-366"/>
      <point x="-191" y="-322"/>
      <point x="-191" y="-258" type="curve" smooth="yes"/>
      <point x="-191" y="-171"/>
      <point x="-115" y="-112"/>
      <point x="6" y="-113" type="curve" smooth="yes"/>
      <point x="158" y="-112"/>
      <point x="304" y="-205"/>
      <point x="465" y="-386" type="curve"/>
      <point x="487" y="-377"/>
      <point x="496" y="-356"/>
      <point x="496" y="-342" type="curve" smooth="yes"/>
      <point x="496" y="-277"/>
      <point x="215" y="34"/>
      <point x="-46" y="34" type="curve" smooth="yes"/>
    </contour>
    <contour>
      <point x="0" y="-19" type="move" name="_blwm_matra"/>
    </contour>
  </outline>
</glyph>
<glyph name="dRvocalicsign" format="1">
  <advance width="0"/>
  <unicode hex="0943"/>
  <outline>
    <contour>
      <point x="80" y="-11" type="line"/>
      <point x="-29" y="98" type="line"/>
      <point x="-223" y="46"/>
      <point x="-301" y="-45"/>
      <point x="-301" y="-150" type="curve" smooth="yes"/>
      <point x="-301" y="-287"/>
      <point x="-168" y="-436"/>
      <point x="25" y="-436" type="curve" smooth="yes"/>
      <point x="146" y="-436"/>
      <point x="288" y="-378"/>
      <point x="288" y="-291" type="curve" smooth="yes"/>
      <point x="288" y="-246"/>
      <point x="250" y="-201"/>
      <point x="214" y="-189" type="curve"/>
      <point x="154" y="-252"/>
      <point x="37" y="-318"/>
      <point x="-58" y="-318" type="curve" smooth="yes"/>
      <point x="-147" y="-318"/>
      <point x="-182" y="-260"/>
      <point x="-182" y="-212" type="curve" smooth="yes"/>
      <point x="-182" y="-149"/>
      <point x="-122" y="-77"/>
      <point x="80" y="-22" type="curve"/>
    </contour>
    <contour>
      <point x="0" y="-19" type="move" name="_blwm_matra"/>
    </contour>
  </outline>
</glyph>
<glyph name="dRrvocalicsign" format="1">
  <advance width="0"/>
  <unicode hex="0944"/>
  <outline>
    <contour>
      <point x="195" y="-528"/>
      <point x="86" y="-579"/>
      <point x="12" y="-579" type="curve" smooth="yes"/>
      <point x="-42" y="-579"/>
      <point x="-75" y="-551"/>
      <point x="-75" y="-506" type="curve" smooth="yes"/>
      <point x="-75" y="-451"/>
      <point x="-28" y="-391"/>
      <point x="181" y="-292" type="curve"/>
      <point x="184" y="-281" type="line"/>
      <point x="96" y="-182" type="line"/>
      <point x="-19" y="-260"/>
      <point x="-64" y="-286"/>
      <point x="-111" y="-286" type="curve" smooth="yes"/>
      <point x="-161" y="-286"/>
      <point x="-188" y="-257"/>
      <point x="-188" y="-216" type="curve" smooth="yes"/>
      <point x="-188" y="-167"/>
      <point x="-149" y="-85"/>
      <point x="80" y="-22" type="curve"/>
      <point x="80" y="-11" type="line"/>
      <point x="-26" y="93" type="line"/>
      <point x="-242" y="35"/>
      <point x="-307" y="-70"/>
      <point x="-307" y="-158" type="curve" smooth="yes"/>
      <point x="-307" y="-234"/>
      <point x="-259" y="-309"/>
      <point x="-169" y="-354" type="curve"/>
      <point x="-196" y="-385"/>
      <point x="-204" y="-419"/>
      <point x="-204" y="-449" type="curve" smooth="yes"/>
      <point x="-204" y="-569"/>
      <point x="-74" y="-687"/>
      <point x="87" y="-687" type="curve" smooth="yes"/>
      <point x="224" y="-687"/>
      <point x="329" y="-602"/>
      <point x="329" y="-527" type="curve" smooth="yes"/>
      <point x="329" y="-483"/>
      <point x="292" y="-451"/>
      <point x="251" y="-435" type="curve"/>
    </contour>
    <contour>
      <point x="0" y="-19" type="move" name="_blwm_matra"/>
    </contour>
  </outline>
</glyph>
<glyph name="dEcandrasign" format="1">
  <advance width="0"/>
  <unicode hex="0945"/>
  <outline>
    <contour>
      <point x="-288" y="1870"/>
      <point x="-303" y="1856"/>
      <point x="-303" y="1812" type="curve" smooth="yes"/>
      <point x="-303" y="1683"/>
      <point x="-172" y="1486"/>
      <point x="33" y="1486" type="curve" smooth="yes"/>
      <point x="213" y="1486"/>
      <point x="340" y="1639"/>
      <point x="340" y="1760" type="curve" smooth="yes"/>
      <point x="340" y="1812"/>
      <point x="317" y="1838"/>
      <point x="250" y="1866" type="curve"/>
      <point x="208" y="1696"/>
      <point x="109" y="1619"/>
      <point x="-3" y="1619" type="curve" smooth="yes"/>
      <point x="-109" y="1619"/>
      <point x="-201" y="1689"/>
      <point x="-262" y="1884" type="curve"/>
    </contour>
    <contour>
      <point x="0" y="1395" type="move" name="_abvm_nasal"/>
    </contour>
  </outline>
</glyph>
<glyph name="dEshortsign" format="1">
  <advance width="0"/>
  <unicode hex="0946"/>
  <outline>
    <contour>
      <point x="-70" y="1311" type="line"/>
      <point x="70" y="1311" type="line"/>
      <point x="70" y="1330" type="line"/>
      <point x="25" y="1646"/>
      <point x="-148" y="1677"/>
      <point x="-455" y="1732" type="curve" smooth="yes"/>
      <point x="-675" y="1772"/>
      <point x="-793" y="1794"/>
      <point x="-886" y="1956" type="curve"/>
      <point x="-897" y="1934"/>
      <point x="-904" y="1912"/>
      <point x="-904" y="1878" type="curve" smooth="yes"/>
      <point x="-904" y="1645"/>
      <point x="-588" y="1594"/>
      <point x="-349" y="1558" type="curve" smooth="yes"/>
      <point x="-159" y="1529"/>
      <point x="-52" y="1512"/>
      <point x="-52" y="1415" type="curve" smooth="yes"/>
      <point x="-52" y="1392"/>
      <point x="-58" y="1362"/>
      <point x="-70" y="1330" type="curve"/>
    </contour>
    <contour>
      <point x="0" y="1325" type="move" name="_abvm_matra"/>
    </contour>
  </outline>
</glyph>
<glyph name="dEsign" format="1">
  <advance width="0"/>
  <unicode hex="0947"/>
  <outline>
    <contour>
      <point x="-450" y="1771"/>
      <point x="-354" y="1703"/>
      <point x="-58" y="1330" type="curve"/>
      <point x="-58" y="1272" type="line"/>
      <point x="58" y="1272" type="line"/>
      <point x="58" y="1330" type="line"/>
      <point x="-338" y="1842"/>
      <point x="-489" y="1922"/>
      <point x="-624" y="1922" type="curve" smooth="yes"/>
      <point x="-743" y="1922"/>
      <point x="-811" y="1859"/>
      <point x="-811" y="1788" type="curve" smooth="yes"/>
      <point x="-811" y="1732"/>
      <point x="-770" y="1687"/>
      <point x="-712" y="1668" type="curve"/>
      <point x="-679" y="1735"/>
      <point x="-629" y="1771"/>
      <point x="-555" y="1771" type="curve" smooth="yes"/>
    </contour>
    <contour>
      <point x="0" y="1325" type="move" name="_abvm_matra"/>
    </contour>
  </outline>
</glyph>
<glyph name="dOshortsign" format="1">
  <advance width="573"/>
  <unicode hex="094A"/>
  <outline>
    <contour>
      <point x="629" y="1206" type="line"/>
      <point x="573" y="1330" type="line"/>
      <point x="361" y="1330" type="line"/>
      <point x="316" y="1646"/>
      <point x="138" y="1679"/>
      <point x="-164" y="1732" type="curve" smooth="yes"/>
      <point x="-394" y="1772"/>
      <point x="-518" y="1794"/>
      <point x="-615" y="1956" type="curve"/>
      <point x="-626" y="1934"/>
      <point x="-633" y="1912"/>
      <point x="-633" y="1878" type="curve" smooth="yes"/>
      <point x="-633" y="1643"/>
      <point x="-298" y="1593"/>
      <point x="-58" y="1558" type="curve" smooth="yes"/>
      <point x="134" y="1530"/>
      <point x="239" y="1510"/>
      <point x="239" y="1414" type="curve" smooth="yes"/>
      <point x="239" y="1392"/>
      <point x="233" y="1362"/>
      <point x="221" y="1330" type="curve"/>
      <point x="-50" y="1330" type="line"/>
      <point x="-56" y="1321" type="line"/>
      <point x="0" y="1197" type="line"/>
      <point x="206" y="1197" type="line"/>
      <point x="206" y="19" type="line"/>
      <point x="357" y="-19" type="line"/>
      <point x="366" y="-12" type="line"/>
      <point x="366" y="1197" type="line"/>
      <point x="623" y="1197" type="line"/>
    </contour>
    <contour>
      <point x="286" y="1395" type="move" name="abvm_nasal"/>
    </contour>
    <contour>
      <point x="286" y="1325" type="move" name="abvm_matra"/>
    </contour>
    <contour>
      <point x="286" y="1335" type="move" name="abvm_reph"/>
    </contour>
    <contour>
      <point x="286" y="1600" type="move" name="abvm_latin"/>
    </contour>
    <contour>
      <point x="286" y="-19" type="move" name="blwm_matra"/>
    </contour>
    <contour>
      <point x="286" y="-10" type="move" name="blwm_mid"/>
    </contour>
    <contour>
      <point x="286" y="10" type="move" name="blwm_rakar"/>
    </contour>
    <contour>
      <point x="0" y="-23" type="move" name="blwm_nukta"/>
    </contour>
  </outline>
</glyph>
<glyph name="dOsign" format="1">
  <advance width="573"/>
  <unicode hex="094B"/>
  <outline>
    <contour>
      <point x="366" y="1197" type="line"/>
      <point x="623" y="1197" type="line"/>
      <point x="629" y="1206" type="line"/>
      <point x="573" y="1330" type="line"/>
      <point x="330" y="1330" type="line"/>
      <point x="-66" y="1842"/>
      <point x="-217" y="1922"/>
      <point x="-352" y="1922" type="curve" smooth="yes"/>
      <point x="-471" y="1922"/>
      <point x="-539" y="1859"/>
      <point x="-539" y="1788" type="curve" smooth="yes"/>
      <point x="-539" y="1732"/>
      <point x="-498" y="1687"/>
      <point x="-440" y="1668" type="curve"/>
      <point x="-407" y="1735"/>
      <point x="-357" y="1771"/>
      <point x="-283" y="1771" type="curve" smooth="yes"/>
      <point x="-178" y="1771"/>
      <point x="-82" y="1703"/>
      <point x="214" y="1330" type="curve"/>
      <point x="-50" y="1330" type="line"/>
      <point x="-56" y="1321" type="line"/>
      <point x="0" y="1197" type="line"/>
      <point x="206" y="1197" type="line"/>
      <point x="206" y="19" type="line"/>
      <point x="357" y="-19" type="line"/>
      <point x="366" y="-12" type="line"/>
    </contour>
    <contour>
      <point x="286" y="1395" type="move" name="abvm_nasal"/>
    </contour>
    <contour>
      <point x="286" y="1325" type="move" name="abvm_matra"/>
    </contour>
    <contour>
      <point x="286" y="1335" type="move" name="abvm_reph"/>
    </contour>
    <contour>
      <point x="286" y="1600" type="move" name="abvm_latin"/>
    </contour>
    <contour>
      <point x="286" y="-19" type="move" name="blwm_matra"/>
    </contour>
    <contour>
      <point x="286" y="-10" type="move" name="blwm_mid"/>
    </contour>
    <contour>
      <point x="286" y="10" type="move" name="blwm_rakar"/>
    </contour>
    <contour>
      <point x="0" y="-23" type="move" name="blwm_nukta"/>
    </contour>
  </outline>
</glyph>
<glyph name="dAusign" format="1">
  <advance width="573"/>
  <unicode hex="094C"/>
  <outline>
    <contour>
      <point x="629" y="1206" type="line"/>
      <point x="573" y="1330" type="line"/>
      <point x="350" y="1330" type="line"/>
      <point x="176" y="1929"/>
      <point x="27" y="2022"/>
      <point x="-95" y="2022" type="curve" smooth="yes"/>
      <point x="-193" y="2022"/>
      <point x="-242" y="1962"/>
      <point x="-242" y="1905" type="curve" smooth="yes"/>
      <point x="-242" y="1853"/>
      <point x="-201" y="1820"/>
      <point x="-149" y="1801" type="curve"/>
      <point x="-122" y="1839"/>
      <point x="-87" y="1864"/>
      <point x="-39" y="1864" type="curve" smooth="yes"/>
      <point x="29" y="1864"/>
      <point x="92" y="1813"/>
      <point x="215" y="1445" type="curve"/>
      <point x="-3" y="1616"/>
      <point x="-224" y="1732"/>
      <point x="-356" y="1732" type="curve" smooth="yes"/>
      <point x="-444" y="1732"/>
      <point x="-512" y="1677"/>
      <point x="-512" y="1603" type="curve" smooth="yes"/>
      <point x="-512" y="1551"/>
      <point x="-478" y="1508"/>
      <point x="-400" y="1488" type="curve"/>
      <point x="-375" y="1550"/>
      <point x="-331" y="1589"/>
      <point x="-267" y="1589" type="curve" smooth="yes"/>
      <point x="-169" y="1589"/>
      <point x="15" y="1501"/>
      <point x="207" y="1330" type="curve"/>
      <point x="-50" y="1330" type="line"/>
      <point x="-56" y="1321" type="line"/>
      <point x="0" y="1197" type="line"/>
      <point x="206" y="1197" type="line"/>
      <point x="206" y="19" type="line"/>
      <point x="357" y="-19" type="line"/>
      <point x="366" y="-12" type="line"/>
      <point x="366" y="1197" type="line"/>
      <point x="623" y="1197" type="line"/>
    </contour>
    <contour>
      <point x="286" y="1395" type="move" name="abvm_nasal"/>
    </contour>
    <contour>
      <point x="286" y="1325" type="move" name="abvm_matra"/>
    </contour>
    <contour>
      <point x="286" y="1335" type="move" name="abvm_reph"/>
    </contour>
    <contour>
      <point x="286" y="1600" type="move" name="abvm_latin"/>
    </contour>
    <contour>
      <point x="286" y="-19" type="move" name="blwm_matra"/>
    </contour>
    <contour>
      <point x="286" y="-10" type="move" name="blwm_mid"/>
    </contour>
    <contour>
      <point x="286" y="10" type="move" name="blwm_rakar"/>
    </contour>
    <contour>
      <point x="0" y="-23" type="move" name="blwm_nukta"/>
    </contour>
  </outline>
</glyph>
<glyph name="dVirama" format="1">
  <advance width="0"/>
  <unicode hex="094D"/>
  <outline>
    <contour>
      <point x="-177" y="-92"/>
      <point x="-230" y="-127"/>
      <point x="-230" y="-178" type="curve" smooth="yes"/>
      <point x="-230" y="-212"/>
      <point x="-206" y="-246"/>
      <point x="-163" y="-278" type="curve"/>
      <point x="-127" y="-268"/>
      <point x="-73" y="-257"/>
      <point x="-16" y="-257" type="curve" smooth="yes"/>
      <point x="102" y="-257"/>
      <point x="240" y="-304"/>
      <point x="445" y="-539" type="curve"/>
      <point x="467" y="-530"/>
      <point x="476" y="-509"/>
      <point x="476" y="-496" type="curve" smooth="yes"/>
      <point x="476" y="-447"/>
      <point x="345" y="-278"/>
      <point x="169" y="-171" type="curve" smooth="yes"/>
      <point x="62" y="-106"/>
      <point x="-18" y="-92"/>
      <point x="-80" y="-92" type="curve" smooth="yes"/>
    </contour>
    <contour>
      <point x="0" y="-19" type="move" name="_blwm_matra"/>
    </contour>
  </outline>
</glyph>
<glyph name="dAwsign" format="1">
  <advance width="573"/>
  <unicode hex="094F"/>
  <outline>
    <contour>
      <point x="366" y="1197" type="line"/>
      <point x="623" y="1197" type="line"/>
      <point x="629" y="1206" type="line"/>
      <point x="573" y="1330" type="line"/>
      <point x="360" y="1330" type="line"/>
      <point x="321" y="1727"/>
      <point x="218" y="1768"/>
      <point x="-96" y="1860" type="curve" smooth="yes"/>
      <point x="-265" y="1910"/>
      <point x="-346" y="1928"/>
      <point x="-386" y="2033" type="curve"/>
      <point x="-401" y="2010"/>
      <point x="-409" y="1979"/>
      <point x="-409" y="1944" type="curve" smooth="yes"/>
      <point x="-409" y="1790"/>
      <point x="-259" y="1764"/>
      <point x="-46" y="1711" type="curve" smooth="yes"/>
      <point x="147" y="1663"/>
      <point x="226" y="1633"/>
      <point x="261" y="1489" type="curve"/>
      <point x="171" y="1597"/>
      <point x="103" y="1603"/>
      <point x="-194" y="1631" type="curve" smooth="yes"/>
      <point x="-440" y="1654"/>
      <point x="-557" y="1686"/>
      <point x="-625" y="1826" type="curve"/>
      <point x="-636" y="1804"/>
      <point x="-643" y="1782"/>
      <point x="-643" y="1748" type="curve" smooth="yes"/>
      <point x="-643" y="1578"/>
      <point x="-462" y="1506"/>
      <point x="-138" y="1488" type="curve" smooth="yes"/>
      <point x="137" y="1473"/>
      <point x="229" y="1467"/>
      <point x="229" y="1392" type="curve" smooth="yes"/>
      <point x="229" y="1379"/>
      <point x="226" y="1354"/>
      <point x="219" y="1330" type="curve"/>
      <point x="-50" y="1330" type="line"/>
      <point x="-56" y="1321" type="line"/>
      <point x="0" y="1197" type="line"/>
      <point x="206" y="1197" type="line"/>
      <point x="206" y="19" type="line"/>
      <point x="357" y="-19" type="line"/>
      <point x="366" y="-12" type="line"/>
    </contour>
    <contour>
      <point x="286" y="1395" type="move" name="abvm_nasal"/>
    </contour>
    <contour>
      <point x="286" y="1325" type="move" name="abvm_matra"/>
    </contour>
    <contour>
      <point x="286" y="1335" type="move" name="abvm_reph"/>
    </contour>
    <contour>
      <point x="286" y="1600" type="move" name="abvm_latin"/>
    </contour>
    <contour>
      <point x="286" y="-19" type="move" name="blwm_matra"/>
    </contour>
    <contour>
      <point x="286" y="-10" type="move" name="blwm_mid"/>
    </contour>
    <contour>
      <point x="286" y="10" type="move" name="blwm_rakar"/>
    </contour>
    <contour>
      <point x="0" y="-23" type="move" name="blwm_nukta"/>
    </contour>
  </outline>
</glyph>
<glyph name="dOm" format="1">
  <advance width="1788"/>
  <unicode hex="0950"/>
  <outline>
    <contour>
      <point x="1192" y="1369"/>
      <point x="1236" y="1413"/>
      <point x="1236" y="1467" type="curve" smooth="yes"/>
      <point x="1236" y="1520"/>
      <point x="1192" y="1564"/>
      <point x="1138" y="1564" type="curve" smooth="yes"/>
      <point x="1085" y="1564"/>
      <point x="1041" y="1520"/>
      <point x="1041" y="1467" type="curve" smooth="yes"/>
      <point x="1041" y="1413"/>
      <point x="1085" y="1369"/>
      <point x="1138" y="1369" type="curve" smooth="yes"/>
    </contour>
    <contour>
      <point x="850" y="1480"/>
      <point x="835" y="1466"/>
      <point x="835" y="1422" type="curve" smooth="yes"/>
      <point x="835" y="1293"/>
      <point x="966" y="1096"/>
      <point x="1181" y="1096" type="curve" smooth="yes"/>
      <point x="1358" y="1096"/>
      <point x="1481" y="1230"/>
      <point x="1481" y="1347" type="curve" smooth="yes"/>
      <point x="1481" y="1414"/>
      <point x="1458" y="1445"/>
      <point x="1388" y="1476" type="curve"/>
      <point x="1348" y="1306"/>
      <point x="1253" y="1229"/>
      <point x="1145" y="1229" type="curve" smooth="yes"/>
      <point x="1035" y="1229"/>
      <point x="939" y="1299"/>
      <point x="876" y="1494" type="curve"/>
    </contour>
    <contour>
      <point x="1200" y="578"/>
      <point x="1198" y="568"/>
      <point x="1198" y="557" type="curve" smooth="yes"/>
      <point x="1198" y="469"/>
      <point x="1296" y="339"/>
      <point x="1463" y="339" type="curve" smooth="yes"/>
      <point x="1622" y="339"/>
      <point x="1738" y="459"/>
      <point x="1738" y="634" type="curve" smooth="yes"/>
      <point x="1738" y="853"/>
      <point x="1556" y="1023"/>
      <point x="1390" y="1023" type="curve" smooth="yes"/>
      <point x="1152" y="1023"/>
      <point x="1133" y="671"/>
      <point x="912" y="671" type="curve" smooth="yes"/>
      <point x="877" y="671"/>
      <point x="823" y="680"/>
      <point x="778" y="719" type="curve"/>
      <point x="850" y="776"/>
      <point x="892" y="854"/>
      <point x="892" y="960" type="curve" smooth="yes"/>
      <point x="892" y="1172"/>
      <point x="723" y="1325"/>
      <point x="483" y="1325" type="curve" smooth="yes"/>
      <point x="284" y="1325"/>
      <point x="177" y="1219"/>
      <point x="177" y="1118" type="curve" smooth="yes"/>
      <point x="177" y="1044"/>
      <point x="234" y="997"/>
      <point x="323" y="997" type="curve"/>
      <point x="323" y="1121"/>
      <point x="406" y="1214"/>
      <point x="548" y="1214" type="curve" smooth="yes"/>
      <point x="664" y="1214"/>
      <point x="746" y="1152"/>
      <point x="746" y="1027" type="curve" smooth="yes"/>
      <point x="746" y="877"/>
      <point x="629" y="784"/>
      <point x="358" y="769" type="curve"/>
      <point x="352" y="759" type="line"/>
      <point x="433" y="602" type="line"/>
      <point x="522" y="612"/>
      <point x="604" y="631"/>
      <point x="674" y="660" type="curve"/>
      <point x="748" y="616"/>
      <point x="797" y="531"/>
      <point x="797" y="438" type="curve" smooth="yes"/>
      <point x="797" y="307"/>
      <point x="700" y="214"/>
      <point x="548" y="214" type="curve" smooth="yes"/>
      <point x="349" y="214"/>
      <point x="187" y="375"/>
      <point x="124" y="746" type="curve"/>
      <point x="75" y="741"/>
      <point x="50" y="725"/>
      <point x="50" y="654" type="curve" smooth="yes"/>
      <point x="50" y="470"/>
      <point x="215" y="52"/>
      <point x="590" y="52" type="curve" smooth="yes"/>
      <point x="801" y="52"/>
      <point x="932" y="184"/>
      <point x="932" y="376" type="curve" smooth="yes"/>
      <point x="932" y="445"/>
      <point x="915" y="505"/>
      <point x="883" y="563" type="curve"/>
      <point x="923" y="542"/>
      <point x="964" y="530"/>
      <point x="1004" y="530" type="curve" smooth="yes"/>
      <point x="1226" y="530"/>
      <point x="1283" y="883"/>
      <point x="1465" y="883" type="curve" smooth="yes"/>
      <point x="1545" y="883"/>
      <point x="1604" y="815"/>
      <point x="1604" y="709" type="curve" smooth="yes"/>
      <point x="1604" y="582"/>
      <point x="1520" y="482"/>
      <point x="1407" y="482" type="curve" smooth="yes"/>
      <point x="1348" y="482"/>
      <point x="1288" y="501"/>
      <point x="1203" y="587" type="curve"/>
    </contour>
  </outline>
</glyph>
<glyph name="dUdatta" format="1">
  <advance width="0"/>
  <unicode hex="0951"/>
  <outline>
    <contour>
      <point x="61" y="1481" type="line"/>
      <point x="70" y="1488" type="line"/>
      <point x="70" y="1917" type="line"/>
      <point x="-64" y="1945" type="line"/>
      <point x="-73" y="1938" type="line"/>
      <point x="-73" y="1509" type="line"/>
    </contour>
    <contour>
      <point x="0" y="1325" type="move" name="_abvm_matra"/>
    </contour>
  </outline>
</glyph>
<glyph name="dAnudatta" format="1">
  <advance width="0"/>
  <unicode hex="0952"/>
  <outline>
    <contour>
      <point x="-520" y="-293" type="line"/>
      <point x="40" y="-293" type="line"/>
      <point x="46" y="-284" type="line"/>
      <point x="0" y="-180" type="line"/>
      <point x="-560" y="-180" type="line"/>
      <point x="-566" y="-189" type="line"/>
    </contour>
    <contour>
      <point x="0" y="-19" type="move" name="_blwm_matra"/>
    </contour>
  </outline>
</glyph>
<glyph name="dGrave" format="1">
  <advance width="0"/>
  <unicode hex="0953"/>
  <outline>
    <contour>
      <point x="102" y="1497" type="line"/>
      <point x="190" y="1552" type="line"/>
      <point x="192" y="1564" type="line"/>
      <point x="-113" y="1930" type="line"/>
      <point x="-201" y="1875" type="line"/>
      <point x="-203" y="1863" type="line"/>
    </contour>
    <contour>
      <point x="0" y="1600" type="move" name="_abvm_latin"/>
    </contour>
  </outline>
</glyph>
<glyph name="dAcute" format="1">
  <advance width="0"/>
  <unicode hex="0954"/>
  <outline>
    <contour>
      <point x="-59" y="1497" type="line"/>
      <point x="246" y="1863" type="line"/>
      <point x="244" y="1875" type="line"/>
      <point x="156" y="1930" type="line"/>
      <point x="-149" y="1564" type="line"/>
      <point x="-147" y="1552" type="line"/>
    </contour>
    <contour>
      <point x="0" y="1600" type="move" name="_abvm_latin"/>
    </contour>
  </outline>
</glyph>
<glyph name="dEcandralongsign" format="1">
  <advance width="0"/>
  <unicode hex="0955"/>
  <outline>
    <contour>
      <point x="-288" y="2010"/>
      <point x="-303" y="1996"/>
      <point x="-303" y="1952" type="curve" smooth="yes"/>
      <point x="-303" y="1823"/>
      <point x="-172" y="1626"/>
      <point x="33" y="1626" type="curve" smooth="yes"/>
      <point x="213" y="1626"/>
      <point x="340" y="1779"/>
      <point x="340" y="1900" type="curve" smooth="yes"/>
      <point x="340" y="1952"/>
      <point x="317" y="1978"/>
      <point x="250" y="2006" type="curve"/>
      <point x="208" y="1836"/>
      <point x="109" y="1759"/>
      <point x="-3" y="1759" type="curve" smooth="yes"/>
      <point x="-109" y="1759"/>
      <point x="-201" y="1829"/>
      <point x="-262" y="2024" type="curve"/>
    </contour>
    <contour>
      <point x="-256" y="1422" type="line"/>
      <point x="354" y="1422" type="line"/>
      <point x="360" y="1431" type="line"/>
      <point x="323" y="1528" type="line"/>
      <point x="-287" y="1528" type="line"/>
      <point x="-292" y="1516" type="line"/>
    </contour>
    <contour>
      <point x="0" y="1395" type="move" name="_abvm_nasal"/>
    </contour>
  </outline>
</glyph>
<glyph name="dUesign" format="1">
  <advance width="0"/>
  <unicode hex="0956"/>
  <outline>
    <contour>
      <point x="-407" y="-114"/>
      <point x="-419" y="-128"/>
      <point x="-419" y="-151" type="curve" smooth="yes"/>
      <point x="-419" y="-245"/>
      <point x="-225" y="-441"/>
      <point x="48" y="-441" type="curve" smooth="yes"/>
      <point x="259" y="-441"/>
      <point x="419" y="-323"/>
      <point x="419" y="-214" type="curve" smooth="yes"/>
      <point x="419" y="-167"/>
      <point x="389" y="-129"/>
      <point x="336" y="-110" type="curve"/>
      <point x="269" y="-238"/>
      <point x="140" y="-311"/>
      <point x="-7" y="-311" type="curve" smooth="yes"/>
      <point x="-151" y="-311"/>
      <point x="-292" y="-241"/>
      <point x="-393" y="-104" type="curve"/>
    </contour>
    <contour>
      <point x="0" y="-10" type="move" name="_blwm_mid"/>
    </contour>
  </outline>
</glyph>
<glyph name="dUuesign" format="1">
  <advance width="0"/>
  <unicode hex="0957"/>
  <outline>
    <contour>
      <point x="-407" y="-114"/>
      <point x="-419" y="-128"/>
      <point x="-419" y="-151" type="curve" smooth="yes"/>
      <point x="-419" y="-245"/>
      <point x="-225" y="-441"/>
      <point x="48" y="-441" type="curve" smooth="yes"/>
      <point x="259" y="-441"/>
      <point x="419" y="-323"/>
      <point x="419" y="-214" type="curve" smooth="yes"/>
      <point x="419" y="-167"/>
      <point x="389" y="-129"/>
      <point x="336" y="-110" type="curve"/>
      <point x="269" y="-238"/>
      <point x="140" y="-311"/>
      <point x="-7" y="-311" type="curve" smooth="yes"/>
      <point x="-151" y="-311"/>
      <point x="-292" y="-241"/>
      <point x="-393" y="-104" type="curve"/>
    </contour>
    <contour>
      <point x="295" y="-704"/>
      <point x="419" y="-618"/>
      <point x="419" y="-527" type="curve" smooth="yes"/>
      <point x="419" y="-493"/>
      <point x="401" y="-460"/>
      <point x="364" y="-439" type="curve"/>
      <point x="301" y="-523"/>
      <point x="196" y="-573"/>
      <point x="54" y="-573" type="curve" smooth="yes"/>
      <point x="-134" y="-573"/>
      <point x="-294" y="-486"/>
      <point x="-393" y="-354" type="curve"/>
      <point x="-408" y="-365"/>
      <point x="-419" y="-379"/>
      <point x="-419" y="-401" type="curve" smooth="yes"/>
      <point x="-419" y="-495"/>
      <point x="-209" y="-704"/>
      <point x="98" y="-704" type="curve" smooth="yes"/>
    </contour>
    <contour>
      <point x="0" y="-10" type="move" name="_blwm_mid"/>
    </contour>
  </outline>
</glyph>
<glyph name="dKhha" format="1">
  <advance width="1566"/>
  <unicode hex="0959"/>
  <outline>
    <contour>
      <point x="1358" y="1197" type="line"/>
      <point x="1616" y="1197" type="line"/>
      <point x="1622" y="1206" type="line"/>
      <point x="1566" y="1330" type="line"/>
      <point x="-50" y="1330" type="line"/>
      <point x="-56" y="1321" type="line"/>
      <point x="0" y="1197" type="line"/>
      <point x="323" y="1197" type="line"/>
      <point x="366" y="1094"/>
      <point x="383" y="993"/>
      <point x="383" y="912" type="curve" smooth="yes"/>
      <point x="383" y="844"/>
      <point x="371" y="791"/>
      <point x="340" y="751" type="curve"/>
      <point x="295" y="769"/>
      <point x="250" y="779"/>
      <point x="210" y="779" type="curve" smooth="yes"/>
      <point x="126" y="779"/>
      <point x="78" y="734"/>
      <point x="78" y="654" type="curve" smooth="yes"/>
      <point x="78" y="406"/>
      <point x="545" y="-4"/>
      <point x="831" y="-4" type="curve" smooth="yes"/>
      <point x="904" y="-4"/>
      <point x="946" y="23"/>
      <point x="963" y="86" type="curve"/>
      <point x="653" y="131"/>
      <point x="420" y="269"/>
      <point x="262" y="483" type="curve"/>
      <point x="431" y="532"/>
      <point x="517" y="652"/>
      <point x="517" y="833" type="curve" smooth="yes"/>
      <point x="517" y="954"/>
      <point x="478" y="1074"/>
      <point x="422" y="1197" type="curve"/>
      <point x="1198" y="1197" type="line"/>
      <point x="1198" y="849" type="line"/>
      <point x="1114" y="942"/>
      <point x="1019" y="986"/>
      <point x="916" y="986" type="curve" smooth="yes"/>
      <point x="750" y="986"/>
      <point x="638" y="873"/>
      <point x="638" y="717" type="curve" smooth="yes"/>
      <point x="638" y="501"/>
      <point x="855" y="316"/>
      <point x="1048" y="316" type="curve" smooth="yes"/>
      <point x="1097" y="316"/>
      <point x="1141" y="328"/>
      <point x="1198" y="362" type="curve"/>
      <point x="1198" y="19" type="line"/>
      <point x="1349" y="-19" type="line"/>
      <point x="1358" y="-12" type="line"/>
    </contour>
    <contour>
      <point x="1110" y="850"/>
      <point x="1198" y="748"/>
      <point x="1198" y="651" type="curve" smooth="yes"/>
      <point x="1198" y="615" type="line" smooth="yes"/>
      <point x="1198" y="520"/>
      <point x="1104" y="438"/>
      <point x="990" y="438" type="curve" smooth="yes"/>
      <point x="880" y="438"/>
      <point x="778" y="514"/>
      <point x="778" y="645" type="curve" smooth="yes"/>
      <point x="778" y="758"/>
      <point x="855" y="850"/>
      <point x="979" y="850" type="curve" smooth="yes"/>
    </contour>
    <contour>
      <point x="259" y="72"/>
      <point x="216" y="29"/>
      <point x="216" y="-23" type="curve" smooth="yes"/>
      <point x="216" y="-76"/>
      <point x="259" y="-119"/>
      <point x="312" y="-119" type="curve" smooth="yes"/>
      <point x="364" y="-119"/>
      <point x="407" y="-76"/>
      <point x="407" y="-23" type="curve" smooth="yes"/>
      <point x="407" y="29"/>
      <point x="364" y="72"/>
      <point x="312" y="72" type="curve" smooth="yes"/>
    </contour>
    <contour>
      <point x="1278" y="1395" type="move" name="abvm_nasal"/>
    </contour>
    <contour>
      <point x="1278" y="1325" type="move" name="abvm_matra"/>
    </contour>
    <contour>
      <point x="1278" y="1335" type="move" name="abvm_reph"/>
    </contour>
    <contour>
      <point x="783" y="1600" type="move" name="abvm_latin"/>
    </contour>
    <contour>
      <point x="1278" y="-19" type="move" name="blwm_matra"/>
    </contour>
    <contour>
      <point x="843" y="-10" type="move" name="blwm_mid"/>
    </contour>
    <contour>
      <point x="1234" y="10" type="move" name="blwm_rakar"/>
    </contour>
  </outline>
</glyph>
<glyph name="dGhha" format="1">
  <advance width="1241"/>
  <unicode hex="095A"/>
  <outline>
    <contour>
      <point x="1034" y="1197" type="line"/>
      <point x="1291" y="1197" type="line"/>
      <point x="1297" y="1206" type="line"/>
      <point x="1241" y="1330" type="line"/>
      <point x="-50" y="1330" type="line"/>
      <point x="-56" y="1321" type="line"/>
      <point x="0" y="1197" type="line"/>
      <point x="284" y="1197" type="line"/>
      <point x="284" y="666" type="line"/>
      <point x="169" y="666" type="line" smooth="yes"/>
      <point x="113" y="666"/>
      <point x="90" y="639"/>
      <point x="90" y="610" type="curve" smooth="yes"/>
      <point x="90" y="535"/>
      <point x="245" y="363"/>
      <point x="350" y="363" type="curve" smooth="yes"/>
      <point x="409" y="363"/>
      <point x="439" y="416"/>
      <point x="439" y="524" type="curve" smooth="yes"/>
      <point x="439" y="1197" type="line"/>
      <point x="874" y="1197" type="line"/>
      <point x="874" y="19" type="line"/>
      <point x="1025" y="-19" type="line"/>
      <point x="1034" y="-12" type="line"/>
    </contour>
    <contour>
      <point x="459" y="172"/>
      <point x="416" y="129"/>
      <point x="416" y="77" type="curve" smooth="yes"/>
      <point x="416" y="24"/>
      <point x="459" y="-19"/>
      <point x="512" y="-19" type="curve" smooth="yes"/>
      <point x="564" y="-19"/>
      <point x="607" y="24"/>
      <point x="607" y="77" type="curve" smooth="yes"/>
      <point x="607" y="129"/>
      <point x="564" y="172"/>
      <point x="512" y="172" type="curve" smooth="yes"/>
    </contour>
    <contour>
      <point x="954" y="1395" type="move" name="abvm_nasal"/>
    </contour>
    <contour>
      <point x="954" y="1325" type="move" name="abvm_matra"/>
    </contour>
    <contour>
      <point x="954" y="1335" type="move" name="abvm_reph"/>
    </contour>
    <contour>
      <point x="620" y="1600" type="move" name="abvm_latin"/>
    </contour>
    <contour>
      <point x="954" y="-19" type="move" name="blwm_matra"/>
    </contour>
    <contour>
      <point x="520" y="-10" type="move" name="blwm_mid"/>
    </contour>
    <contour>
      <point x="914" y="10" type="move" name="blwm_rakar"/>
    </contour>
  </outline>
</glyph>
<glyph name="dZa" format="1">
  <advance width="1423"/>
  <unicode hex="095B"/>
  <outline>
    <contour>
      <point x="1216" y="1197" type="line"/>
      <point x="1473" y="1197" type="line"/>
      <point x="1479" y="1206" type="line"/>
      <point x="1423" y="1330" type="line"/>
      <point x="-50" y="1330" type="line"/>
      <point x="-56" y="1321" type="line"/>
      <point x="0" y="1197" type="line"/>
      <point x="1056" y="1197" type="line"/>
      <point x="1056" y="923" type="line"/>
      <point x="446" y="923" type="line"/>
      <point x="440" y="914" type="line"/>
      <point x="496" y="790" type="line"/>
      <point x="633" y="790"/>
      <point x="706" y="688"/>
      <point x="706" y="578" type="curve" smooth="yes"/>
      <point x="706" y="456"/>
      <point x="617" y="389"/>
      <point x="513" y="389" type="curve" smooth="yes"/>
      <point x="352" y="389"/>
      <point x="223" y="551"/>
      <point x="173" y="923" type="curve"/>
      <point x="114" y="917"/>
      <point x="91" y="894"/>
      <point x="92" y="826" type="curve" smooth="yes"/>
      <point x="93" y="659"/>
      <point x="228" y="227"/>
      <point x="556" y="227" type="curve" smooth="yes"/>
      <point x="722" y="227"/>
      <point x="844" y="337"/>
      <point x="844" y="506" type="curve" smooth="yes"/>
      <point x="844" y="601"/>
      <point x="806" y="699"/>
      <point x="723" y="790" type="curve"/>
      <point x="1056" y="790" type="line"/>
      <point x="1056" y="19" type="line"/>
      <point x="1207" y="-19" type="line"/>
      <point x="1216" y="-12" type="line"/>
    </contour>
    <contour>
      <point x="481" y="52"/>
      <point x="438" y="9"/>
      <point x="438" y="-43" type="curve" smooth="yes"/>
      <point x="438" y="-96"/>
      <point x="481" y="-139"/>
      <point x="534" y="-139" type="curve" smooth="yes"/>
      <point x="586" y="-139"/>
      <point x="629" y="-96"/>
      <point x="629" y="-43" type="curve" smooth="yes"/>
      <point x="629" y="9"/>
      <point x="586" y="52"/>
      <point x="534" y="52" type="curve" smooth="yes"/>
    </contour>
    <contour>
      <point x="1136.0" y="1395.0" type="move" name="abvm_nasal"/>
    </contour>
    <contour>
      <point x="1136.0" y="1325.0" type="move" name="abvm_matra"/>
    </contour>
    <contour>
      <point x="1136.0" y="1335.0" type="move" name="abvm_reph"/>
    </contour>
    <contour>
      <point x="712.0" y="1600.0" type="move" name="abvm_latin"/>
    </contour>
    <contour>
      <point x="1136.0" y="-19.0" type="move" name="blwm_matra"/>
    </contour>
    <contour>
      <point x="712.0" y="-10.0" type="move" name="blwm_mid"/>
    </contour>
    <contour>
      <point x="1099" y="10" type="move" name="blwm_rakar"/>
    </contour>
  </outline>
</glyph>
<glyph name="dRha" format="1">
  <advance width="1058"/>
  <unicode hex="095D"/>
  <outline>
    <contour>
      <point x="842" y="1197" type="line"/>
      <point x="1108" y="1197" type="line"/>
      <point x="1114" y="1206" type="line"/>
      <point x="1058" y="1330" type="line"/>
      <point x="-50" y="1330" type="line"/>
      <point x="-56" y="1321" type="line"/>
      <point x="0" y="1197" type="line"/>
      <point x="688" y="1197" type="line"/>
      <point x="688" y="984" type="line" smooth="yes"/>
      <point x="688" y="979"/>
      <point x="685" y="976"/>
      <point x="680" y="976" type="curve" smooth="yes"/>
      <point x="562" y="976" type="line" smooth="yes"/>
      <point x="271" y="976"/>
      <point x="107" y="807"/>
      <point x="107" y="593" type="curve" smooth="yes"/>
      <point x="107" y="329"/>
      <point x="354" y="61"/>
      <point x="642" y="61" type="curve" smooth="yes"/>
      <point x="845" y="61"/>
      <point x="1002" y="194"/>
      <point x="1002" y="372" type="curve" smooth="yes"/>
      <point x="1002" y="524"/>
      <point x="887" y="655"/>
      <point x="739" y="655" type="curve" smooth="yes"/>
      <point x="630" y="655"/>
      <point x="549" y="583"/>
      <point x="549" y="462" type="curve" smooth="yes"/>
      <point x="549" y="382"/>
      <point x="585" y="303"/>
      <point x="684" y="203" type="curve"/>
      <point x="651" y="195"/>
      <point x="615" y="192"/>
      <point x="585" y="192" type="curve" smooth="yes"/>
      <point x="368" y="192"/>
      <point x="249" y="353"/>
      <point x="249" y="519" type="curve" smooth="yes"/>
      <point x="249" y="696"/>
      <point x="384" y="829"/>
      <point x="613" y="829" type="curve" smooth="yes"/>
      <point x="834" y="829" type="line"/>
      <point x="842" y="837" type="line"/>
    </contour>
    <contour>
      <point x="858" y="531"/>
      <point x="901" y="489"/>
      <point x="901" y="425" type="curve" smooth="yes"/>
      <point x="901" y="352"/>
      <point x="846" y="278"/>
      <point x="760" y="234" type="curve"/>
      <point x="708" y="299"/>
      <point x="687" y="354"/>
      <point x="687" y="402" type="curve" smooth="yes"/>
      <point x="687" y="477"/>
      <point x="740" y="531"/>
      <point x="803" y="531" type="curve" smooth="yes"/>
    </contour>
    <contour>
      <point x="549" y="-28"/>
      <point x="506" y="-71"/>
      <point x="506" y="-123" type="curve" smooth="yes"/>
      <point x="506" y="-176"/>
      <point x="549" y="-219"/>
      <point x="602" y="-219" type="curve" smooth="yes"/>
      <point x="654" y="-219"/>
      <point x="697" y="-176"/>
      <point x="697" y="-123" type="curve" smooth="yes"/>
      <point x="697" y="-71"/>
      <point x="654" y="-28"/>
      <point x="602" y="-28" type="curve" smooth="yes"/>
    </contour>
    <contour>
      <point x="762.0" y="1395.0" type="move" name="abvm_nasal"/>
    </contour>
    <contour>
      <point x="762.0" y="1325.0" type="move" name="abvm_matra"/>
    </contour>
    <contour>
      <point x="762.0" y="1335.0" type="move" name="abvm_reph"/>
    </contour>
    <contour>
      <point x="529.0" y="1600.0" type="move" name="abvm_latin"/>
    </contour>
    <contour>
      <point x="762.0" y="-19.0" type="move" name="blwm_matra"/>
    </contour>
    <contour>
      <point x="529.0" y="-10.0" type="move" name="blwm_mid"/>
    </contour>
    <contour>
      <point x="529.0" y="10.0" type="move" name="blwm_rakar"/>
    </contour>
  </outline>
</glyph>
<glyph name="dFa" format="1">
  <advance width="1480"/>
  <unicode hex="095E"/>
  <outline>
    <contour>
      <point x="1396" y="811"/>
      <point x="1239" y="942"/>
      <point x="1065" y="942" type="curve" smooth="yes"/>
      <point x="981" y="942"/>
      <point x="908" y="912"/>
      <point x="844" y="849" type="curve"/>
      <point x="844" y="1197" type="line"/>
      <point x="1530" y="1197" type="line"/>
      <point x="1536" y="1206" type="line"/>
      <point x="1480" y="1330" type="line"/>
      <point x="-50" y="1330" type="line"/>
      <point x="-56" y="1321" type="line"/>
      <point x="0" y="1197" type="line"/>
      <point x="129" y="1197" type="line"/>
      <point x="129" y="745" type="line" smooth="yes"/>
      <point x="129" y="536"/>
      <point x="304" y="361"/>
      <point x="494" y="361" type="curve" smooth="yes"/>
      <point x="553" y="361"/>
      <point x="617" y="378"/>
      <point x="684" y="417" type="curve"/>
      <point x="684" y="19" type="line"/>
      <point x="835" y="-19" type="line"/>
      <point x="844" y="-12" type="line"/>
      <point x="844" y="518" type="line" smooth="yes"/>
      <point x="844" y="694"/>
      <point x="1003" y="815"/>
      <point x="1128" y="815" type="curve" smooth="yes"/>
      <point x="1216" y="815"/>
      <point x="1271" y="755"/>
      <point x="1271" y="647" type="curve" smooth="yes"/>
      <point x="1271" y="521"/>
      <point x="1196" y="386"/>
      <point x="1060" y="317" type="curve"/>
      <point x="1091" y="266"/>
      <point x="1143" y="230"/>
      <point x="1195" y="230" type="curve" smooth="yes"/>
      <point x="1290" y="230"/>
      <point x="1396" y="349"/>
      <point x="1396" y="557" type="curve" smooth="yes"/>
    </contour>
    <contour>
      <point x="289" y="1197" type="line"/>
      <point x="684" y="1197" type="line"/>
      <point x="684" y="720" type="line" smooth="yes"/>
      <point x="684" y="588"/>
      <point x="558" y="483"/>
      <point x="435" y="483" type="curve" smooth="yes"/>
      <point x="342" y="483"/>
      <point x="289" y="543"/>
      <point x="289" y="660" type="curve" smooth="yes"/>
    </contour>
    <contour>
      <point x="309" y="172"/>
      <point x="266" y="129"/>
      <point x="266" y="77" type="curve" smooth="yes"/>
      <point x="266" y="24"/>
      <point x="309" y="-19"/>
      <point x="362" y="-19" type="curve" smooth="yes"/>
      <point x="414" y="-19"/>
      <point x="457" y="24"/>
      <point x="457" y="77" type="curve" smooth="yes"/>
      <point x="457" y="129"/>
      <point x="414" y="172"/>
      <point x="362" y="172" type="curve" smooth="yes"/>
    </contour>
    <contour>
      <point x="764" y="1395" type="move" name="abvm_nasal"/>
    </contour>
    <contour>
      <point x="764" y="1325" type="move" name="abvm_matra"/>
    </contour>
    <contour>
      <point x="764" y="1335" type="move" name="abvm_reph"/>
    </contour>
    <contour>
      <point x="740" y="1600" type="move" name="abvm_latin"/>
    </contour>
    <contour>
      <point x="764" y="-19" type="move" name="blwm_matra"/>
    </contour>
    <contour>
      <point x="740" y="-10" type="move" name="blwm_mid"/>
    </contour>
    <contour>
      <point x="740" y="10" type="move" name="blwm_rakar"/>
    </contour>
    <contour>
      <point x="0" y="-23" type="move" name="blwm_nukta"/>
    </contour>
  </outline>
</glyph>
<glyph name="dLvocalicsign" format="1">
  <advance width="0"/>
  <unicode hex="0962"/>
  <outline>
    <contour>
      <point x="-496" y="-70"/>
      <point x="-566" y="-148"/>
      <point x="-566" y="-257" type="curve" smooth="yes"/>
      <point x="-566" y="-444"/>
      <point x="-357" y="-637"/>
      <point x="-286" y="-637" type="curve" smooth="yes"/>
      <point x="-266" y="-637"/>
      <point x="-246" y="-622"/>
      <point x="-240" y="-601" type="curve"/>
      <point x="-379" y="-510"/>
      <point x="-459" y="-380"/>
      <point x="-459" y="-291" type="curve" smooth="yes"/>
      <point x="-459" y="-222"/>
      <point x="-412" y="-175"/>
      <point x="-343" y="-175" type="curve" smooth="yes"/>
      <point x="-303" y="-175"/>
      <point x="-261" y="-191"/>
      <point x="-219" y="-224" type="curve"/>
      <point x="-240" y="-264"/>
      <point x="-256" y="-316"/>
      <point x="-265" y="-380" type="curve"/>
      <point x="-167" y="-431" type="line"/>
      <point x="-156" y="-425" type="line"/>
      <point x="-123" y="-219"/>
      <point x="-22" y="-176"/>
      <point x="42" y="-176" type="curve" smooth="yes"/>
      <point x="90" y="-176"/>
      <point x="120" y="-200"/>
      <point x="120" y="-252" type="curve" smooth="yes"/>
      <point x="120" y="-309"/>
      <point x="83" y="-359"/>
      <point x="21" y="-431" type="curve" smooth="yes"/>
      <point x="-27" y="-487"/>
      <point x="-80" y="-547"/>
      <point x="-80" y="-603" type="curve" smooth="yes"/>
      <point x="-80" y="-678"/>
      <point x="13" y="-772"/>
      <point x="123" y="-772" type="curve" smooth="yes"/>
      <point x="204" y="-772"/>
      <point x="270" y="-721"/>
      <point x="270" y="-669" type="curve" smooth="yes"/>
      <point x="270" y="-632"/>
      <point x="236" y="-600"/>
      <point x="207" y="-590" type="curve"/>
      <point x="173" y="-655"/>
      <point x="102" y="-688"/>
      <point x="57" y="-688" type="curve" smooth="yes"/>
      <point x="31" y="-688"/>
      <point x="15" y="-676"/>
      <point x="15" y="-655" type="curve" smooth="yes"/>
      <point x="15" y="-614"/>
      <point x="74" y="-561"/>
      <point x="135" y="-486" type="curve" smooth="yes"/>
      <point x="197" y="-410"/>
      <point x="210" y="-371"/>
      <point x="210" y="-320" type="curve" smooth="yes"/>
      <point x="210" y="-178"/>
      <point x="108" y="-80"/>
      <point x="-5" y="-80" type="curve" smooth="yes"/>
      <point x="-53" y="-80"/>
      <point x="-124" y="-98"/>
      <point x="-179" y="-163" type="curve"/>
      <point x="-255" y="-93"/>
      <point x="-316" y="-70"/>
      <point x="-379" y="-70" type="curve" smooth="yes"/>
    </contour>
    <contour>
      <point x="0.0" y="-19.0" type="move" name="_blwm_matra"/>
    </contour>
  </outline>
</glyph>
<glyph name="dLlvocalicsign" format="1">
  <advance width="0"/>
  <unicode hex="0963"/>
  <outline>
    <contour>
      <point x="-496" y="-70"/>
      <point x="-566" y="-148"/>
      <point x="-566" y="-257" type="curve" smooth="yes"/>
      <point x="-566" y="-444"/>
      <point x="-357" y="-637"/>
      <point x="-286" y="-637" type="curve" smooth="yes"/>
      <point x="-266" y="-637"/>
      <point x="-246" y="-622"/>
      <point x="-240" y="-601" type="curve"/>
      <point x="-379" y="-510"/>
      <point x="-459" y="-380"/>
      <point x="-459" y="-291" type="curve" smooth="yes"/>
      <point x="-459" y="-222"/>
      <point x="-412" y="-175"/>
      <point x="-343" y="-175" type="curve" smooth="yes"/>
      <point x="-303" y="-175"/>
      <point x="-261" y="-191"/>
      <point x="-219" y="-224" type="curve"/>
      <point x="-240" y="-264"/>
      <point x="-256" y="-316"/>
      <point x="-265" y="-380" type="curve"/>
      <point x="-166" y="-421" type="line"/>
      <point x="-156" y="-415" type="line"/>
      <point x="-123" y="-217"/>
      <point x="-22" y="-176"/>
      <point x="42" y="-176" type="curve" smooth="yes"/>
      <point x="90" y="-176"/>
      <point x="120" y="-200"/>
      <point x="120" y="-251" type="curve" smooth="yes"/>
      <point x="120" y="-318"/>
      <point x="68" y="-354"/>
      <point x="1" y="-411" type="curve" smooth="yes"/>
      <point x="-70" y="-471"/>
      <point x="-100" y="-508"/>
      <point x="-100" y="-561" type="curve" smooth="yes"/>
      <point x="-100" y="-624"/>
      <point x="-59" y="-672"/>
      <point x="-2" y="-699" type="curve"/>
      <point x="-20" y="-727"/>
      <point x="-24" y="-745"/>
      <point x="-24" y="-762" type="curve" smooth="yes"/>
      <point x="-24" y="-839"/>
      <point x="63" y="-936"/>
      <point x="178" y="-936" type="curve" smooth="yes"/>
      <point x="258" y="-936"/>
      <point x="325" y="-889"/>
      <point x="325" y="-837" type="curve" smooth="yes"/>
      <point x="325" y="-809"/>
      <point x="305" y="-779"/>
      <point x="275" y="-762" type="curve"/>
      <point x="242" y="-823"/>
      <point x="170" y="-852"/>
      <point x="124" y="-852" type="curve" smooth="yes"/>
      <point x="89" y="-852"/>
      <point x="64" y="-835"/>
      <point x="64" y="-806" type="curve" smooth="yes"/>
      <point x="64" y="-775"/>
      <point x="91" y="-733"/>
      <point x="228" y="-672" type="curve"/>
      <point x="232" y="-661" type="line"/>
      <point x="179" y="-582" type="line"/>
      <point x="106" y="-630"/>
      <point x="65" y="-650"/>
      <point x="35" y="-650" type="curve" smooth="yes"/>
      <point x="5" y="-650"/>
      <point x="-5" y="-630"/>
      <point x="-5" y="-611" type="curve" smooth="yes"/>
      <point x="-5" y="-559"/>
      <point x="69" y="-506"/>
      <point x="115" y="-466" type="curve" smooth="yes"/>
      <point x="180" y="-410"/>
      <point x="210" y="-363"/>
      <point x="210" y="-297" type="curve" smooth="yes"/>
      <point x="210" y="-176"/>
      <point x="108" y="-80"/>
      <point x="-5" y="-80" type="curve" smooth="yes"/>
      <point x="-53" y="-80"/>
      <point x="-124" y="-98"/>
      <point x="-179" y="-163" type="curve"/>
      <point x="-255" y="-93"/>
      <point x="-316" y="-70"/>
      <point x="-379" y="-70" type="curve" smooth="yes"/>
    </contour>
    <contour>
      <point x="0" y="-19" type="move" name="_blwm_matra"/>
    </contour>
  </outline>
</glyph>
<glyph name="dOne" format="1">
  <advance width="809"/>
  <unicode hex="0967"/>
  <outline>
    <contour>
      <point x="509" y="205"/>
      <point x="397" y="289"/>
      <point x="324" y="340" type="curve"/>
      <point x="592" y="595"/>
      <point x="714" y="744"/>
      <point x="714" y="915" type="curve" smooth="yes"/>
      <point x="714" y="1110"/>
      <point x="557" y="1277"/>
      <point x="376" y="1277" type="curve" smooth="yes"/>
      <point x="238" y="1277"/>
      <point x="120" y="1179"/>
      <point x="120" y="1026" type="curve" smooth="yes"/>
      <point x="120" y="859"/>
      <point x="259" y="747"/>
      <point x="411" y="665" type="curve"/>
      <point x="343" y="589"/>
      <point x="246" y="495"/>
      <point x="125" y="382" type="curve"/>
      <point x="124" y="372" type="line"/>
      <point x="262" y="265"/>
      <point x="344" y="205"/>
      <point x="497" y="80" type="curve" smooth="yes"/>
      <point x="576" y="15"/>
      <point x="592" y="1"/>
      <point x="592" y="-29" type="curve" smooth="yes"/>
      <point x="592" y="-65"/>
      <point x="570" y="-110"/>
      <point x="509" y="-147" type="curve"/>
      <point x="533" y="-199"/>
      <point x="585" y="-237"/>
      <point x="634" y="-237" type="curve" smooth="yes"/>
      <point x="698" y="-237"/>
      <point x="749" y="-173"/>
      <point x="749" y="-92" type="curve" smooth="yes"/>
      <point x="749" y="-23"/>
      <point x="713" y="40"/>
      <point x="577" y="150" type="curve" smooth="yes"/>
    </contour>
    <contour>
      <point x="280" y="1081"/>
      <point x="346" y="1152"/>
      <point x="435" y="1152" type="curve" smooth="yes"/>
      <point x="516" y="1152"/>
      <point x="578" y="1093"/>
      <point x="578" y="982" type="curve" smooth="yes"/>
      <point x="578" y="906"/>
      <point x="549" y="832"/>
      <point x="470" y="732" type="curve"/>
      <point x="326" y="815"/>
      <point x="280" y="900"/>
      <point x="280" y="982" type="curve" smooth="yes"/>
    </contour>
  </outline>
</glyph>
<glyph name="dThree" format="1">
  <advance width="945"/>
  <unicode hex="0969"/>
  <outline>
    <contour>
      <point x="767" y="-72"/>
      <point x="733" y="-83"/>
      <point x="685" y="-83" type="curve" smooth="yes"/>
      <point x="594" y="-83"/>
      <point x="552" y="-43"/>
      <point x="494" y="72" type="curve"/>
      <point x="756" y="89"/>
      <point x="885" y="221"/>
      <point x="885" y="375" type="curve" smooth="yes"/>
      <point x="885" y="490"/>
      <point x="813" y="603"/>
      <point x="703" y="677" type="curve"/>
      <point x="809" y="743"/>
      <point x="852" y="819"/>
      <point x="852" y="921" type="curve" smooth="yes"/>
      <point x="852" y="1120"/>
      <point x="688" y="1275"/>
      <point x="446" y="1275" type="curve" smooth="yes"/>
      <point x="242" y="1275"/>
      <point x="130" y="1164"/>
      <point x="130" y="1058" type="curve" smooth="yes"/>
      <point x="130" y="984"/>
      <point x="186" y="937"/>
      <point x="276" y="937" type="curve"/>
      <point x="276" y="1067"/>
      <point x="362" y="1164"/>
      <point x="509" y="1164" type="curve" smooth="yes"/>
      <point x="628" y="1164"/>
      <point x="711" y="1101"/>
      <point x="711" y="993" type="curve" smooth="yes"/>
      <point x="711" y="858"/>
      <point x="583" y="763"/>
      <point x="271" y="749" type="curve"/>
      <point x="265" y="739" type="line"/>
      <point x="346" y="582" type="line"/>
      <point x="446" y="592"/>
      <point x="531" y="609"/>
      <point x="601" y="633" type="curve"/>
      <point x="702" y="586"/>
      <point x="740" y="513"/>
      <point x="740" y="443" type="curve" smooth="yes"/>
      <point x="740" y="333"/>
      <point x="647" y="239"/>
      <point x="447" y="224" type="curve"/>
      <point x="412" y="319"/>
      <point x="348" y="376"/>
      <point x="272" y="376" type="curve" smooth="yes"/>
      <point x="197" y="376"/>
      <point x="148" y="321"/>
      <point x="148" y="252" type="curve" smooth="yes"/>
      <point x="148" y="154"/>
      <point x="249" y="63"/>
      <point x="407" y="64" type="curve"/>
      <point x="503" y="-163"/>
      <point x="617" y="-256"/>
      <point x="727" y="-256" type="curve" smooth="yes"/>
      <point x="806" y="-256"/>
      <point x="858" y="-209"/>
      <point x="858" y="-147" type="curve" smooth="yes"/>
      <point x="858" y="-111"/>
      <point x="841" y="-72"/>
      <point x="813" y="-47" type="curve"/>
    </contour>
  </outline>
</glyph>
<glyph name="dSix" format="1">
  <advance width="981"/>
  <unicode hex="096C"/>
  <outline>
    <contour>
      <point x="861" y="232"/>
      <point x="888" y="285"/>
      <point x="888" y="339" type="curve" smooth="yes"/>
      <point x="888" y="420"/>
      <point x="827" y="499"/>
      <point x="739" y="499" type="curve" smooth="yes"/>
      <point x="662" y="499"/>
      <point x="607" y="438"/>
      <point x="607" y="363" type="curve" smooth="yes"/>
      <point x="607" y="326"/>
      <point x="620" y="295"/>
      <point x="646" y="259" type="curve"/>
      <point x="600" y="231"/>
      <point x="541" y="219"/>
      <point x="492" y="219" type="curve" smooth="yes"/>
      <point x="377" y="219"/>
      <point x="275" y="285"/>
      <point x="275" y="403" type="curve" smooth="yes"/>
      <point x="275" y="514"/>
      <point x="366" y="638"/>
      <point x="727" y="669" type="curve"/>
      <point x="731" y="679" type="line"/>
      <point x="640" y="818" type="line"/>
      <point x="545" y="811"/>
      <point x="463" y="794"/>
      <point x="393" y="767" type="curve"/>
      <point x="317" y="814"/>
      <point x="286" y="869"/>
      <point x="286" y="930" type="curve" smooth="yes"/>
      <point x="286" y="1032"/>
      <point x="372" y="1123"/>
      <point x="540" y="1123" type="curve" smooth="yes"/>
      <point x="606" y="1123"/>
      <point x="677" y="1109"/>
      <point x="699" y="1102" type="curve"/>
      <point x="680" y="1221"/>
      <point x="615" y="1278"/>
      <point x="475" y="1278" type="curve" smooth="yes"/>
      <point x="269" y="1278"/>
      <point x="140" y="1154"/>
      <point x="140" y="993" type="curve" smooth="yes"/>
      <point x="140" y="883"/>
      <point x="200" y="793"/>
      <point x="299" y="722" type="curve"/>
      <point x="198" y="656"/>
      <point x="143" y="571"/>
      <point x="143" y="470" type="curve" smooth="yes"/>
      <point x="143" y="285"/>
      <point x="325" y="91"/>
      <point x="555" y="91" type="curve" smooth="yes"/>
      <point x="627" y="91"/>
      <point x="696" y="110"/>
      <point x="752" y="141" type="curve"/>
      <point x="808" y="79"/>
      <point x="820" y="51"/>
      <point x="820" y="22" type="curve" smooth="yes"/>
      <point x="820" y="-23"/>
      <point x="792" y="-61"/>
      <point x="702" y="-77" type="curve"/>
      <point x="733" y="-176"/>
      <point x="782" y="-203"/>
      <point x="832" y="-203" type="curve" smooth="yes"/>
      <point x="899" y="-203"/>
      <point x="952" y="-154"/>
      <point x="952" y="-72" type="curve" smooth="yes"/>
      <point x="952" y="-9"/>
      <point x="920" y="68"/>
      <point x="820" y="192" type="curve"/>
    </contour>
  </outline>
</glyph>
<glyph name="dSeven" format="1">
  <advance width="1035"/>
  <unicode hex="096D"/>
  <outline>
    <contour>
      <point x="505" y="1183"/>
      <point x="392" y="1096"/>
      <point x="392" y="938" type="curve" smooth="yes"/>
      <point x="392" y="726"/>
      <point x="594" y="515"/>
      <point x="848" y="506" type="curve"/>
      <point x="806" y="369"/>
      <point x="713" y="297"/>
      <point x="592" y="297" type="curve" smooth="yes"/>
      <point x="364" y="297"/>
      <point x="162" y="556"/>
      <point x="124" y="1240" type="curve"/>
      <point x="38" y="1240"/>
      <point x="28" y="1180"/>
      <point x="28" y="1084" type="curve" smooth="yes"/>
      <point x="28" y="625"/>
      <point x="256" y="135"/>
      <point x="640" y="135" type="curve" smooth="yes"/>
      <point x="850" y="135"/>
      <point x="995" y="282"/>
      <point x="995" y="592" type="curve" smooth="yes"/>
      <point x="995" y="922"/>
      <point x="831" y="1183"/>
      <point x="624" y="1183" type="curve" smooth="yes"/>
    </contour>
    <contour>
      <point x="535" y="992"/>
      <point x="611" y="1047"/>
      <point x="678" y="1047" type="curve" smooth="yes"/>
      <point x="792" y="1047"/>
      <point x="871" y="890"/>
      <point x="871" y="679" type="curve" smooth="yes"/>
      <point x="871" y="655"/>
      <point x="870" y="625"/>
      <point x="867" y="601" type="curve"/>
      <point x="667" y="610"/>
      <point x="535" y="716"/>
      <point x="535" y="873" type="curve" smooth="yes"/>
    </contour>
  </outline>
</glyph>
<glyph name="dNine" format="1">
  <advance width="865"/>
  <unicode hex="096F"/>
  <outline>
    <contour>
      <point x="576" y="409"/>
      <point x="463" y="541"/>
      <point x="422" y="589" type="curve"/>
      <point x="637" y="600"/>
      <point x="750" y="718"/>
      <point x="750" y="887" type="curve" smooth="yes"/>
      <point x="750" y="1101"/>
      <point x="570" y="1270"/>
      <point x="362" y="1270" type="curve" smooth="yes"/>
      <point x="192" y="1270"/>
      <point x="80" y="1158"/>
      <point x="80" y="989" type="curve" smooth="yes"/>
      <point x="80" y="842"/>
      <point x="165" y="733"/>
      <point x="316" y="560" type="curve" smooth="yes"/>
      <point x="479" y="374"/>
      <point x="583" y="266"/>
      <point x="583" y="174" type="curve" smooth="yes"/>
      <point x="583" y="107"/>
      <point x="529" y="65"/>
      <point x="463" y="39" type="curve"/>
      <point x="497" y="-37"/>
      <point x="540" y="-69"/>
      <point x="592" y="-69" type="curve" smooth="yes"/>
      <point x="663" y="-69"/>
      <point x="735" y="-9"/>
      <point x="735" y="102" type="curve" smooth="yes"/>
      <point x="735" y="173"/>
      <point x="705" y="236"/>
      <point x="637" y="327" type="curve" smooth="yes"/>
    </contour>
    <contour>
      <point x="544" y="1141"/>
      <point x="623" y="1059"/>
      <point x="623" y="946" type="curve" smooth="yes"/>
      <point x="623" y="816"/>
      <point x="518" y="731"/>
      <point x="307" y="724" type="curve"/>
      <point x="256" y="791"/>
      <point x="232" y="850"/>
      <point x="232" y="924" type="curve" smooth="yes"/>
      <point x="232" y="1071"/>
      <point x="325" y="1141"/>
      <point x="430" y="1141" type="curve" smooth="yes"/>
    </contour>
  </outline>
</glyph>
<glyph name="dAbbsign" format="1">
  <advance width="1038"/>
  <unicode hex="0970"/>
  <outline>
    <contour>
      <point x="878" y="1139"/>
      <point x="701" y="1326"/>
      <point x="483" y="1326" type="curve" smooth="yes"/>
      <point x="300" y="1326"/>
      <point x="160" y="1195"/>
      <point x="160" y="1027" type="curve" smooth="yes"/>
      <point x="160" y="832"/>
      <point x="349" y="646"/>
      <point x="565" y="646" type="curve" smooth="yes"/>
      <point x="738" y="646"/>
      <point x="878" y="765"/>
      <point x="878" y="941" type="curve" smooth="yes"/>
    </contour>
    <contour>
      <point x="657" y="1195"/>
      <point x="747" y="1122"/>
      <point x="747" y="998" type="curve" smooth="yes"/>
      <point x="747" y="861"/>
      <point x="637" y="773"/>
      <point x="509" y="773" type="curve" smooth="yes"/>
      <point x="384" y="773"/>
      <point x="292" y="858"/>
      <point x="292" y="975" type="curve" smooth="yes"/>
      <point x="292" y="1099"/>
      <point x="394" y="1195"/>
      <point x="535" y="1195" type="curve" smooth="yes"/>
    </contour>
  </outline>
</glyph>
<glyph name="dAw" format="1">
  <advance width="2033"/>
  <unicode hex="0975"/>
  <outline>
    <contour>
      <point x="2089" y="1206" type="line"/>
      <point x="2033" y="1330" type="line"/>
      <point x="1820" y="1330" type="line"/>
      <point x="1781" y="1727"/>
      <point x="1678" y="1768"/>
      <point x="1364" y="1860" type="curve" smooth="yes"/>
      <point x="1195" y="1910"/>
      <point x="1114" y="1928"/>
      <point x="1074" y="2033" type="curve"/>
      <point x="1059" y="2010"/>
      <point x="1051" y="1979"/>
      <point x="1051" y="1945" type="curve" smooth="yes"/>
      <point x="1051" y="1795"/>
      <point x="1201" y="1760"/>
      <point x="1414" y="1711" type="curve" smooth="yes"/>
      <point x="1606" y="1667"/>
      <point x="1688" y="1633"/>
      <point x="1721" y="1499" type="curve"/>
      <point x="1711" y="1494" type="line"/>
      <point x="1631" y="1597"/>
      <point x="1557" y="1604"/>
      <point x="1266" y="1631" type="curve" smooth="yes"/>
      <point x="1017" y="1654"/>
      <point x="902" y="1688"/>
      <point x="835" y="1826" type="curve"/>
      <point x="824" y="1804"/>
      <point x="817" y="1782"/>
      <point x="817" y="1748" type="curve" smooth="yes"/>
      <point x="817" y="1578"/>
      <point x="998" y="1506"/>
      <point x="1322" y="1488" type="curve" smooth="yes"/>
      <point x="1597" y="1473"/>
      <point x="1689" y="1467"/>
      <point x="1689" y="1392" type="curve" smooth="yes"/>
      <point x="1689" y="1379"/>
      <point x="1686" y="1354"/>
      <point x="1679" y="1330" type="curve"/>
      <point x="969" y="1330" type="line"/>
      <point x="963" y="1321" type="line"/>
      <point x="1019" y="1197" type="line"/>
      <point x="1182" y="1197" type="line"/>
      <point x="1182" y="907" type="line" smooth="yes"/>
      <point x="1182" y="770"/>
      <point x="1085" y="696"/>
      <point x="957" y="696" type="curve" smooth="yes"/>
      <point x="903" y="696"/>
      <point x="840" y="709"/>
      <point x="780" y="740" type="curve"/>
      <point x="860" y="809"/>
      <point x="892" y="878"/>
      <point x="892" y="970" type="curve" smooth="yes"/>
      <point x="892" y="1182"/>
      <point x="724" y="1335"/>
      <point x="481" y="1335" type="curve" smooth="yes"/>
      <point x="284" y="1335"/>
      <point x="177" y="1234"/>
      <point x="177" y="1136" type="curve" smooth="yes"/>
      <point x="177" y="1065"/>
      <point x="234" y="1017"/>
      <point x="323" y="1017" type="curve"/>
      <point x="323" y="1135"/>
      <point x="407" y="1224"/>
      <point x="547" y="1224" type="curve" smooth="yes"/>
      <point x="665" y="1224"/>
      <point x="746" y="1161"/>
      <point x="746" y="1039" type="curve" smooth="yes"/>
      <point x="746" y="898"/>
      <point x="638" y="812"/>
      <point x="388" y="799" type="curve"/>
      <point x="382" y="789" type="line"/>
      <point x="463" y="632" type="line"/>
      <point x="548" y="642"/>
      <point x="620" y="659"/>
      <point x="679" y="683" type="curve"/>
      <point x="768" y="644"/>
      <point x="827" y="550"/>
      <point x="827" y="448" type="curve" smooth="yes"/>
      <point x="827" y="317"/>
      <point x="730" y="224"/>
      <point x="578" y="224" type="curve" smooth="yes"/>
      <point x="379" y="224"/>
      <point x="207" y="385"/>
      <point x="154" y="756" type="curve"/>
      <point x="107" y="752"/>
      <point x="80" y="735"/>
      <point x="80" y="664" type="curve" smooth="yes"/>
      <point x="80" y="489"/>
      <point x="245" y="62"/>
      <point x="621" y="62" type="curve" smooth="yes"/>
      <point x="833" y="62"/>
      <point x="962" y="198"/>
      <point x="962" y="383" type="curve" smooth="yes"/>
      <point x="962" y="460"/>
      <point x="940" y="531"/>
      <point x="899" y="600" type="curve"/>
      <point x="948" y="582"/>
      <point x="999" y="573"/>
      <point x="1045" y="573" type="curve" smooth="yes"/>
      <point x="1090" y="573"/>
      <point x="1133" y="582"/>
      <point x="1182" y="605" type="curve"/>
      <point x="1182" y="19" type="line"/>
      <point x="1333" y="-19" type="line"/>
      <point x="1342" y="-12" type="line"/>
      <point x="1342" y="1197" type="line"/>
      <point x="1665" y="1197" type="line"/>
      <point x="1665" y="19" type="line"/>
      <point x="1816" y="-19" type="line"/>
      <point x="1825" y="-12" type="line"/>
      <point x="1825" y="1197" type="line"/>
      <point x="2083" y="1197" type="line"/>
    </contour>
    <contour>
      <point x="1745" y="1395" type="move" name="abvm_nasal"/>
    </contour>
    <contour>
      <point x="1745" y="1325" type="move" name="abvm_matra"/>
    </contour>
    <contour>
      <point x="1745" y="1335" type="move" name="abvm_reph"/>
    </contour>
    <contour>
      <point x="1016" y="1600" type="move" name="abvm_latin"/>
    </contour>
    <contour>
      <point x="1745" y="-19" type="move" name="blwm_matra"/>
    </contour>
    <contour>
      <point x="1016" y="-10" type="move" name="blwm_mid"/>
    </contour>
    <contour>
      <point x="1016" y="10" type="move" name="blwm_rakar"/>
    </contour>
    <contour>
      <point x="0" y="-23" type="move" name="blwm_nukta"/>
    </contour>
  </outline>
</glyph>
<glyph name="dUue" format="1">
  <advance width="2033"/>
  <unicode hex="0977"/>
  <outline>
    <contour>
      <point x="2089" y="1206" type="line"/>
      <point x="2033" y="1330" type="line"/>
      <point x="969" y="1330" type="line"/>
      <point x="963" y="1321" type="line"/>
      <point x="1019" y="1197" type="line"/>
      <point x="1182" y="1197" type="line"/>
      <point x="1182" y="907" type="line" smooth="yes"/>
      <point x="1182" y="770"/>
      <point x="1085" y="696"/>
      <point x="957" y="696" type="curve" smooth="yes"/>
      <point x="903" y="696"/>
      <point x="840" y="709"/>
      <point x="780" y="740" type="curve"/>
      <point x="860" y="809"/>
      <point x="892" y="878"/>
      <point x="892" y="970" type="curve" smooth="yes"/>
      <point x="892" y="1182"/>
      <point x="724" y="1335"/>
      <point x="481" y="1335" type="curve" smooth="yes"/>
      <point x="284" y="1335"/>
      <point x="177" y="1234"/>
      <point x="177" y="1136" type="curve" smooth="yes"/>
      <point x="177" y="1065"/>
      <point x="234" y="1017"/>
      <point x="323" y="1017" type="curve"/>
      <point x="323" y="1135"/>
      <point x="407" y="1224"/>
      <point x="547" y="1224" type="curve" smooth="yes"/>
      <point x="665" y="1224"/>
      <point x="746" y="1161"/>
      <point x="746" y="1039" type="curve" smooth="yes"/>
      <point x="746" y="898"/>
      <point x="638" y="812"/>
      <point x="388" y="799" type="curve"/>
      <point x="382" y="789" type="line"/>
      <point x="463" y="632" type="line"/>
      <point x="548" y="642"/>
      <point x="620" y="659"/>
      <point x="679" y="683" type="curve"/>
      <point x="768" y="644"/>
      <point x="827" y="550"/>
      <point x="827" y="448" type="curve" smooth="yes"/>
      <point x="827" y="317"/>
      <point x="730" y="224"/>
      <point x="578" y="224" type="curve" smooth="yes"/>
      <point x="379" y="224"/>
      <point x="207" y="385"/>
      <point x="154" y="756" type="curve"/>
      <point x="107" y="752"/>
      <point x="80" y="735"/>
      <point x="80" y="664" type="curve" smooth="yes"/>
      <point x="80" y="489"/>
      <point x="245" y="62"/>
      <point x="621" y="62" type="curve" smooth="yes"/>
      <point x="833" y="62"/>
      <point x="962" y="198"/>
      <point x="962" y="383" type="curve" smooth="yes"/>
      <point x="962" y="460"/>
      <point x="940" y="531"/>
      <point x="899" y="600" type="curve"/>
      <point x="948" y="582"/>
      <point x="999" y="573"/>
      <point x="1045" y="573" type="curve" smooth="yes"/>
      <point x="1090" y="573"/>
      <point x="1133" y="582"/>
      <point x="1182" y="605" type="curve"/>
      <point x="1182" y="19" type="line"/>
      <point x="1333" y="-19" type="line"/>
      <point x="1342" y="-12" type="line"/>
      <point x="1342" y="1197" type="line"/>
      <point x="1665" y="1197" type="line"/>
      <point x="1665" y="19" type="line"/>
      <point x="1816" y="-19" type="line"/>
      <point x="1825" y="-12" type="line"/>
      <point x="1825" y="1197" type="line"/>
      <point x="2083" y="1197" type="line"/>
    </contour>
    <contour>
      <point x="374" y="-114"/>
      <point x="362" y="-128"/>
      <point x="362" y="-151" type="curve" smooth="yes"/>
      <point x="362" y="-245"/>
      <point x="556" y="-441"/>
      <point x="829" y="-441" type="curve" smooth="yes"/>
      <point x="1040" y="-441"/>
      <point x="1200" y="-323"/>
      <point x="1200" y="-214" type="curve" smooth="yes"/>
      <point x="1200" y="-167"/>
      <point x="1170" y="-129"/>
      <point x="1117" y="-110" type="curve"/>
      <point x="1050" y="-238"/>
      <point x="921" y="-311"/>
      <point x="774" y="-311" type="curve" smooth="yes"/>
      <point x="630" y="-311"/>
      <point x="489" y="-241"/>
      <point x="388" y="-104" type="curve"/>
    </contour>
    <contour>
      <point x="1076" y="-704"/>
      <point x="1200" y="-618"/>
      <point x="1200" y="-527" type="curve" smooth="yes"/>
      <point x="1200" y="-493"/>
      <point x="1182" y="-460"/>
      <point x="1145" y="-439" type="curve"/>
      <point x="1082" y="-523"/>
      <point x="977" y="-573"/>
      <point x="835" y="-573" type="curve" smooth="yes"/>
      <point x="647" y="-573"/>
      <point x="487" y="-486"/>
      <point x="388" y="-354" type="curve"/>
      <point x="373" y="-365"/>
      <point x="362" y="-379"/>
      <point x="362" y="-401" type="curve" smooth="yes"/>
      <point x="362" y="-495"/>
      <point x="572" y="-704"/>
      <point x="879" y="-704" type="curve" smooth="yes"/>
    </contour>
  </outline>
</glyph>
<glyph name="dZerocombiningdigit" format="1">
  <advance width="0"/>
  <unicode hex="A8E0"/>
  <outline>
    <contour>
      <point x="-92" y="1831"/>
      <point x="-193" y="1937"/>
      <point x="-327" y="1937" type="curve" smooth="yes"/>
      <point x="-431" y="1937"/>
      <point x="-509" y="1855"/>
      <point x="-509" y="1764" type="curve" smooth="yes"/>
      <point x="-509" y="1645"/>
      <point x="-407" y="1535"/>
      <point x="-270" y="1535" type="curve" smooth="yes"/>
      <point x="-172" y="1535"/>
      <point x="-92" y="1610"/>
      <point x="-92" y="1705" type="curve" smooth="yes"/>
    </contour>
    <contour>
      <point x="-233" y="1848"/>
      <point x="-191" y="1808"/>
      <point x="-191" y="1744" type="curve" smooth="yes"/>
      <point x="-191" y="1669"/>
      <point x="-249" y="1622"/>
      <point x="-308" y="1622" type="curve" smooth="yes"/>
      <point x="-363" y="1622"/>
      <point x="-405" y="1667"/>
      <point x="-405" y="1728" type="curve" smooth="yes"/>
      <point x="-405" y="1793"/>
      <point x="-355" y="1848"/>
      <point x="-290" y="1848" type="curve" smooth="yes"/>
    </contour>
  </outline>
</glyph>
<glyph name="dOnecombiningdigit" format="1">
  <advance width="0"/>
  <unicode hex="A8E1"/>
  <outline>
    <contour>
      <point x="-159" y="1507"/>
      <point x="-262" y="1572"/>
      <point x="-341" y="1626" type="curve"/>
      <point x="-230" y="1717"/>
      <point x="-175" y="1800"/>
      <point x="-175" y="1869" type="curve" smooth="yes"/>
      <point x="-175" y="1957"/>
      <point x="-259" y="2041"/>
      <point x="-354" y="2041" type="curve" smooth="yes"/>
      <point x="-424" y="2041"/>
      <point x="-482" y="1996"/>
      <point x="-482" y="1926" type="curve" smooth="yes"/>
      <point x="-482" y="1857"/>
      <point x="-428" y="1798"/>
      <point x="-352" y="1754" type="curve"/>
      <point x="-385" y="1724"/>
      <point x="-424" y="1690"/>
      <point x="-475" y="1647" type="curve"/>
      <point x="-474" y="1638" type="line"/>
      <point x="-335" y="1542"/>
      <point x="-270" y="1498"/>
      <point x="-270" y="1467" type="curve" smooth="yes"/>
      <point x="-270" y="1454"/>
      <point x="-281" y="1438"/>
      <point x="-308" y="1429" type="curve"/>
      <point x="-299" y="1399"/>
      <point x="-267" y="1370"/>
      <point x="-227" y="1370" type="curve" smooth="yes"/>
      <point x="-186" y="1370"/>
      <point x="-159" y="1399"/>
      <point x="-159" y="1435" type="curve" smooth="yes"/>
    </contour>
    <contour>
      <point x="-370" y="1940"/>
      <point x="-346" y="1965"/>
      <point x="-320" y="1965" type="curve" smooth="yes"/>
      <point x="-297" y="1965"/>
      <point x="-276" y="1945"/>
      <point x="-276" y="1899" type="curve" smooth="yes"/>
      <point x="-276" y="1870"/>
      <point x="-288" y="1837"/>
      <point x="-311" y="1805" type="curve"/>
      <point x="-358" y="1838"/>
      <point x="-370" y="1865"/>
      <point x="-370" y="1899" type="curve" smooth="yes"/>
    </contour>
  </outline>
</glyph>
<glyph name="dTwocombiningdigit" format="1">
  <advance width="0"/>
  <unicode hex="A8E2"/>
  <outline>
    <contour>
      <point x="-162" y="1501"/>
      <point x="-177" y="1498"/>
      <point x="-195" y="1498" type="curve" smooth="yes"/>
      <point x="-236" y="1498"/>
      <point x="-266" y="1513"/>
      <point x="-311" y="1598" type="curve"/>
      <point x="-182" y="1642"/>
      <point x="-120" y="1746"/>
      <point x="-120" y="1836" type="curve" smooth="yes"/>
      <point x="-120" y="1945"/>
      <point x="-211" y="2041"/>
      <point x="-333" y="2041" type="curve" smooth="yes"/>
      <point x="-432" y="2041"/>
      <point x="-509" y="1978"/>
      <point x="-509" y="1916" type="curve" smooth="yes"/>
      <point x="-509" y="1871"/>
      <point x="-468" y="1840"/>
      <point x="-403" y="1848" type="curve"/>
      <point x="-407" y="1913"/>
      <point x="-367" y="1965"/>
      <point x="-305" y="1965" type="curve" smooth="yes"/>
      <point x="-258" y="1965"/>
      <point x="-223" y="1934"/>
      <point x="-223" y="1874" type="curve" smooth="yes"/>
      <point x="-223" y="1809"/>
      <point x="-264" y="1739"/>
      <point x="-352" y="1697" type="curve"/>
      <point x="-373" y="1725"/>
      <point x="-406" y="1743"/>
      <point x="-442" y="1743" type="curve" smooth="yes"/>
      <point x="-484" y="1743"/>
      <point x="-519" y="1719"/>
      <point x="-519" y="1675" type="curve" smooth="yes"/>
      <point x="-519" y="1609"/>
      <point x="-438" y="1578"/>
      <point x="-372" y="1585" type="curve"/>
      <point x="-323" y="1445"/>
      <point x="-238" y="1390"/>
      <point x="-174" y="1390" type="curve" smooth="yes"/>
      <point x="-127" y="1390"/>
      <point x="-99" y="1420"/>
      <point x="-99" y="1452" type="curve" smooth="yes"/>
      <point x="-99" y="1471"/>
      <point x="-109" y="1498"/>
      <point x="-132" y="1520" type="curve"/>
    </contour>
  </outline>
</glyph>
<glyph name="dFourcombiningdigit" format="1">
  <advance width="0"/>
  <unicode hex="A8E4"/>
  <outline>
    <contour>
      <point x="-158" y="1626"/>
      <point x="-181" y="1665"/>
      <point x="-255" y="1738" type="curve"/>
      <point x="-78" y="1980" type="line"/>
      <point x="-164" y="2039" type="line"/>
      <point x="-336" y="1807" type="line"/>
      <point x="-408" y="1868"/>
      <point x="-437" y="1889"/>
      <point x="-437" y="1920" type="curve" smooth="yes"/>
      <point x="-437" y="1954"/>
      <point x="-401" y="1969"/>
      <point x="-365" y="1969" type="curve"/>
      <point x="-378" y="2007"/>
      <point x="-403" y="2039"/>
      <point x="-450" y="2039" type="curve" smooth="yes"/>
      <point x="-504" y="2039"/>
      <point x="-547" y="1998"/>
      <point x="-547" y="1948" type="curve" smooth="yes"/>
      <point x="-547" y="1879"/>
      <point x="-464" y="1817"/>
      <point x="-380" y="1749" type="curve"/>
      <point x="-432" y="1674"/>
      <point x="-445" y="1645"/>
      <point x="-445" y="1615" type="curve" smooth="yes"/>
      <point x="-445" y="1540"/>
      <point x="-364" y="1464"/>
      <point x="-283" y="1464" type="curve" smooth="yes"/>
      <point x="-231" y="1464"/>
      <point x="-158" y="1494"/>
      <point x="-158" y="1579" type="curve" smooth="yes"/>
    </contour>
    <contour>
      <point x="-328" y="1547"/>
      <point x="-346" y="1561"/>
      <point x="-346" y="1586" type="curve" smooth="yes"/>
      <point x="-346" y="1608"/>
      <point x="-333" y="1634"/>
      <point x="-301" y="1678" type="curve"/>
      <point x="-273" y="1647"/>
      <point x="-262" y="1626"/>
      <point x="-262" y="1599" type="curve" smooth="yes"/>
      <point x="-262" y="1563"/>
      <point x="-282" y="1547"/>
      <point x="-306" y="1547" type="curve" smooth="yes"/>
    </contour>
  </outline>
</glyph>
<glyph name="dSixcombiningdigit" format="1">
  <advance width="0"/>
  <unicode hex="A8E6"/>
  <outline>
    <contour>
      <point x="-158" y="1558"/>
      <point x="-146" y="1586"/>
      <point x="-146" y="1609" type="curve" smooth="yes"/>
      <point x="-146" y="1647"/>
      <point x="-181" y="1691"/>
      <point x="-233" y="1691" type="curve" smooth="yes"/>
      <point x="-280" y="1691"/>
      <point x="-313" y="1658"/>
      <point x="-313" y="1621" type="curve" smooth="yes"/>
      <point x="-313" y="1607"/>
      <point x="-307" y="1588"/>
      <point x="-297" y="1575" type="curve"/>
      <point x="-317" y="1567"/>
      <point x="-326" y="1565"/>
      <point x="-340" y="1565" type="curve" smooth="yes"/>
      <point x="-388" y="1565"/>
      <point x="-422" y="1590"/>
      <point x="-422" y="1638" type="curve" smooth="yes"/>
      <point x="-422" y="1688"/>
      <point x="-386" y="1736"/>
      <point x="-231" y="1748" type="curve"/>
      <point x="-226" y="1756" type="line"/>
      <point x="-265" y="1836" type="line"/>
      <point x="-311" y="1834"/>
      <point x="-354" y="1826"/>
      <point x="-386" y="1815" type="curve"/>
      <point x="-408" y="1832"/>
      <point x="-417" y="1851"/>
      <point x="-417" y="1875" type="curve" smooth="yes"/>
      <point x="-417" y="1918"/>
      <point x="-387" y="1952"/>
      <point x="-320" y="1952" type="curve" smooth="yes"/>
      <point x="-287" y="1952"/>
      <point x="-253" y="1944"/>
      <point x="-231" y="1935" type="curve"/>
      <point x="-224" y="1988"/>
      <point x="-271" y="2039"/>
      <point x="-358" y="2039" type="curve" smooth="yes"/>
      <point x="-452" y="2039"/>
      <point x="-523" y="1979"/>
      <point x="-523" y="1905" type="curve" smooth="yes"/>
      <point x="-523" y="1858"/>
      <point x="-494" y="1815"/>
      <point x="-451" y="1782" type="curve"/>
      <point x="-502" y="1748"/>
      <point x="-522" y="1711"/>
      <point x="-522" y="1670" type="curve" smooth="yes"/>
      <point x="-522" y="1584"/>
      <point x="-433" y="1488"/>
      <point x="-314" y="1488" type="curve" smooth="yes"/>
      <point x="-287" y="1488"/>
      <point x="-262" y="1493"/>
      <point x="-232" y="1506" type="curve"/>
      <point x="-219" y="1491"/>
      <point x="-214" y="1475"/>
      <point x="-214" y="1462" type="curve" smooth="yes"/>
      <point x="-214" y="1437"/>
      <point x="-233" y="1426"/>
      <point x="-267" y="1426" type="curve"/>
      <point x="-261" y="1384"/>
      <point x="-233" y="1356"/>
      <point x="-190" y="1356" type="curve" smooth="yes"/>
      <point x="-144" y="1356"/>
      <point x="-118" y="1389"/>
      <point x="-118" y="1425" type="curve" smooth="yes"/>
      <point x="-118" y="1450"/>
      <point x="-131" y="1483"/>
      <point x="-178" y="1541" type="curve"/>
    </contour>
  </outline>
</glyph>
<glyph name="dUcombiningletter" format="1">
  <advance width="0"/>
  <unicode hex="A8EB"/>
  <outline>
    <contour>
      <point x="-140" y="1821"/>
      <point x="-126" y="1852"/>
      <point x="-126" y="1887" type="curve" smooth="yes"/>
      <point x="-126" y="1917"/>
      <point x="-136" y="1949"/>
      <point x="-166" y="1985" type="curve"/>
      <point x="-30" y="1985" type="line"/>
      <point x="-25" y="1992" type="line"/>
      <point x="-45" y="2065" type="line"/>
      <point x="-577" y="2065" type="line"/>
      <point x="-582" y="2058" type="line"/>
      <point x="-562" y="1985" type="line"/>
      <point x="-288" y="1985" type="line" smooth="yes"/>
      <point x="-247" y="1985"/>
      <point x="-228" y="1954"/>
      <point x="-228" y="1922" type="curve" smooth="yes"/>
      <point x="-228" y="1870"/>
      <point x="-278" y="1838"/>
      <point x="-383" y="1839" type="curve"/>
      <point x="-388" y="1832" type="line"/>
      <point x="-365" y="1741" type="line"/>
      <point x="-322" y="1740"/>
      <point x="-280" y="1745"/>
      <point x="-249" y="1754" type="curve"/>
      <point x="-218" y="1740"/>
      <point x="-193" y="1709"/>
      <point x="-193" y="1664" type="curve" smooth="yes"/>
      <point x="-193" y="1607"/>
      <point x="-234" y="1571"/>
      <point x="-290" y="1571" type="curve" smooth="yes"/>
      <point x="-373" y="1571"/>
      <point x="-445" y="1652"/>
      <point x="-476" y="1829" type="curve"/>
      <point x="-528" y="1834"/>
      <point x="-544" y="1806"/>
      <point x="-544" y="1772" type="curve" smooth="yes"/>
      <point x="-544" y="1696"/>
      <point x="-462" y="1475"/>
      <point x="-269" y="1475" type="curve" smooth="yes"/>
      <point x="-158" y="1475"/>
      <point x="-91" y="1548"/>
      <point x="-91" y="1633" type="curve" smooth="yes"/>
      <point x="-91" y="1691"/>
      <point x="-122" y="1748"/>
      <point x="-176" y="1789" type="curve"/>
    </contour>
  </outline>
</glyph>
<glyph name="dKacombiningletter" format="1">
  <advance width="0"/>
  <unicode hex="A8EC"/>
  <outline>
    <contour>
      <point x="-181" y="1886"/>
      <point x="-204" y="1880"/>
      <point x="-234" y="1866" type="curve"/>
      <point x="-234" y="1985" type="line"/>
      <point x="66" y="1985" type="line"/>
      <point x="71" y="1992" type="line"/>
      <point x="54" y="2065" type="line"/>
      <point x="-687" y="2065" type="line"/>
      <point x="-692" y="2058" type="line"/>
      <point x="-672" y="1985" type="line"/>
      <point x="-346" y="1985" type="line"/>
      <point x="-346" y="1874" type="line"/>
      <point x="-390" y="1900"/>
      <point x="-432" y="1911"/>
      <point x="-468" y="1911" type="curve" smooth="yes"/>
      <point x="-561" y="1911"/>
      <point x="-631" y="1840"/>
      <point x="-631" y="1756" type="curve" smooth="yes"/>
      <point x="-631" y="1645"/>
      <point x="-510" y="1545"/>
      <point x="-407" y="1545" type="curve" smooth="yes"/>
      <point x="-389" y="1545"/>
      <point x="-370" y="1548"/>
      <point x="-346" y="1556" type="curve"/>
      <point x="-346" y="1459" type="line"/>
      <point x="-240" y="1450" type="line"/>
      <point x="-234" y="1455" type="line"/>
      <point x="-234" y="1680" type="line" smooth="yes"/>
      <point x="-234" y="1755"/>
      <point x="-167" y="1806"/>
      <point x="-123" y="1806" type="curve" smooth="yes"/>
      <point x="-95" y="1806"/>
      <point x="-77" y="1786"/>
      <point x="-77" y="1741" type="curve" smooth="yes"/>
      <point x="-77" y="1675"/>
      <point x="-117" y="1622"/>
      <point x="-174" y="1588" type="curve"/>
      <point x="-159" y="1561"/>
      <point x="-125" y="1537"/>
      <point x="-90" y="1537" type="curve" smooth="yes"/>
      <point x="-35" y="1537"/>
      <point x="19" y="1596"/>
      <point x="19" y="1691" type="curve" smooth="yes"/>
      <point x="19" y="1809"/>
      <point x="-63" y="1886"/>
      <point x="-155" y="1886" type="curve" smooth="yes"/>
    </contour>
    <contour>
      <point x="-486" y="1628"/>
      <point x="-524" y="1666"/>
      <point x="-524" y="1723" type="curve" smooth="yes"/>
      <point x="-524" y="1780"/>
      <point x="-485" y="1821"/>
      <point x="-435" y="1821" type="curve" smooth="yes"/>
      <point x="-386" y="1821"/>
      <point x="-346" y="1782"/>
      <point x="-346" y="1737" type="curve" smooth="yes"/>
      <point x="-346" y="1712" type="line" smooth="yes"/>
      <point x="-346" y="1660"/>
      <point x="-391" y="1628"/>
      <point x="-437" y="1628" type="curve" smooth="yes"/>
    </contour>
  </outline>
</glyph>
<glyph name="dVicombiningletter" format="1">
  <advance width="0"/>
  <unicode hex="A8F0"/>
  <outline>
    <contour>
      <point x="-47" y="1985" type="line"/>
      <point x="57" y="1985" type="line"/>
      <point x="62" y="1992" type="line"/>
      <point x="42" y="2065" type="line"/>
      <point x="-75" y="2065" type="line"/>
      <point x="-196" y="2237"/>
      <point x="-365" y="2324"/>
      <point x="-515" y="2324" type="curve" smooth="yes"/>
      <point x="-652" y="2324"/>
      <point x="-726" y="2251"/>
      <point x="-726" y="2164" type="curve" smooth="yes"/>
      <point x="-726" y="2126"/>
      <point x="-712" y="2099"/>
      <point x="-685" y="2065" type="curve"/>
      <point x="-763" y="2065" type="line"/>
      <point x="-768" y="2058" type="line"/>
      <point x="-749" y="1985" type="line"/>
      <point x="-662" y="1985" type="line"/>
      <point x="-662" y="1459" type="line"/>
      <point x="-556" y="1450" type="line"/>
      <point x="-550" y="1455" type="line"/>
      <point x="-550" y="1985" type="line"/>
      <point x="-159" y="1985" type="line"/>
      <point x="-159" y="1879" type="line"/>
      <point x="-208" y="1910"/>
      <point x="-250" y="1920"/>
      <point x="-291" y="1920" type="curve" smooth="yes"/>
      <point x="-403" y="1920"/>
      <point x="-480" y="1845"/>
      <point x="-480" y="1756" type="curve" smooth="yes"/>
      <point x="-480" y="1644"/>
      <point x="-356" y="1545"/>
      <point x="-249" y="1545" type="curve" smooth="yes"/>
      <point x="-223" y="1545"/>
      <point x="-193" y="1551"/>
      <point x="-159" y="1565" type="curve"/>
      <point x="-159" y="1459" type="line"/>
      <point x="-53" y="1450" type="line"/>
      <point x="-47" y="1455" type="line"/>
    </contour>
    <contour>
      <point x="-381" y="2232"/>
      <point x="-267" y="2179"/>
      <point x="-172" y="2065" type="curve"/>
      <point x="-593" y="2065" type="line"/>
      <point x="-613" y="2084"/>
      <point x="-624" y="2108"/>
      <point x="-624" y="2137" type="curve" smooth="yes"/>
      <point x="-624" y="2194"/>
      <point x="-581" y="2232"/>
      <point x="-489" y="2232" type="curve" smooth="yes"/>
    </contour>
    <contour>
      <point x="-334" y="1628"/>
      <point x="-373" y="1665"/>
      <point x="-373" y="1725" type="curve" smooth="yes"/>
      <point x="-373" y="1790"/>
      <point x="-327" y="1835"/>
      <point x="-262" y="1835" type="curve" smooth="yes"/>
      <point x="-205" y="1835"/>
      <point x="-159" y="1799"/>
      <point x="-159" y="1746" type="curve" smooth="yes"/>
      <point x="-159" y="1735" type="line" smooth="yes"/>
      <point x="-159" y="1669"/>
      <point x="-221" y="1628"/>
      <point x="-279" y="1628" type="curve" smooth="yes"/>
    </contour>
  </outline>
</glyph>
